<?xml version="1.0" encoding="utf-8" standalone="no"?>
<!DOCTYPE svg PUBLIC "-//W3C//DTD SVG 1.1//EN"
  "http://www.w3.org/Graphics/SVG/1.1/DTD/svg11.dtd">
<!-- Created with matplotlib (http://matplotlib.org/) -->
<svg height="391pt" version="1.1" viewBox="0 0 501 391" width="501pt" xmlns="http://www.w3.org/2000/svg" xmlns:xlink="http://www.w3.org/1999/xlink">
 <defs>
  <style type="text/css">
*{stroke-linecap:butt;stroke-linejoin:round;stroke-miterlimit:100000;}
  </style>
 </defs>
 <g id="figure_1">
  <g id="patch_1">
   <path d="M 0 391.205156 
L 501.163281 391.205156 
L 501.163281 0 
L 0 0 
z
" style="fill:#ffffff;"/>
  </g>
  <g id="axes_1">
   <g id="patch_2">
    <path d="M 39.221875 352.8 
L 485.621875 352.8 
L 485.621875 7.2 
L 39.221875 7.2 
z
" style="fill:#ffffff;"/>
   </g>
   <g id="matplotlib.axis_1">
    <g id="xtick_1">
     <g id="line2d_1"/>
     <g id="line2d_2"/>
     <g id="text_1">
      <!-- −20 -->
      <defs>
       <path d="M 4.15625 35.296875 
Q 4.15625 48 6.765625 55.734375 
Q 9.375 63.484375 14.515625 67.671875 
Q 19.671875 71.875 27.484375 71.875 
Q 33.25 71.875 37.59375 69.546875 
Q 41.9375 67.234375 44.765625 62.859375 
Q 47.609375 58.5 49.21875 52.21875 
Q 50.828125 45.953125 50.828125 35.296875 
Q 50.828125 22.703125 48.234375 14.96875 
Q 45.65625 7.234375 40.5 3 
Q 35.359375 -1.21875 27.484375 -1.21875 
Q 17.140625 -1.21875 11.234375 6.203125 
Q 4.15625 15.140625 4.15625 35.296875 
M 13.1875 35.296875 
Q 13.1875 17.671875 17.3125 11.828125 
Q 21.4375 6 27.484375 6 
Q 33.546875 6 37.671875 11.859375 
Q 41.796875 17.71875 41.796875 35.296875 
Q 41.796875 52.984375 37.671875 58.78125 
Q 33.546875 64.59375 27.390625 64.59375 
Q 21.34375 64.59375 17.71875 59.46875 
Q 13.1875 52.9375 13.1875 35.296875 
" id="ArialMT-30"/>
       <path d="M 52.828125 31.203125 
L 5.5625 31.203125 
L 5.5625 39.40625 
L 52.828125 39.40625 
z
" id="ArialMT-2212"/>
       <path d="M 50.34375 8.453125 
L 50.34375 0 
L 3.03125 0 
Q 2.9375 3.171875 4.046875 6.109375 
Q 5.859375 10.9375 9.828125 15.625 
Q 13.8125 20.3125 21.34375 26.46875 
Q 33.015625 36.03125 37.109375 41.625 
Q 41.21875 47.21875 41.21875 52.203125 
Q 41.21875 57.421875 37.46875 61 
Q 33.734375 64.59375 27.734375 64.59375 
Q 21.390625 64.59375 17.578125 60.78125 
Q 13.765625 56.984375 13.71875 50.25 
L 4.6875 51.171875 
Q 5.609375 61.28125 11.65625 66.578125 
Q 17.71875 71.875 27.9375 71.875 
Q 38.234375 71.875 44.234375 66.15625 
Q 50.25 60.453125 50.25 52 
Q 50.25 47.703125 48.484375 43.546875 
Q 46.734375 39.40625 42.65625 34.8125 
Q 38.578125 30.21875 29.109375 22.21875 
Q 21.1875 15.578125 18.9375 13.203125 
Q 16.703125 10.84375 15.234375 8.453125 
z
" id="ArialMT-32"/>
      </defs>
      <g style="fill:#262626;" transform="translate(30.740625 366.9578125)scale(0.1 -0.1)">
       <use xlink:href="#ArialMT-2212"/>
       <use x="58.3984375" xlink:href="#ArialMT-32"/>
       <use x="114.013671875" xlink:href="#ArialMT-30"/>
      </g>
     </g>
    </g>
    <g id="xtick_2">
     <g id="line2d_3"/>
     <g id="line2d_4"/>
     <g id="text_2">
      <!-- 0 -->
      <g style="fill:#262626;" transform="translate(100.212834821 366.9578125)scale(0.1 -0.1)">
       <use xlink:href="#ArialMT-30"/>
      </g>
     </g>
    </g>
    <g id="xtick_3">
     <g id="line2d_5"/>
     <g id="line2d_6"/>
     <g id="text_3">
      <!-- 20 -->
      <g style="fill:#262626;" transform="translate(161.203794643 366.9578125)scale(0.1 -0.1)">
       <use xlink:href="#ArialMT-32"/>
       <use x="55.615234375" xlink:href="#ArialMT-30"/>
      </g>
     </g>
    </g>
    <g id="xtick_4">
     <g id="line2d_7"/>
     <g id="line2d_8"/>
     <g id="text_4">
      <!-- 40 -->
      <defs>
       <path d="M 32.328125 0 
L 32.328125 17.140625 
L 1.265625 17.140625 
L 1.265625 25.203125 
L 33.9375 71.578125 
L 41.109375 71.578125 
L 41.109375 25.203125 
L 50.78125 25.203125 
L 50.78125 17.140625 
L 41.109375 17.140625 
L 41.109375 0 
z
M 32.328125 25.203125 
L 32.328125 57.46875 
L 9.90625 25.203125 
z
" id="ArialMT-34"/>
      </defs>
      <g style="fill:#262626;" transform="translate(224.975223214 366.9578125)scale(0.1 -0.1)">
       <use xlink:href="#ArialMT-34"/>
       <use x="55.615234375" xlink:href="#ArialMT-30"/>
      </g>
     </g>
    </g>
    <g id="xtick_5">
     <g id="line2d_9"/>
     <g id="line2d_10"/>
     <g id="text_5">
      <!-- 60 -->
      <defs>
       <path d="M 49.75 54.046875 
L 41.015625 53.375 
Q 39.84375 58.546875 37.703125 60.890625 
Q 34.125 64.65625 28.90625 64.65625 
Q 24.703125 64.65625 21.53125 62.3125 
Q 17.390625 59.28125 14.984375 53.46875 
Q 12.59375 47.65625 12.5 36.921875 
Q 15.671875 41.75 20.265625 44.09375 
Q 24.859375 46.4375 29.890625 46.4375 
Q 38.671875 46.4375 44.84375 39.96875 
Q 51.03125 33.5 51.03125 23.25 
Q 51.03125 16.5 48.125 10.71875 
Q 45.21875 4.9375 40.140625 1.859375 
Q 35.0625 -1.21875 28.609375 -1.21875 
Q 17.625 -1.21875 10.6875 6.859375 
Q 3.765625 14.9375 3.765625 33.5 
Q 3.765625 54.25 11.421875 63.671875 
Q 18.109375 71.875 29.4375 71.875 
Q 37.890625 71.875 43.28125 67.140625 
Q 48.6875 62.40625 49.75 54.046875 
M 13.875 23.1875 
Q 13.875 18.65625 15.796875 14.5 
Q 17.71875 10.359375 21.1875 8.171875 
Q 24.65625 6 28.46875 6 
Q 34.03125 6 38.03125 10.484375 
Q 42.046875 14.984375 42.046875 22.703125 
Q 42.046875 30.125 38.078125 34.390625 
Q 34.125 38.671875 28.125 38.671875 
Q 22.171875 38.671875 18.015625 34.390625 
Q 13.875 30.125 13.875 23.1875 
" id="ArialMT-36"/>
      </defs>
      <g style="fill:#262626;" transform="translate(288.746651786 366.9578125)scale(0.1 -0.1)">
       <use xlink:href="#ArialMT-36"/>
       <use x="55.615234375" xlink:href="#ArialMT-30"/>
      </g>
     </g>
    </g>
    <g id="xtick_6">
     <g id="line2d_11"/>
     <g id="line2d_12"/>
     <g id="text_6">
      <!-- 80 -->
      <defs>
       <path d="M 17.671875 38.8125 
Q 12.203125 40.828125 9.5625 44.53125 
Q 6.9375 48.25 6.9375 53.421875 
Q 6.9375 61.234375 12.546875 66.546875 
Q 18.171875 71.875 27.484375 71.875 
Q 36.859375 71.875 42.578125 66.421875 
Q 48.296875 60.984375 48.296875 53.171875 
Q 48.296875 48.1875 45.671875 44.5 
Q 43.0625 40.828125 37.75 38.8125 
Q 44.34375 36.671875 47.78125 31.875 
Q 51.21875 27.09375 51.21875 20.453125 
Q 51.21875 11.28125 44.71875 5.03125 
Q 38.234375 -1.21875 27.640625 -1.21875 
Q 17.046875 -1.21875 10.546875 5.046875 
Q 4.046875 11.328125 4.046875 20.703125 
Q 4.046875 27.6875 7.59375 32.390625 
Q 11.140625 37.109375 17.671875 38.8125 
M 15.921875 53.71875 
Q 15.921875 48.640625 19.1875 45.40625 
Q 22.46875 42.1875 27.6875 42.1875 
Q 32.765625 42.1875 36.015625 45.375 
Q 39.265625 48.578125 39.265625 53.21875 
Q 39.265625 58.0625 35.90625 61.359375 
Q 32.5625 64.65625 27.59375 64.65625 
Q 22.5625 64.65625 19.234375 61.421875 
Q 15.921875 58.203125 15.921875 53.71875 
M 13.09375 20.65625 
Q 13.09375 16.890625 14.875 13.375 
Q 16.65625 9.859375 20.171875 7.921875 
Q 23.6875 6 27.734375 6 
Q 34.03125 6 38.125 10.046875 
Q 42.234375 14.109375 42.234375 20.359375 
Q 42.234375 26.703125 38.015625 30.859375 
Q 33.796875 35.015625 27.4375 35.015625 
Q 21.234375 35.015625 17.15625 30.90625 
Q 13.09375 26.8125 13.09375 20.65625 
" id="ArialMT-38"/>
      </defs>
      <g style="fill:#262626;" transform="translate(352.518080357 366.9578125)scale(0.1 -0.1)">
       <use xlink:href="#ArialMT-38"/>
       <use x="55.615234375" xlink:href="#ArialMT-30"/>
      </g>
     </g>
    </g>
    <g id="xtick_7">
     <g id="line2d_13"/>
     <g id="line2d_14"/>
     <g id="text_7">
      <!-- 100 -->
      <defs>
       <path d="M 37.25 0 
L 28.46875 0 
L 28.46875 56 
Q 25.296875 52.984375 20.140625 49.953125 
Q 14.984375 46.921875 10.890625 45.40625 
L 10.890625 53.90625 
Q 18.265625 57.375 23.78125 62.296875 
Q 29.296875 67.234375 31.59375 71.875 
L 37.25 71.875 
z
" id="ArialMT-31"/>
      </defs>
      <g style="fill:#262626;" transform="translate(413.509040179 366.9578125)scale(0.1 -0.1)">
       <use xlink:href="#ArialMT-31"/>
       <use x="55.615234375" xlink:href="#ArialMT-30"/>
       <use x="111.23046875" xlink:href="#ArialMT-30"/>
      </g>
     </g>
    </g>
    <g id="xtick_8">
     <g id="line2d_15"/>
     <g id="line2d_16"/>
     <g id="text_8">
      <!-- 120 -->
      <g style="fill:#262626;" transform="translate(477.28046875 366.9578125)scale(0.1 -0.1)">
       <use xlink:href="#ArialMT-31"/>
       <use x="55.615234375" xlink:href="#ArialMT-32"/>
       <use x="111.23046875" xlink:href="#ArialMT-30"/>
      </g>
     </g>
    </g>
    <g id="text_9">
     <!-- x -->
     <defs>
      <path d="M 0.734375 0 
L 19.671875 26.953125 
L 2.15625 51.859375 
L 13.140625 51.859375 
L 21.09375 39.703125 
Q 23.34375 36.234375 24.703125 33.890625 
Q 26.859375 37.109375 28.65625 39.59375 
L 37.40625 51.859375 
L 47.90625 51.859375 
L 29.984375 27.4375 
L 49.265625 0 
L 38.484375 0 
L 27.828125 16.109375 
L 25 20.453125 
L 11.375 0 
z
" id="ArialMT-78"/>
     </defs>
     <g style="fill:#262626;" transform="translate(259.671875 381.81890625)scale(0.11 -0.11)">
      <use xlink:href="#ArialMT-78"/>
     </g>
    </g>
   </g>
   <g id="matplotlib.axis_2">
    <g id="ytick_1">
     <g id="line2d_17"/>
     <g id="line2d_18"/>
     <g id="text_10">
      <!-- 0.000 -->
      <defs>
       <path d="M 9.078125 0 
L 9.078125 10.015625 
L 19.09375 10.015625 
L 19.09375 0 
z
" id="ArialMT-2e"/>
      </defs>
      <g style="fill:#262626;" transform="translate(7.2 355.38515625)scale(0.1 -0.1)">
       <use xlink:href="#ArialMT-30"/>
       <use x="55.615234375" xlink:href="#ArialMT-2e"/>
       <use x="83.3984375" xlink:href="#ArialMT-30"/>
       <use x="139.013671875" xlink:href="#ArialMT-30"/>
       <use x="194.62890625" xlink:href="#ArialMT-30"/>
      </g>
     </g>
    </g>
    <g id="ytick_2">
     <g id="line2d_19"/>
     <g id="line2d_20"/>
     <g id="text_11">
      <!-- 0.005 -->
      <defs>
       <path d="M 4.15625 18.75 
L 13.375 19.53125 
Q 14.40625 12.796875 18.140625 9.390625 
Q 21.875 6 27.15625 6 
Q 33.5 6 37.890625 10.78125 
Q 42.28125 15.578125 42.28125 23.484375 
Q 42.28125 31 38.0625 35.34375 
Q 33.84375 39.703125 27 39.703125 
Q 22.75 39.703125 19.328125 37.765625 
Q 15.921875 35.84375 13.96875 32.765625 
L 5.71875 33.84375 
L 12.640625 70.609375 
L 48.25 70.609375 
L 48.25 62.203125 
L 19.671875 62.203125 
L 15.828125 42.96875 
Q 22.265625 47.46875 29.34375 47.46875 
Q 38.71875 47.46875 45.15625 40.96875 
Q 51.609375 34.46875 51.609375 24.265625 
Q 51.609375 14.546875 45.953125 7.46875 
Q 39.0625 -1.21875 27.15625 -1.21875 
Q 17.390625 -1.21875 11.203125 4.25 
Q 5.03125 9.71875 4.15625 18.75 
" id="ArialMT-35"/>
      </defs>
      <g style="fill:#262626;" transform="translate(7.2 303.784501238)scale(0.1 -0.1)">
       <use xlink:href="#ArialMT-30"/>
       <use x="55.615234375" xlink:href="#ArialMT-2e"/>
       <use x="83.3984375" xlink:href="#ArialMT-30"/>
       <use x="139.013671875" xlink:href="#ArialMT-30"/>
       <use x="194.62890625" xlink:href="#ArialMT-35"/>
      </g>
     </g>
    </g>
    <g id="ytick_3">
     <g id="line2d_21"/>
     <g id="line2d_22"/>
     <g id="text_12">
      <!-- 0.010 -->
      <g style="fill:#262626;" transform="translate(7.2 252.183846225)scale(0.1 -0.1)">
       <use xlink:href="#ArialMT-30"/>
       <use x="55.615234375" xlink:href="#ArialMT-2e"/>
       <use x="83.3984375" xlink:href="#ArialMT-30"/>
       <use x="139.013671875" xlink:href="#ArialMT-31"/>
       <use x="194.62890625" xlink:href="#ArialMT-30"/>
      </g>
     </g>
    </g>
    <g id="ytick_4">
     <g id="line2d_23"/>
     <g id="line2d_24"/>
     <g id="text_13">
      <!-- 0.015 -->
      <g style="fill:#262626;" transform="translate(7.2 200.583191213)scale(0.1 -0.1)">
       <use xlink:href="#ArialMT-30"/>
       <use x="55.615234375" xlink:href="#ArialMT-2e"/>
       <use x="83.3984375" xlink:href="#ArialMT-30"/>
       <use x="139.013671875" xlink:href="#ArialMT-31"/>
       <use x="194.62890625" xlink:href="#ArialMT-35"/>
      </g>
     </g>
    </g>
    <g id="ytick_5">
     <g id="line2d_25"/>
     <g id="line2d_26"/>
     <g id="text_14">
      <!-- 0.020 -->
      <g style="fill:#262626;" transform="translate(7.2 148.9825362)scale(0.1 -0.1)">
       <use xlink:href="#ArialMT-30"/>
       <use x="55.615234375" xlink:href="#ArialMT-2e"/>
       <use x="83.3984375" xlink:href="#ArialMT-30"/>
       <use x="139.013671875" xlink:href="#ArialMT-32"/>
       <use x="194.62890625" xlink:href="#ArialMT-30"/>
      </g>
     </g>
    </g>
    <g id="ytick_6">
     <g id="line2d_27"/>
     <g id="line2d_28"/>
     <g id="text_15">
      <!-- 0.025 -->
      <g style="fill:#262626;" transform="translate(7.2 97.3818811877)scale(0.1 -0.1)">
       <use xlink:href="#ArialMT-30"/>
       <use x="55.615234375" xlink:href="#ArialMT-2e"/>
       <use x="83.3984375" xlink:href="#ArialMT-30"/>
       <use x="139.013671875" xlink:href="#ArialMT-32"/>
       <use x="194.62890625" xlink:href="#ArialMT-35"/>
      </g>
     </g>
    </g>
    <g id="ytick_7">
     <g id="line2d_29"/>
     <g id="line2d_30"/>
     <g id="text_16">
      <!-- 0.030 -->
      <defs>
       <path d="M 4.203125 18.890625 
L 12.984375 20.0625 
Q 14.5 12.59375 18.140625 9.296875 
Q 21.78125 6 27 6 
Q 33.203125 6 37.46875 10.296875 
Q 41.75 14.59375 41.75 20.953125 
Q 41.75 27 37.796875 30.921875 
Q 33.84375 34.859375 27.734375 34.859375 
Q 25.25 34.859375 21.53125 33.890625 
L 22.515625 41.609375 
Q 23.390625 41.5 23.921875 41.5 
Q 29.546875 41.5 34.03125 44.421875 
Q 38.53125 47.359375 38.53125 53.46875 
Q 38.53125 58.296875 35.25 61.46875 
Q 31.984375 64.65625 26.8125 64.65625 
Q 21.6875 64.65625 18.265625 61.421875 
Q 14.84375 58.203125 13.875 51.765625 
L 5.078125 53.328125 
Q 6.6875 62.15625 12.390625 67.015625 
Q 18.109375 71.875 26.609375 71.875 
Q 32.46875 71.875 37.390625 69.359375 
Q 42.328125 66.84375 44.9375 62.5 
Q 47.5625 58.15625 47.5625 53.265625 
Q 47.5625 48.640625 45.0625 44.828125 
Q 42.578125 41.015625 37.703125 38.765625 
Q 44.046875 37.3125 47.5625 32.6875 
Q 51.078125 28.078125 51.078125 21.140625 
Q 51.078125 11.765625 44.234375 5.25 
Q 37.40625 -1.265625 26.953125 -1.265625 
Q 17.53125 -1.265625 11.296875 4.34375 
Q 5.078125 9.96875 4.203125 18.890625 
" id="ArialMT-33"/>
      </defs>
      <g style="fill:#262626;" transform="translate(7.2 45.7812261753)scale(0.1 -0.1)">
       <use xlink:href="#ArialMT-30"/>
       <use x="55.615234375" xlink:href="#ArialMT-2e"/>
       <use x="83.3984375" xlink:href="#ArialMT-30"/>
       <use x="139.013671875" xlink:href="#ArialMT-33"/>
       <use x="194.62890625" xlink:href="#ArialMT-30"/>
      </g>
     </g>
    </g>
   </g>
   <g id="line2d_31">
    <path clip-path="url(#pdd4ae3a6ed)" d="M 93.282693 352.744874 
L 96.931565 352.705466 
L 100.580437 352.643051 
L 104.229309 352.547635 
L 107.878181 352.406824 
L 111.527053 352.206146 
L 115.175926 351.929786 
L 118.824798 351.561658 
L 122.47367 351.086579 
L 126.122542 350.491125 
L 129.771414 349.763598 
L 133.420287 348.892484 
L 137.069159 347.862934 
L 140.718031 346.651141 
L 144.366903 345.217023 
L 148.015775 343.496264 
L 151.664647 341.393392 
L 155.31352 338.777935 
L 158.962392 335.485738 
L 162.611264 331.326969 
L 166.260136 326.101326 
L 169.909008 319.619499 
L 173.557881 311.728388 
L 177.206753 302.336282 
L 180.855625 291.433676 
L 184.504497 279.10582 
L 188.153369 265.53466 
L 191.802241 250.990083 
L 195.451114 235.812769 
L 199.099986 220.392696 
L 202.748858 205.147754 
L 206.39773 190.50587 
L 210.046602 176.891737 
L 213.695475 164.716702 
L 217.344347 154.368471 
L 220.993219 146.196975 
L 224.642091 140.494206 
L 228.290963 137.468597 
L 231.939836 137.217532 
L 235.588708 139.703719 
L 239.23758 144.741435 
L 242.886452 151.997054 
L 246.535324 161.005193 
L 250.184196 171.198408 
L 253.833069 181.945784 
L 257.481941 192.594675 
L 261.130813 202.510548 
L 264.779685 211.111744 
L 268.428557 217.898213 
L 272.07743 222.474961 
L 275.726302 224.571451 
L 279.375174 224.057508 
L 283.024046 220.954789 
L 286.672918 215.441402 
L 290.32179 207.846616 
L 293.970663 198.633244 
L 297.619535 188.367295 
L 301.268407 177.677315 
L 304.917279 167.208422 
L 308.566151 157.57767 
L 312.215024 149.337063 
L 315.863896 142.948534 
L 319.512768 138.77191 
L 323.16164 137.063515 
L 326.810512 137.980701 
L 330.459384 141.587127 
L 334.108257 147.855008 
L 337.757129 156.66336 
L 341.406001 167.794268 
L 345.054873 180.931356 
L 348.703745 195.665148 
L 352.352618 211.508737 
L 356.00149 227.924645 
L 359.650362 244.360804 
L 363.299234 260.291097 
L 366.948106 275.254627 
L 370.596978 288.887924 
L 374.245851 300.945626 
L 377.894723 311.307291 
L 381.543595 319.970365 
L 385.192467 327.031501 
L 388.841339 332.659976 
L 392.490212 337.067764 
L 396.139084 340.480707 
L 399.787956 343.114474 
L 403.436828 345.157627 
L 407.0857 346.762598 
L 410.734573 348.043914 
L 414.383445 349.08197 
L 418.032317 349.930103 
L 421.681189 350.622742 
L 425.330061 351.182892 
L 428.978933 351.627863 
L 432.627806 351.972897 
L 436.276678 352.23288 
L 439.92555 352.422668 
L 443.574422 352.556631 
L 447.223294 352.647953 
L 450.872167 352.708034 
L 454.521039 352.746168 
" style="fill:none;stroke:#4c72b0;stroke-linecap:round;stroke-width:1.75;"/>
   </g>
   <g id="line2d_32">
    <path clip-path="url(#pdd4ae3a6ed)" d="M 105.170021 352.617571 
L 108.701877 352.484575 
L 112.233732 352.27089 
L 115.765588 351.938788 
L 119.297443 351.439606 
L 122.829299 350.714073 
L 126.361154 349.694597 
L 129.89301 348.310019 
L 133.424866 346.492964 
L 136.956721 344.189357 
L 140.488577 341.368914 
L 144.020432 338.034781 
L 147.552288 334.229973 
L 151.084143 330.038338 
L 154.615999 325.578302 
L 158.147855 320.988845 
L 161.67971 316.408747 
L 165.211566 311.951804 
L 168.743421 307.68208 
L 172.275277 303.594042 
L 175.807132 299.602181 
L 179.338988 295.543654 
L 182.870844 291.195435 
L 186.402699 286.304919 
L 189.934555 280.630169 
L 193.46641 273.983612 
L 196.998266 266.271404 
L 200.530121 257.520492 
L 204.061977 247.88682 
L 207.593833 237.641173 
L 211.125688 227.133451 
L 214.657544 216.740861 
L 218.189399 206.809466 
L 221.721255 197.600761 
L 225.25311 189.254517 
L 228.784966 181.776022 
L 232.316822 175.050621 
L 235.848677 168.882286 
L 239.380533 163.047434 
L 242.912388 157.351771 
L 246.444244 151.677465 
L 249.976099 146.010528 
L 253.507955 140.443302 
L 257.039811 135.15303 
L 260.571666 130.363056 
L 264.103522 126.296965 
L 267.635377 123.136911 
L 271.167233 120.995538 
L 274.699088 119.906792 
L 278.230944 119.83578 
L 281.7628 120.703103 
L 285.294655 122.415991 
L 288.826511 124.897718 
L 292.358366 128.108303 
L 295.890222 132.052597 
L 299.422077 136.775502 
L 302.953933 142.347128 
L 306.485789 148.842439 
L 310.017644 156.320115 
L 313.5495 164.804312 
L 317.081355 174.271413 
L 320.613211 184.642403 
L 324.145066 195.780552 
L 327.676922 207.493861 
L 331.208778 219.541794 
L 334.740633 231.646051 
L 338.272489 243.505099 
L 341.804344 254.811923 
L 345.3362 265.273986 
L 348.868055 274.634042 
L 352.399911 282.690164 
L 355.931767 289.313318 
L 359.463622 294.460834 
L 362.995478 298.184197 
L 366.527333 300.629593 
L 370.059189 302.029915 
L 373.591044 302.687485 
L 377.1229 302.94785 
L 380.654756 303.166554 
L 384.186611 303.67251 
L 387.718467 304.73292 
L 391.250322 306.525236 
L 394.782178 309.120885 
L 398.314033 312.483643 
L 401.845889 316.482811 
L 405.377745 320.918527 
L 408.9096 325.554342 
L 412.441456 330.15113 
L 415.973311 334.496672 
L 419.505167 338.426784 
L 423.037022 341.836004 
L 426.568878 344.678096 
L 430.100734 346.958462 
L 433.632589 348.721501 
L 437.164445 350.036158 
L 440.6963 350.982347 
L 444.228156 351.640032 
L 447.760011 352.081751 
L 451.291867 352.36852 
L 454.823723 352.548541 
" style="fill:none;stroke:#55a868;stroke-linecap:round;stroke-width:1.75;"/>
   </g>
   <g id="line2d_33">
    <path clip-path="url(#pdd4ae3a6ed)" d="M 113.414435 352.648395 
L 116.667158 352.541791 
L 119.91988 352.370649 
L 123.172603 352.102934 
L 126.425325 351.694905 
L 129.678048 351.089063 
L 132.930771 350.212831 
L 136.183493 348.978575 
L 139.436216 347.285638 
L 142.688938 345.024951 
L 145.941661 342.086572 
L 149.194383 338.370063 
L 152.447106 333.797061 
L 155.699829 328.324771 
L 158.952551 321.958555 
L 162.205274 314.761486 
L 165.457996 306.858801 
L 168.710719 298.435668 
L 171.963442 289.7276 
L 175.216164 281.004023 
L 178.468887 272.546669 
L 181.721609 264.625398 
L 184.974332 257.474482 
L 188.227055 251.272267 
L 191.479777 246.126413 
L 194.7325 242.065939 
L 197.985222 239.040188 
L 201.237945 236.923958 
L 204.490667 235.527503 
L 207.74339 234.609996 
L 210.996113 233.895178 
L 214.248835 233.08827 
L 217.501558 231.89343 
L 220.75428 230.031225 
L 224.007003 227.255549 
L 227.259726 223.369305 
L 230.512448 218.238085 
L 233.765171 211.801016 
L 237.017893 204.077993 
L 240.270616 195.172625 
L 243.523338 185.270411 
L 246.776061 174.631806 
L 250.028784 163.580107 
L 253.281506 152.484382 
L 256.534229 141.738127 
L 259.786951 131.734906 
L 263.039674 122.842831 
L 266.292397 115.380295 
L 269.545119 109.595594 
L 272.797842 105.652929 
L 276.050564 103.626598 
L 279.303287 103.504067 
L 282.556009 105.197256 
L 285.808732 108.560025 
L 289.061455 113.408851 
L 292.314177 119.543262 
L 295.5669 126.762886 
L 298.819622 134.878897 
L 302.072345 143.71893 
L 305.325068 153.126005 
L 308.57779 162.953107 
L 311.830513 173.055759 
L 315.083235 183.285007 
L 318.335958 193.482771 
L 321.58868 203.48078 
L 324.841403 213.1035 
L 328.094126 222.17479 
L 331.346848 230.527629 
L 334.599571 238.016037 
L 337.852293 244.528238 
L 341.105016 249.999922 
L 344.357739 254.42622 
L 347.610461 257.870609 
L 350.863184 260.468725 
L 354.115906 262.425085 
L 357.368629 264.001329 
L 360.621351 265.495717 
L 363.874074 267.215267 
L 367.126797 269.443574 
L 370.379519 272.408762 
L 373.632242 276.256576 
L 376.884964 281.03319 
L 380.137687 286.680812 
L 383.39041 293.046952 
L 386.643132 299.905761 
L 389.895855 306.987721 
L 393.148577 314.012677 
L 396.4013 320.720967 
L 399.654023 326.898267 
L 402.906745 332.391313 
L 406.159468 337.113653 
L 409.41219 341.042317 
L 412.664913 344.207654 
L 415.917635 346.679205 
L 419.170358 348.55047 
L 422.423081 349.924894 
L 425.675803 350.904608 
L 428.928526 351.582591 
L 432.181248 352.038215 
L 435.433971 352.335637 
" style="fill:none;stroke:#c44e52;stroke-linecap:round;stroke-width:1.75;"/>
   </g>
   <g id="line2d_34">
    <path clip-path="url(#pdd4ae3a6ed)" d="M 114.812393 352.60226 
L 118.455075 352.4543 
L 122.097756 352.214089 
L 125.740438 351.836887 
L 129.38312 351.263797 
L 133.025802 350.421005 
L 136.668483 349.22073 
L 140.311165 347.564338 
L 143.953847 345.347801 
L 147.596529 342.469306 
L 151.23921 338.838313 
L 154.881892 334.385127 
L 158.524574 329.069864 
L 162.167256 322.889867 
L 165.809937 315.884924 
L 169.452619 308.13994 
L 173.095301 299.784893 
L 176.737983 290.991784 
L 180.380664 281.968057 
L 184.023346 272.945735 
L 187.666028 264.165644 
L 191.308709 255.856759 
L 194.951391 248.211849 
L 198.594073 241.362006 
L 202.236755 235.353827 
L 205.879436 230.133552 
L 209.522118 225.542116 
L 213.1648 221.323768 
L 216.807482 217.149024 
L 220.450163 212.650473 
L 224.092845 207.467888 
L 227.735527 201.297327 
L 231.378209 193.93784 
L 235.02089 185.328996 
L 238.663572 175.573097 
L 242.306254 164.937576 
L 245.948936 153.835744 
L 249.591617 142.787427 
L 253.234299 132.36448 
L 256.876981 123.128942 
L 260.519662 115.573009 
L 264.162344 110.069611 
L 267.805026 106.840239 
L 271.447708 105.94337 
L 275.090389 107.283167 
L 278.733071 110.634926 
L 282.375753 115.681754 
L 286.018435 122.056233 
L 289.661116 129.381389 
L 293.303798 137.306556 
L 296.94648 145.535261 
L 300.589162 153.843657 
L 304.231843 162.08903 
L 307.874525 170.208639 
L 311.517207 178.209671 
L 315.159889 186.151691 
L 318.80257 194.123672 
L 322.445252 202.218435 
L 326.087934 210.507974 
L 329.730616 219.023236 
L 333.373297 227.741512 
L 337.015979 236.583368 
L 340.658661 245.419472 
L 344.301342 254.085873 
L 347.944024 262.404832 
L 351.586706 270.207493 
L 355.229388 277.354581 
L 358.872069 283.752042 
L 362.514751 289.359669 
L 366.157433 294.192175 
L 369.800115 298.313441 
L 373.442796 301.825622 
L 377.085478 304.855312 
L 380.72816 307.538996 
L 384.370842 310.009711 
L 388.013523 312.386196 
L 391.656205 314.765202 
L 395.298887 317.216974 
L 398.941569 319.783547 
L 402.58425 322.479306 
L 406.226932 325.29329 
L 409.869614 328.19284 
L 413.512295 331.128355 
L 417.154977 334.038942 
L 420.797659 336.858697 
L 424.440341 339.523184 
L 428.083022 341.975518 
L 431.725704 344.171397 
L 435.368386 346.082466 
L 439.011068 347.697648 
L 442.653749 349.0224 
L 446.296431 350.07618 
L 449.939113 350.888714 
L 453.581795 351.495755 
L 457.224476 351.935007 
L 460.867158 352.242754 
L 464.50984 352.451462 
L 468.152522 352.58844 
L 471.795203 352.675426 
L 475.437885 352.728865 
" style="fill:none;stroke:#8172b2;stroke-linecap:round;stroke-width:1.75;"/>
   </g>
   <g id="line2d_35">
    <path clip-path="url(#pdd4ae3a6ed)" d="M 124.802022 352.060407 
L 127.691662 351.642905 
L 130.581302 351.026962 
L 133.470942 350.139017 
L 136.360582 348.888507 
L 139.250222 347.168541 
L 142.139861 344.858939 
L 145.029501 341.832273 
L 147.919141 337.963335 
L 150.808781 333.142037 
L 153.698421 327.289196 
L 156.588061 320.373957 
L 159.477701 312.430936 
L 162.36734 303.574628 
L 165.25698 294.008332 
L 168.14662 284.025074 
L 171.03626 273.998611 
L 173.9259 264.363801 
L 176.81554 255.587046 
L 179.70518 248.129163 
L 182.594819 242.404387 
L 185.484459 238.740171 
L 188.374099 237.342626 
L 191.263739 238.271845 
L 194.153379 241.430011 
L 197.043019 246.563326 
L 199.932659 253.27679 
L 202.822298 261.059105 
L 205.711938 269.313829 
L 208.601578 277.392593 
L 211.491218 284.626794 
L 214.380858 290.355451 
L 217.270498 293.94871 
L 220.160138 294.828126 
L 223.049777 292.486187 
L 225.939417 286.507939 
L 228.829057 276.597059 
L 231.718697 262.60714 
L 234.608337 244.576699 
L 237.497977 222.763878 
L 240.387617 197.674578 
L 243.277256 170.076515 
L 246.166896 140.991819 
L 249.056536 111.662615 
L 251.946176 83.487435 
L 254.835816 57.930773 
L 257.725456 36.412956 
L 260.615096 20.191673 
L 263.504736 10.249225 
L 266.394375 7.2 
L 269.284015 11.230656 
L 272.173655 22.081306 
L 275.063295 39.070196 
L 277.952935 61.15821 
L 280.842575 87.043982 
L 283.732215 115.276605 
L 286.621854 144.371406 
L 289.511494 172.915269 
L 292.401134 199.65106 
L 295.290774 223.535231 
L 298.180414 243.767556 
L 301.070054 259.796343 
L 303.959694 271.305571 
L 306.849333 278.191774 
L 309.738973 280.538118 
L 312.628613 278.591261 
L 315.518253 272.743781 
L 318.407893 263.52195 
L 321.297533 251.576004 
L 324.187173 237.668436 
L 327.076812 222.655514 
L 329.966452 207.458242 
L 332.856092 193.021176 
L 335.745732 180.260289 
L 338.635372 170.004004 
L 341.525012 162.933815 
L 344.414652 159.532107 
L 347.304291 160.044637 
L 350.193931 164.463475 
L 353.083571 172.533473 
L 355.973211 183.781963 
L 358.862851 197.56802 
L 361.752491 213.144954 
L 364.642131 229.728108 
L 367.53177 246.559837 
L 370.42141 262.964573 
L 373.31105 278.388965 
L 376.20069 292.424647 
L 379.09033 304.813794 
L 381.97997 315.439797 
L 384.86961 324.306906 
L 387.759249 331.513272 
L 390.648889 337.221765 
L 393.538529 341.632177 
L 396.428169 344.957393 
L 399.317809 347.404962 
L 402.207449 349.164444 
L 405.097089 350.40012 
L 407.986728 351.248147 
L 410.876368 351.817001 
" style="fill:none;stroke:#ccb974;stroke-linecap:round;stroke-width:1.75;"/>
   </g>
   <g id="line2d_36">
    <path clip-path="url(#pdd4ae3a6ed)" d="M 113.840422 352.61225 
L 117.495623 352.467369 
L 121.150824 352.22909 
L 124.806024 351.850477 
L 128.461225 351.269256 
L 132.116426 350.407204 
L 135.771626 349.17183 
L 139.426827 347.461116 
L 143.082027 345.171613 
L 146.737228 342.209506 
L 150.392429 338.503341 
L 154.047629 334.016245 
L 157.70283 328.754973 
L 161.358031 322.773229 
L 165.013231 316.167587 
L 168.668432 309.065936 
L 172.323632 301.610229 
L 175.978833 293.93701 
L 179.634034 286.160046 
L 183.289234 278.359095 
L 186.944435 270.577284 
L 190.599636 262.827336 
L 194.254836 255.104364 
L 197.910037 247.401248 
L 201.565237 239.721985 
L 205.220438 232.089145 
L 208.875639 224.543403 
L 212.530839 217.135298 
L 216.18604 209.911455 
L 219.841241 202.898882 
L 223.496441 196.091477 
L 227.151642 189.442707 
L 230.806843 182.867536 
L 234.462043 176.255353 
L 238.117244 169.493732 
L 241.772444 162.500569 
L 245.427645 155.259577 
L 249.082846 147.85194 
L 252.738046 140.475887 
L 256.393247 133.44677 
L 260.048448 127.173245 
L 263.703648 122.109972 
L 267.358849 118.692881 
L 271.014049 117.267928 
L 274.66925 118.027069 
L 278.324451 120.964901 
L 281.979651 125.866057 
L 285.634852 132.327579 
L 289.290053 139.813639 
L 292.945253 147.733406 
L 296.600454 155.528264 
L 300.255654 162.752679 
L 303.910855 169.134376 
L 307.566056 174.603666 
L 311.221256 179.287937 
L 314.876457 183.474133 
L 318.531658 187.547918 
L 322.186858 191.922005 
L 325.842059 196.96699 
L 329.49726 202.956061 
L 333.15246 210.030871 
L 336.807661 218.190903 
L 340.462861 227.304086 
L 344.118062 237.133289 
L 347.773263 247.371935 
L 351.428463 257.6823 
L 355.083664 267.731416 
L 358.738865 277.221231 
L 362.394065 285.911269 
L 366.049266 293.63312 
L 369.704466 300.296849 
L 373.359667 305.88985 
L 377.014868 310.469134 
L 380.670068 314.14841 
L 384.325269 317.081746 
L 387.98047 319.445707 
L 391.63567 321.421829 
L 395.290871 323.180939 
L 398.946071 324.870362 
L 402.601272 326.604613 
L 406.256473 328.459842 
L 409.911673 330.472089 
L 413.566874 332.639278 
L 417.222075 334.926651 
L 420.877275 337.275067 
L 424.532476 339.611221 
L 428.187677 341.858473 
L 431.842877 343.946867 
L 435.498078 345.821018 
L 439.153278 347.444953 
L 442.808479 348.803594 
L 446.46368 349.901193 
L 450.11888 350.757498 
L 453.774081 351.402717 
L 457.429282 351.872317 
L 461.084482 352.202487 
L 464.739683 352.42676 
L 468.394883 352.573953 
L 472.050084 352.6673 
L 475.705285 352.724507 
" style="fill:none;stroke:#64b5cd;stroke-linecap:round;stroke-width:1.75;"/>
   </g>
   <g id="line2d_37">
    <path clip-path="url(#pdd4ae3a6ed)" d="M 100.731871 352.73518 
L 104.448408 352.684572 
L 108.164945 352.600395 
L 111.881482 352.464545 
L 115.598019 352.251654 
L 119.314556 351.927425 
L 123.031093 351.447139 
L 126.74763 350.754624 
L 130.464167 349.782034 
L 134.180704 348.450866 
L 137.897241 346.674633 
L 141.613778 344.363553 
L 145.330315 341.431388 
L 149.046852 337.804213 
L 152.763389 333.430411 
L 156.479926 328.290564 
L 160.196463 322.405498 
L 163.913 315.840491 
L 167.629537 308.703956 
L 171.346074 301.139702 
L 175.062611 293.313154 
L 178.779148 285.393398 
L 182.495685 277.534145 
L 186.212222 269.857443 
L 189.928759 262.443622 
L 193.645296 255.329712 
L 197.361833 248.516412 
L 201.07837 241.981275 
L 204.794907 235.693741 
L 208.511444 229.62682 
L 212.227981 223.760986 
L 215.944518 218.078347 
L 219.661055 212.54867 
L 223.377592 207.112381 
L 227.094129 201.667825 
L 230.810666 196.069894 
L 234.527203 190.14437 
L 238.24374 183.717589 
L 241.960277 176.655864 
L 245.676814 168.90531 
L 249.393351 160.521671 
L 253.109888 151.682022 
L 256.826425 142.675054 
L 260.542962 133.872406 
L 264.259499 125.68824 
L 267.976036 118.536318 
L 271.692573 112.792802 
L 275.40911 108.769486 
L 279.125647 106.697825 
L 282.842184 106.720815 
L 286.558721 108.888675 
L 290.275258 113.155701 
L 293.991795 119.37858 
L 297.708332 127.31927 
L 301.424869 136.656835 
L 305.141406 147.011342 
L 308.857943 157.979644 
L 312.57448 169.178604 
L 316.291017 180.287838 
L 320.007554 191.0828 
L 323.724091 201.450474 
L 327.440628 211.383812 
L 331.157165 220.95611 
L 334.873702 230.281184 
L 338.590239 239.46839 
L 342.306776 248.582229 
L 346.023313 257.614868 
L 349.73985 266.476611 
L 353.456387 275.00544 
L 357.172924 282.992876 
L 360.889461 290.220505 
L 364.605998 296.49988 
L 368.322535 301.708353 
L 372.039072 305.814442 
L 375.755609 308.888448 
L 379.472146 311.096625 
L 383.188683 312.680027 
L 386.90522 313.921706 
L 390.621757 315.107823 
L 394.338294 316.489282 
L 398.054831 318.250233 
L 401.771368 320.488506 
L 405.487905 323.210639 
L 409.204442 326.341336 
L 412.920979 329.744469 
L 416.637516 333.250777 
L 420.354053 336.686625 
L 424.07059 339.898715 
L 427.787127 342.771214 
L 431.503664 345.233812 
L 435.220201 347.261295 
L 438.936738 348.866668 
L 442.653275 350.090607 
L 446.369812 350.989945 
L 450.086349 351.627334 
L 453.802886 352.063325 
L 457.519423 352.351307 
L 461.23596 352.535061 
L 464.952497 352.648361 
L 468.669034 352.715884 
" style="fill:none;stroke:#4c72b0;stroke-linecap:round;stroke-width:1.75;"/>
   </g>
   <g id="line2d_38">
    <path clip-path="url(#pdd4ae3a6ed)" d="M 101.420324 352.722133 
L 105.11422 352.661284 
L 108.808117 352.560318 
L 112.502013 352.398137 
L 116.195909 352.145845 
L 119.889806 351.765584 
L 123.583702 351.210001 
L 127.277599 350.422676 
L 130.971495 349.339815 
L 134.665391 347.893351 
L 138.359288 346.015364 
L 142.053184 343.643516 
L 145.74708 340.726914 
L 149.440977 337.231676 
L 153.134873 333.145362 
L 156.82877 328.479524 
L 160.522666 323.269733 
L 164.216562 317.572771 
L 167.910459 311.460987 
L 171.604355 305.014329 
L 175.298251 298.311045 
L 178.992148 291.41854 
L 182.686044 284.386167 
L 186.379941 277.241638 
L 190.073837 269.992184 
L 193.767733 262.630477 
L 197.46163 255.143947 
L 201.155526 247.524854 
L 204.849423 239.777834 
L 208.543319 231.922016 
L 212.237215 223.986376 
L 215.931112 215.999363 
L 219.625008 207.976265 
L 223.318904 199.909446 
L 227.012801 191.766542 
L 230.706697 183.499824 
L 234.400594 175.066555 
L 238.09449 166.456262 
L 241.788386 157.717864 
L 245.482283 148.978548 
L 249.176179 140.447781 
L 252.870075 132.403567 
L 256.563972 125.162813 
L 260.257868 119.042103 
L 263.951765 114.317736 
L 267.645661 111.193884 
L 271.339557 109.785136 
L 275.033454 110.115495 
L 278.72735 112.131396 
L 282.421246 115.722967 
L 286.115143 120.746509 
L 289.809039 127.042166 
L 293.502936 134.443447 
L 297.196832 142.778621 
L 300.890728 151.866807 
L 304.584625 161.513141 
L 308.278521 171.507318 
L 311.972418 181.628383 
L 315.666314 191.656477 
L 319.36021 201.38997 
L 323.054107 210.664648 
L 326.748003 219.370718 
L 330.441899 227.463499 
L 334.135796 234.964735 
L 337.829692 241.953328 
L 341.523589 248.546489 
L 345.217485 254.87451 
L 348.911381 261.053879 
L 352.605278 267.164032 
L 356.299174 273.232349 
L 359.99307 279.230287 
L 363.686967 285.081145 
L 367.380863 290.677533 
L 371.07476 295.904718 
L 374.768656 300.665017 
L 378.462552 304.898475 
L 382.156449 308.596047 
L 385.850345 311.803057 
L 389.544242 314.61265 
L 393.238138 317.150691 
L 396.932034 319.555118 
L 400.625931 321.953639 
L 404.319827 324.443884 
L 408.013723 327.079576 
L 411.70762 329.864984 
L 415.401516 332.758241 
L 419.095413 335.682276 
L 422.789309 338.540676 
L 426.483205 341.235007 
L 430.177102 343.680194 
L 433.870998 345.815434 
L 437.564894 347.609355 
L 441.258791 349.059581 
L 444.952687 350.187941 
L 448.646584 351.033138 
L 452.34048 351.642802 
L 456.034376 352.066406 
L 459.728273 352.349984 
L 463.422169 352.532932 
L 467.116066 352.646696 
" style="fill:none;stroke:#55a868;stroke-linecap:round;stroke-width:1.75;"/>
   </g>
   <g id="line2d_39">
    <path clip-path="url(#pdd4ae3a6ed)" d="M 108.109892 352.695659 
L 111.72557 352.617074 
L 115.341249 352.488591 
L 118.956927 352.284926 
L 122.572605 351.971727 
L 126.188283 351.504143 
L 129.803961 350.825893 
L 133.419639 349.869142 
L 137.035318 348.555383 
L 140.650996 346.797529 
L 144.266674 344.503267 
L 147.882352 341.579724 
L 151.49803 337.939474 
L 155.113709 333.507886 
L 158.729387 328.231775 
L 162.345065 322.089087 
L 165.960743 315.098915 
L 169.576421 307.330529 
L 173.1921 298.909466 
L 176.807778 290.018259 
L 180.423456 280.889513 
L 184.039134 271.78984 
L 187.654812 262.994806 
L 191.270491 254.757128 
L 194.886169 247.272519 
L 198.501847 240.649093 
L 202.117525 234.88655 
L 205.733203 229.870258 
L 209.348882 225.382815 
L 212.96456 221.132362 
L 216.580238 216.793494 
L 220.195916 212.054022 
L 223.811594 206.659667 
L 227.427273 200.449312 
L 231.042951 193.375526 
L 234.658629 185.508076 
L 238.274307 177.021366 
L 241.889985 168.169376 
L 245.505664 159.253307 
L 249.121342 150.587478 
L 252.73702 142.468451 
L 256.352698 135.151027 
L 259.968376 128.833238 
L 263.584055 123.650938 
L 267.199733 119.681293 
L 270.815411 116.953366 
L 274.431089 115.463167 
L 278.046767 115.189985 
L 281.662446 116.110711 
L 285.278124 118.209346 
L 288.893802 121.479884 
L 292.50948 125.92229 
L 296.125158 131.532856 
L 299.740837 138.29155 
L 303.356515 146.14963 
L 306.972193 155.020545 
L 310.587871 164.77622 
L 314.203549 175.249343 
L 317.819228 186.240827 
L 321.434906 197.530643 
L 325.050584 208.889819 
L 328.666262 220.091803 
L 332.28194 230.922168 
L 335.897619 241.186555 
L 339.513297 250.717381 
L 343.128975 259.380049 
L 346.744653 267.079044 
L 350.360331 273.763687 
L 353.976009 279.432668 
L 357.591688 284.136058 
L 361.207366 287.973563 
L 364.823044 291.088265 
L 368.438722 293.655881 
L 372.0544 295.870457 
L 375.670079 297.928075 
L 379.285757 300.010499 
L 382.901435 302.270606 
L 386.517113 304.821107 
L 390.132791 307.727509 
L 393.74847 311.005737 
L 397.364148 314.624375 
L 400.979826 318.511083 
L 404.595504 322.56246 
L 408.211182 326.656293 
L 411.826861 330.664903 
L 415.442539 334.468086 
L 419.058217 337.96419 
L 422.673895 341.078092 
L 426.289573 343.7653 
L 429.905252 346.01207 
L 433.52093 347.832002 
L 437.136608 349.260128 
L 440.752286 350.345719 
L 444.367964 351.145052 
L 447.983643 351.715122 
L 451.599321 352.10889 
L 455.214999 352.372308 
L 458.830677 352.542964 
L 462.446355 352.650027 
L 466.062034 352.715067 
" style="fill:none;stroke:#c44e52;stroke-linecap:round;stroke-width:1.75;"/>
   </g>
   <g id="line2d_40">
    <path clip-path="url(#pdd4ae3a6ed)" d="M 129.839072 352.321103 
L 132.951045 352.020149 
L 136.063019 351.560108 
L 139.174992 350.875236 
L 142.286966 349.882462 
L 145.398939 348.481522 
L 148.510913 346.557519 
L 151.622886 343.986618 
L 154.734859 340.645244 
L 157.846833 336.42265 
L 160.958806 331.235886 
L 164.07078 325.045426 
L 167.182753 317.868874 
L 170.294727 309.78978 
L 173.4067 300.958663 
L 176.518674 291.584162 
L 179.630647 281.913727 
L 182.742621 272.205321 
L 185.854594 262.693779 
L 188.966568 253.557361 
L 192.078541 244.891007 
L 195.190515 236.692514 
L 198.302488 228.866167 
L 201.414462 221.245321 
L 204.526435 213.631724 
L 207.638408 205.845567 
L 210.750382 197.777372 
L 213.862355 189.431489 
L 216.974329 180.951667 
L 220.086302 172.621886 
L 223.198276 164.839977 
L 226.310249 158.066603 
L 229.422223 152.757056 
L 232.534196 149.286899 
L 235.64617 147.884139 
L 238.758143 148.5799 
L 241.870117 151.186707 
L 244.98209 155.308959 
L 248.094064 160.384896 
L 251.206037 165.754206 
L 254.318011 170.74141 
L 257.429984 174.742704 
L 260.541958 177.303638 
L 263.653931 178.176508 
L 266.765904 177.349595 
L 269.877878 175.04462 
L 272.989851 171.683444 
L 276.101825 167.829388 
L 279.213798 164.111939 
L 282.325772 161.145575 
L 285.437745 159.453747 
L 288.549719 159.407689 
L 291.661692 161.187026 
L 294.773666 164.765572 
L 297.885639 169.922041 
L 300.997613 176.272119 
L 304.109586 183.316115 
L 307.22156 190.495381 
L 310.333533 197.250837 
L 313.445507 203.07795 
L 316.55748 207.573931 
L 319.669453 210.474311 
L 322.781427 211.677111 
L 325.8934 211.253481 
L 329.005374 209.444084 
L 332.117347 206.640928 
L 335.229321 203.355087 
L 338.341294 200.171969 
L 341.453268 197.697382 
L 344.565241 196.499372 
L 347.677215 197.052124 
L 350.789188 199.688744 
L 353.901162 204.569115 
L 357.013135 211.667157 
L 360.125109 220.779102 
L 363.237082 231.551208 
L 366.349056 243.522449 
L 369.461029 256.175644 
L 372.573002 268.989676 
L 375.684976 281.485994 
L 378.796949 293.264188 
L 381.908923 304.023793 
L 385.020896 313.571909 
L 388.13287 321.818372 
L 391.244843 328.761625 
L 394.356817 334.469081 
L 397.46879 339.055623 
L 400.580764 342.66323 
L 403.692737 345.443721 
L 406.804711 347.545647 
L 409.916684 349.105456 
L 413.028658 350.242508 
L 416.140631 351.05715 
L 419.252605 351.630963 
L 422.364578 352.028386 
L 425.476551 352.299027 
L 428.588525 352.480201 
L 431.700498 352.599385 
L 434.812472 352.676394 
L 437.924445 352.725243 
" style="fill:none;stroke:#8172b2;stroke-linecap:round;stroke-width:1.75;"/>
   </g>
   <g id="line2d_41">
    <path clip-path="url(#pdd4ae3a6ed)" d="M 140.756555 351.231888 
L 143.85713 350.325992 
L 146.957706 348.990877 
L 150.058282 347.076669 
L 153.158858 344.407857 
L 156.259434 340.791262 
L 159.360009 336.030394 
L 162.460585 329.946635 
L 165.561161 322.406504 
L 168.661737 313.352767 
L 171.762313 302.835503 
L 174.862889 291.037967 
L 177.963464 278.291365 
L 181.06404 265.073099 
L 184.164616 251.984643 
L 187.265192 239.708003 
L 190.365768 228.943251 
L 193.466343 220.333274 
L 196.566919 214.384826 
L 199.667495 211.39656 
L 202.768071 211.404448 
L 205.868647 214.152942 
L 208.969222 219.096755 
L 212.069798 225.434014 
L 215.170374 232.167611 
L 218.27095 238.188608 
L 221.371526 242.37375 
L 224.472101 243.688658 
L 227.572677 241.28848 
L 230.673253 234.608348 
L 233.773829 223.436331 
L 236.874405 207.961765 
L 239.974981 188.792105 
L 243.075556 166.9324 
L 246.176132 143.723838 
L 249.276708 120.741743 
L 252.377284 99.658888 
L 255.47786 82.086038 
L 258.578435 69.406977 
L 261.679011 62.62853 
L 264.779587 62.265948 
L 267.880163 68.280307 
L 270.980739 80.077464 
L 274.081314 96.569252 
L 277.18189 116.288517 
L 280.282466 137.54231 
L 283.383042 158.583296 
L 286.483618 177.778705 
L 289.584193 193.758671 
L 292.684769 205.530392 
L 295.785345 212.550077 
L 298.885921 214.749759 
L 301.986497 212.520266 
L 305.087073 206.654643 
L 308.187648 198.258485 
L 311.288224 188.635436 
L 314.3888 179.157814 
L 317.489376 171.133883 
L 320.589952 165.684402 
L 323.690527 163.641024 
L 326.791103 165.477472 
L 329.891679 171.2809 
L 332.992255 180.765882 
L 336.092831 193.327727 
L 339.193406 208.126546 
L 342.293982 224.18964 
L 345.394558 240.518155 
L 348.495134 256.184768 
L 351.59571 270.412048 
L 354.696286 282.625272 
L 357.796861 292.477917 
L 360.897437 299.851831 
L 363.998013 304.836691 
L 367.098589 307.694558 
L 370.199165 308.815395 
L 373.29974 308.668663 
L 376.400316 307.755155 
L 379.500892 306.562296 
L 382.601468 305.525503 
L 385.702044 304.997731 
L 388.802619 305.228898 
L 391.903195 306.356322 
L 395.003771 308.406416 
L 398.104347 311.306822 
L 401.204923 314.907009 
L 404.305498 319.00438 
L 407.406074 323.372351 
L 410.50665 327.786877 
L 413.607226 332.048425 
L 416.707802 335.997384 
L 419.808378 339.522131 
L 422.908953 342.560113 
L 426.009529 345.093254 
L 429.110105 347.139534 
L 432.210681 348.742708 
L 435.311257 349.961937 
L 438.411832 350.862648 
L 441.512408 351.509389 
L 444.612984 351.960962 
L 447.71356 352.267686 
" style="fill:none;stroke:#ccb974;stroke-linecap:round;stroke-width:1.75;"/>
   </g>
   <g id="line2d_42">
    <path clip-path="url(#pdd4ae3a6ed)" d="M 131.158741 352.537405 
L 133.98301 352.381152 
L 136.80728 352.14357 
L 139.631549 351.789021 
L 142.455819 351.269687 
L 145.280088 350.522984 
L 148.104358 349.469094 
L 150.928627 348.008937 
L 153.752897 346.02302 
L 156.577166 343.37165 
L 159.401436 339.89707 
L 162.225705 335.428025 
L 165.049975 329.787179 
L 167.874244 322.801631 
L 170.698514 314.316453 
L 173.522784 304.210845 
L 176.347053 292.416024 
L 179.171323 278.933536 
L 181.995592 263.852278 
L 184.819862 247.362184 
L 187.644131 229.762473 
L 190.468401 211.462457 
L 193.29267 192.97335 
L 196.11694 174.890271 
L 198.941209 157.864576 
L 201.765479 142.567793 
L 204.589748 129.649602 
L 207.414018 119.693268 
L 210.238287 113.172644 
L 213.062557 110.415044 
L 215.886827 111.573998 
L 218.711096 116.614979 
L 221.535366 125.315904 
L 224.359635 137.282521 
L 227.183905 151.977138 
L 230.008174 168.757585 
L 232.832444 186.922193 
L 235.656713 205.755989 
L 238.480983 224.57337 
L 241.305252 242.753162 
L 244.129522 259.763123 
L 246.953791 275.172377 
L 249.778061 288.651789 
L 252.60233 299.963758 
L 255.4266 308.944033 
L 258.25087 315.478978 
L 261.075139 319.482113 
L 263.899409 320.873682 
L 266.723678 319.566618 
L 269.547948 315.461448 
L 272.372217 308.451664 
L 275.196487 298.439737 
L 278.020756 285.362566 
L 280.845026 269.223683 
L 283.669295 250.128223 
L 286.493565 228.315729 
L 289.317834 204.185403 
L 292.142104 178.308675 
L 294.966373 151.425041 
L 297.790643 124.418901 
L 300.614912 98.277527 
L 303.439182 74.03295 
L 306.263452 52.693044 
L 309.087721 35.168987 
L 311.911991 22.207249 
L 314.73626 14.333985 
L 317.56053 11.818289 
L 320.384799 14.658316 
L 323.209069 22.59128 
L 326.033338 35.125208 
L 328.857608 51.587747 
L 331.681877 71.185464 
L 334.506147 93.066477 
L 337.330416 116.379627 
L 340.154686 140.324791 
L 342.978955 164.190853 
L 345.803225 187.379963 
L 348.627495 209.418633 
L 351.451764 229.957645 
L 354.276034 248.763574 
L 357.100303 265.704951 
L 359.924573 280.735802 
L 362.748842 293.87872 
L 365.573112 305.208916 
L 368.397381 314.840019 
L 371.221651 322.911915 
L 374.04592 329.580528 
L 376.87019 335.009368 
L 379.694459 339.362573 
L 382.518729 342.799295 
L 385.342998 345.469291 
L 388.167268 347.509665 
L 390.991538 349.042707 
L 393.815807 350.174771 
L 396.640077 350.996077 
L 399.464346 351.581294 
L 402.288616 351.990728 
L 405.112885 352.27192 
L 407.937155 352.461451 
L 410.761424 352.586806 
" style="fill:none;stroke:#64b5cd;stroke-linecap:round;stroke-width:1.75;"/>
   </g>
   <g id="line2d_43">
    <path clip-path="url(#pdd4ae3a6ed)" d="M 142.852128 352.613743 
L 145.800815 352.493101 
L 148.749503 352.303782 
L 151.698191 352.012599 
L 154.646879 351.573625 
L 157.595566 350.924946 
L 160.544254 349.985322 
L 163.492942 348.651111 
L 166.441629 346.793947 
L 169.390317 344.259775 
L 172.339005 340.869935 
L 175.287693 336.424951 
L 178.23638 330.711644 
L 181.185068 323.513895 
L 184.133756 314.627105 
L 187.082444 303.875913 
L 190.031131 291.134224 
L 192.979819 276.346084 
L 195.928507 259.545472 
L 198.877195 240.872779 
L 201.825882 220.585642 
L 204.77457 199.062032 
L 207.723258 176.79396 
L 210.671946 154.370978 
L 213.620633 132.453668 
L 216.569321 111.738482 
L 219.518009 92.916409 
L 222.466697 76.628965 
L 225.415384 63.425592 
L 228.364072 53.726759 
L 231.31276 47.79666 
L 234.261448 45.728461 
L 237.210135 47.44365 
L 240.158823 52.705335 
L 243.107511 61.143618 
L 246.056199 72.289682 
L 249.004886 85.614241 
L 251.953574 100.565671 
L 254.902262 116.603601 
L 257.85095 133.224763 
L 260.799637 149.979451 
L 263.748325 166.478583 
L 266.697013 182.392869 
L 269.645701 197.446622 
L 272.594388 211.409226 
L 275.543076 224.087052 
L 278.491764 235.317869 
L 281.440451 244.968759 
L 284.389139 252.937361 
L 287.337827 259.155383 
L 290.286515 263.592716 
L 293.235202 266.260469 
L 296.18389 267.21158 
L 299.132578 266.538379 
L 302.081266 264.367297 
L 305.029953 260.851654 
L 307.978641 256.163922 
L 310.927329 250.488953 
L 313.876017 244.019388 
L 316.824704 236.95385 
L 319.773392 229.497785 
L 322.72208 221.866092 
L 325.670768 214.286117 
L 328.619455 206.999376 
L 331.568143 200.260496 
L 334.516831 194.332338 
L 337.465519 189.476943 
L 340.414206 185.942778 
L 343.362894 183.949483 
L 346.311582 183.671868 
L 349.26027 185.225172 
L 352.208957 188.653552 
L 355.157645 193.923352 
L 358.106333 200.922176 
L 361.055021 209.464009 
L 364.003708 219.299961 
L 366.952396 230.133541 
L 369.901084 241.638967 
L 372.849772 253.480746 
L 375.798459 265.332789 
L 378.747147 276.895496 
L 381.695835 287.90958 
L 384.644523 298.16584 
L 387.59321 307.51053 
L 390.541898 315.846418 
L 393.490586 323.129987 
L 396.439274 329.365526 
L 399.387961 334.597008 
L 402.336649 338.89873 
L 405.285337 342.365649 
L 408.234024 345.104222 
L 411.182712 347.22435 
L 414.1314 348.832862 
L 417.080088 350.02869 
L 420.028775 350.899751 
L 422.977463 351.521354 
L 425.926151 351.955876 
L 428.874839 352.25338 
L 431.823526 352.452863 
L 434.772214 352.583842 
" style="fill:none;stroke:#4c72b0;stroke-linecap:round;stroke-width:1.75;"/>
   </g>
   <g id="patch_3">
    <path d="M 39.221875 7.2 
L 485.621875 7.2 
" style="fill:none;stroke:#262626;stroke-linecap:square;stroke-linejoin:miter;stroke-width:1.25;"/>
   </g>
   <g id="patch_4">
    <path d="M 485.621875 352.8 
L 485.621875 7.2 
" style="fill:none;stroke:#262626;stroke-linecap:square;stroke-linejoin:miter;stroke-width:1.25;"/>
   </g>
   <g id="patch_5">
    <path d="M 39.221875 352.8 
L 485.621875 352.8 
" style="fill:none;stroke:#262626;stroke-linecap:square;stroke-linejoin:miter;stroke-width:1.25;"/>
   </g>
   <g id="patch_6">
    <path d="M 39.221875 352.8 
L 39.221875 7.2 
" style="fill:none;stroke:#262626;stroke-linecap:square;stroke-linejoin:miter;stroke-width:1.25;"/>
   </g>
   <g id="legend_1">
    <g id="line2d_44">
     <path d="M 412.504687 19.857812 
L 432.504687 19.857812 
" style="fill:none;stroke:#4c72b0;stroke-linecap:round;stroke-width:1.75;"/>
    </g>
    <g id="line2d_45"/>
    <g id="text_17">
     <!-- Table1 -->
     <defs>
      <path d="M 6.390625 0 
L 6.390625 71.578125 
L 15.1875 71.578125 
L 15.1875 0 
z
" id="ArialMT-6c"/>
      <path d="M 14.703125 0 
L 6.546875 0 
L 6.546875 71.578125 
L 15.328125 71.578125 
L 15.328125 46.046875 
Q 20.90625 53.03125 29.546875 53.03125 
Q 34.328125 53.03125 38.59375 51.09375 
Q 42.875 49.171875 45.625 45.671875 
Q 48.390625 42.1875 49.953125 37.25 
Q 51.515625 32.328125 51.515625 26.703125 
Q 51.515625 13.375 44.921875 6.09375 
Q 38.328125 -1.171875 29.109375 -1.171875 
Q 19.921875 -1.171875 14.703125 6.5 
z
M 14.59375 26.3125 
Q 14.59375 17 17.140625 12.84375 
Q 21.296875 6.0625 28.375 6.0625 
Q 34.125 6.0625 38.328125 11.0625 
Q 42.53125 16.0625 42.53125 25.984375 
Q 42.53125 36.140625 38.5 40.96875 
Q 34.46875 45.796875 28.765625 45.796875 
Q 23 45.796875 18.796875 40.796875 
Q 14.59375 35.796875 14.59375 26.3125 
" id="ArialMT-62"/>
      <path d="M 40.4375 6.390625 
Q 35.546875 2.25 31.03125 0.53125 
Q 26.515625 -1.171875 21.34375 -1.171875 
Q 12.796875 -1.171875 8.203125 3 
Q 3.609375 7.171875 3.609375 13.671875 
Q 3.609375 17.484375 5.34375 20.625 
Q 7.078125 23.78125 9.890625 25.6875 
Q 12.703125 27.59375 16.21875 28.5625 
Q 18.796875 29.25 24.03125 29.890625 
Q 34.671875 31.15625 39.703125 32.90625 
Q 39.75 34.71875 39.75 35.203125 
Q 39.75 40.578125 37.25 42.78125 
Q 33.890625 45.75 27.25 45.75 
Q 21.046875 45.75 18.09375 43.578125 
Q 15.140625 41.40625 13.71875 35.890625 
L 5.125 37.0625 
Q 6.296875 42.578125 8.984375 45.96875 
Q 11.671875 49.359375 16.75 51.1875 
Q 21.828125 53.03125 28.515625 53.03125 
Q 35.15625 53.03125 39.296875 51.46875 
Q 43.453125 49.90625 45.40625 47.53125 
Q 47.359375 45.171875 48.140625 41.546875 
Q 48.578125 39.3125 48.578125 33.453125 
L 48.578125 21.734375 
Q 48.578125 9.46875 49.140625 6.21875 
Q 49.703125 2.984375 51.375 0 
L 42.1875 0 
Q 40.828125 2.734375 40.4375 6.390625 
M 39.703125 26.03125 
Q 34.90625 24.078125 25.34375 22.703125 
Q 19.921875 21.921875 17.671875 20.9375 
Q 15.4375 19.96875 14.203125 18.09375 
Q 12.984375 16.21875 12.984375 13.921875 
Q 12.984375 10.40625 15.640625 8.0625 
Q 18.3125 5.71875 23.4375 5.71875 
Q 28.515625 5.71875 32.46875 7.9375 
Q 36.421875 10.15625 38.28125 14.015625 
Q 39.703125 17 39.703125 22.796875 
z
" id="ArialMT-61"/>
      <path d="M 42.09375 16.703125 
L 51.171875 15.578125 
Q 49.03125 7.625 43.21875 3.21875 
Q 37.40625 -1.171875 28.375 -1.171875 
Q 17 -1.171875 10.328125 5.828125 
Q 3.65625 12.84375 3.65625 25.484375 
Q 3.65625 38.578125 10.390625 45.796875 
Q 17.140625 53.03125 27.875 53.03125 
Q 38.28125 53.03125 44.875 45.953125 
Q 51.46875 38.875 51.46875 26.03125 
Q 51.46875 25.25 51.421875 23.6875 
L 12.75 23.6875 
Q 13.234375 15.140625 17.578125 10.59375 
Q 21.921875 6.0625 28.421875 6.0625 
Q 33.25 6.0625 36.671875 8.59375 
Q 40.09375 11.140625 42.09375 16.703125 
M 13.234375 30.90625 
L 42.1875 30.90625 
Q 41.609375 37.453125 38.875 40.71875 
Q 34.671875 45.796875 27.984375 45.796875 
Q 21.921875 45.796875 17.796875 41.75 
Q 13.671875 37.703125 13.234375 30.90625 
" id="ArialMT-65"/>
      <path d="M 25.921875 0 
L 25.921875 63.140625 
L 2.34375 63.140625 
L 2.34375 71.578125 
L 59.078125 71.578125 
L 59.078125 63.140625 
L 35.40625 63.140625 
L 35.40625 0 
z
" id="ArialMT-54"/>
     </defs>
     <g style="fill:#262626;" transform="translate(440.5046875 23.3578125)scale(0.1 -0.1)">
      <use xlink:href="#ArialMT-54"/>
      <use x="60.912109375" xlink:href="#ArialMT-61"/>
      <use x="116.52734375" xlink:href="#ArialMT-62"/>
      <use x="172.142578125" xlink:href="#ArialMT-6c"/>
      <use x="194.359375" xlink:href="#ArialMT-65"/>
      <use x="249.974609375" xlink:href="#ArialMT-31"/>
     </g>
    </g>
    <g id="line2d_46">
     <path d="M 412.504687 34.003125 
L 432.504687 34.003125 
" style="fill:none;stroke:#55a868;stroke-linecap:round;stroke-width:1.75;"/>
    </g>
    <g id="line2d_47"/>
    <g id="text_18">
     <!-- Table2 -->
     <g style="fill:#262626;" transform="translate(440.5046875 37.503125)scale(0.1 -0.1)">
      <use xlink:href="#ArialMT-54"/>
      <use x="60.912109375" xlink:href="#ArialMT-61"/>
      <use x="116.52734375" xlink:href="#ArialMT-62"/>
      <use x="172.142578125" xlink:href="#ArialMT-6c"/>
      <use x="194.359375" xlink:href="#ArialMT-65"/>
      <use x="249.974609375" xlink:href="#ArialMT-32"/>
     </g>
    </g>
    <g id="line2d_48">
     <path d="M 412.504687 48.148437 
L 432.504687 48.148437 
" style="fill:none;stroke:#c44e52;stroke-linecap:round;stroke-width:1.75;"/>
    </g>
    <g id="line2d_49"/>
    <g id="text_19">
     <!-- Table3 -->
     <g style="fill:#262626;" transform="translate(440.5046875 51.6484375)scale(0.1 -0.1)">
      <use xlink:href="#ArialMT-54"/>
      <use x="60.912109375" xlink:href="#ArialMT-61"/>
      <use x="116.52734375" xlink:href="#ArialMT-62"/>
      <use x="172.142578125" xlink:href="#ArialMT-6c"/>
      <use x="194.359375" xlink:href="#ArialMT-65"/>
      <use x="249.974609375" xlink:href="#ArialMT-33"/>
     </g>
    </g>
    <g id="line2d_50">
     <path d="M 412.504687 62.29375 
L 432.504687 62.29375 
" style="fill:none;stroke:#8172b2;stroke-linecap:round;stroke-width:1.75;"/>
    </g>
    <g id="line2d_51"/>
    <g id="text_20">
     <!-- Table4 -->
     <g style="fill:#262626;" transform="translate(440.5046875 65.79375)scale(0.1 -0.1)">
      <use xlink:href="#ArialMT-54"/>
      <use x="60.912109375" xlink:href="#ArialMT-61"/>
      <use x="116.52734375" xlink:href="#ArialMT-62"/>
      <use x="172.142578125" xlink:href="#ArialMT-6c"/>
      <use x="194.359375" xlink:href="#ArialMT-65"/>
      <use x="249.974609375" xlink:href="#ArialMT-34"/>
     </g>
    </g>
    <g id="line2d_52">
     <path d="M 412.504687 76.439062 
L 432.504687 76.439062 
" style="fill:none;stroke:#ccb974;stroke-linecap:round;stroke-width:1.75;"/>
    </g>
    <g id="line2d_53"/>
    <g id="text_21">
     <!-- Table5 -->
     <g style="fill:#262626;" transform="translate(440.5046875 79.9390625)scale(0.1 -0.1)">
      <use xlink:href="#ArialMT-54"/>
      <use x="60.912109375" xlink:href="#ArialMT-61"/>
      <use x="116.52734375" xlink:href="#ArialMT-62"/>
      <use x="172.142578125" xlink:href="#ArialMT-6c"/>
      <use x="194.359375" xlink:href="#ArialMT-65"/>
      <use x="249.974609375" xlink:href="#ArialMT-35"/>
     </g>
    </g>
    <g id="line2d_54">
     <path d="M 412.504687 90.584375 
L 432.504687 90.584375 
" style="fill:none;stroke:#64b5cd;stroke-linecap:round;stroke-width:1.75;"/>
    </g>
    <g id="line2d_55"/>
    <g id="text_22">
     <!-- Table6 -->
     <g style="fill:#262626;" transform="translate(440.5046875 94.084375)scale(0.1 -0.1)">
      <use xlink:href="#ArialMT-54"/>
      <use x="60.912109375" xlink:href="#ArialMT-61"/>
      <use x="116.52734375" xlink:href="#ArialMT-62"/>
      <use x="172.142578125" xlink:href="#ArialMT-6c"/>
      <use x="194.359375" xlink:href="#ArialMT-65"/>
      <use x="249.974609375" xlink:href="#ArialMT-36"/>
     </g>
    </g>
    <g id="line2d_56">
     <path d="M 412.504687 104.729687 
L 432.504687 104.729687 
" style="fill:none;stroke:#4c72b0;stroke-linecap:round;stroke-width:1.75;"/>
    </g>
    <g id="line2d_57"/>
    <g id="text_23">
     <!-- Table7 -->
     <defs>
      <path d="M 4.734375 62.203125 
L 4.734375 70.65625 
L 51.078125 70.65625 
L 51.078125 63.8125 
Q 44.234375 56.546875 37.515625 44.484375 
Q 30.8125 32.421875 27.15625 19.671875 
Q 24.515625 10.6875 23.78125 0 
L 14.75 0 
Q 14.890625 8.453125 18.0625 20.40625 
Q 21.234375 32.375 27.171875 43.484375 
Q 33.109375 54.59375 39.796875 62.203125 
z
" id="ArialMT-37"/>
     </defs>
     <g style="fill:#262626;" transform="translate(440.5046875 108.2296875)scale(0.1 -0.1)">
      <use xlink:href="#ArialMT-54"/>
      <use x="60.912109375" xlink:href="#ArialMT-61"/>
      <use x="116.52734375" xlink:href="#ArialMT-62"/>
      <use x="172.142578125" xlink:href="#ArialMT-6c"/>
      <use x="194.359375" xlink:href="#ArialMT-65"/>
      <use x="249.974609375" xlink:href="#ArialMT-37"/>
     </g>
    </g>
    <g id="line2d_58">
     <path d="M 412.504687 118.875 
L 432.504687 118.875 
" style="fill:none;stroke:#55a868;stroke-linecap:round;stroke-width:1.75;"/>
    </g>
    <g id="line2d_59"/>
    <g id="text_24">
     <!-- Table8 -->
     <g style="fill:#262626;" transform="translate(440.5046875 122.375)scale(0.1 -0.1)">
      <use xlink:href="#ArialMT-54"/>
      <use x="60.912109375" xlink:href="#ArialMT-61"/>
      <use x="116.52734375" xlink:href="#ArialMT-62"/>
      <use x="172.142578125" xlink:href="#ArialMT-6c"/>
      <use x="194.359375" xlink:href="#ArialMT-65"/>
      <use x="249.974609375" xlink:href="#ArialMT-38"/>
     </g>
    </g>
    <g id="line2d_60">
     <path d="M 412.504687 133.020312 
L 432.504687 133.020312 
" style="fill:none;stroke:#c44e52;stroke-linecap:round;stroke-width:1.75;"/>
    </g>
    <g id="line2d_61"/>
    <g id="text_25">
     <!-- Table9 -->
     <defs>
      <path d="M 5.46875 16.546875 
L 13.921875 17.328125 
Q 14.984375 11.375 18.015625 8.6875 
Q 21.046875 6 25.78125 6 
Q 29.828125 6 32.875 7.859375 
Q 35.9375 9.71875 37.890625 12.8125 
Q 39.84375 15.921875 41.15625 21.1875 
Q 42.484375 26.46875 42.484375 31.9375 
Q 42.484375 32.515625 42.4375 33.6875 
Q 39.796875 29.5 35.234375 26.875 
Q 30.671875 24.265625 25.34375 24.265625 
Q 16.453125 24.265625 10.296875 30.703125 
Q 4.15625 37.15625 4.15625 47.703125 
Q 4.15625 58.59375 10.578125 65.234375 
Q 17 71.875 26.65625 71.875 
Q 33.640625 71.875 39.421875 68.109375 
Q 45.21875 64.359375 48.21875 57.390625 
Q 51.21875 50.4375 51.21875 37.25 
Q 51.21875 23.53125 48.234375 15.40625 
Q 45.265625 7.28125 39.375 3.03125 
Q 33.5 -1.21875 25.59375 -1.21875 
Q 17.1875 -1.21875 11.859375 3.4375 
Q 6.546875 8.109375 5.46875 16.546875 
M 41.453125 48.140625 
Q 41.453125 55.71875 37.421875 60.15625 
Q 33.40625 64.59375 27.734375 64.59375 
Q 21.875 64.59375 17.53125 59.8125 
Q 13.1875 55.03125 13.1875 47.40625 
Q 13.1875 40.578125 17.3125 36.296875 
Q 21.4375 32.03125 27.484375 32.03125 
Q 33.59375 32.03125 37.515625 36.296875 
Q 41.453125 40.578125 41.453125 48.140625 
" id="ArialMT-39"/>
     </defs>
     <g style="fill:#262626;" transform="translate(440.5046875 136.5203125)scale(0.1 -0.1)">
      <use xlink:href="#ArialMT-54"/>
      <use x="60.912109375" xlink:href="#ArialMT-61"/>
      <use x="116.52734375" xlink:href="#ArialMT-62"/>
      <use x="172.142578125" xlink:href="#ArialMT-6c"/>
      <use x="194.359375" xlink:href="#ArialMT-65"/>
      <use x="249.974609375" xlink:href="#ArialMT-39"/>
     </g>
    </g>
    <g id="line2d_62">
     <path d="M 412.504687 147.165625 
L 432.504687 147.165625 
" style="fill:none;stroke:#8172b2;stroke-linecap:round;stroke-width:1.75;"/>
    </g>
    <g id="line2d_63"/>
    <g id="text_26">
     <!-- Table10 -->
     <g style="fill:#262626;" transform="translate(440.5046875 150.665625)scale(0.1 -0.1)">
      <use xlink:href="#ArialMT-54"/>
      <use x="60.912109375" xlink:href="#ArialMT-61"/>
      <use x="116.52734375" xlink:href="#ArialMT-62"/>
      <use x="172.142578125" xlink:href="#ArialMT-6c"/>
      <use x="194.359375" xlink:href="#ArialMT-65"/>
      <use x="249.974609375" xlink:href="#ArialMT-31"/>
      <use x="305.58984375" xlink:href="#ArialMT-30"/>
     </g>
    </g>
    <g id="line2d_64">
     <path d="M 412.504687 161.310937 
L 432.504687 161.310937 
" style="fill:none;stroke:#ccb974;stroke-linecap:round;stroke-width:1.75;"/>
    </g>
    <g id="line2d_65"/>
    <g id="text_27">
     <!-- Table11 -->
     <g style="fill:#262626;" transform="translate(440.5046875 164.8109375)scale(0.1 -0.1)">
      <use xlink:href="#ArialMT-54"/>
      <use x="60.912109375" xlink:href="#ArialMT-61"/>
      <use x="116.52734375" xlink:href="#ArialMT-62"/>
      <use x="172.142578125" xlink:href="#ArialMT-6c"/>
      <use x="194.359375" xlink:href="#ArialMT-65"/>
      <use x="249.974609375" xlink:href="#ArialMT-31"/>
      <use x="305.48046875" xlink:href="#ArialMT-31"/>
     </g>
    </g>
    <g id="line2d_66">
     <path d="M 412.504687 175.45625 
L 432.504687 175.45625 
" style="fill:none;stroke:#64b5cd;stroke-linecap:round;stroke-width:1.75;"/>
    </g>
    <g id="line2d_67"/>
    <g id="text_28">
     <!-- Table12 -->
     <g style="fill:#262626;" transform="translate(440.5046875 178.95625)scale(0.1 -0.1)">
      <use xlink:href="#ArialMT-54"/>
      <use x="60.912109375" xlink:href="#ArialMT-61"/>
      <use x="116.52734375" xlink:href="#ArialMT-62"/>
      <use x="172.142578125" xlink:href="#ArialMT-6c"/>
      <use x="194.359375" xlink:href="#ArialMT-65"/>
      <use x="249.974609375" xlink:href="#ArialMT-31"/>
      <use x="305.58984375" xlink:href="#ArialMT-32"/>
     </g>
    </g>
    <g id="line2d_68">
     <path d="M 412.504687 189.601562 
L 432.504687 189.601562 
" style="fill:none;stroke:#4c72b0;stroke-linecap:round;stroke-width:1.75;"/>
    </g>
    <g id="line2d_69"/>
    <g id="text_29">
     <!-- Table13 -->
     <g style="fill:#262626;" transform="translate(440.5046875 193.1015625)scale(0.1 -0.1)">
      <use xlink:href="#ArialMT-54"/>
      <use x="60.912109375" xlink:href="#ArialMT-61"/>
      <use x="116.52734375" xlink:href="#ArialMT-62"/>
      <use x="172.142578125" xlink:href="#ArialMT-6c"/>
      <use x="194.359375" xlink:href="#ArialMT-65"/>
      <use x="249.974609375" xlink:href="#ArialMT-31"/>
      <use x="305.58984375" xlink:href="#ArialMT-33"/>
     </g>
    </g>
   </g>
  </g>
 </g>
 <defs>
  <clipPath id="pdd4ae3a6ed">
   <rect height="345.6" width="446.4" x="39.221875" y="7.2"/>
  </clipPath>
 </defs>
</svg>
