<?xml version="1.0" encoding="utf-8" standalone="no"?>
<!DOCTYPE svg PUBLIC "-//W3C//DTD SVG 1.1//EN"
  "http://www.w3.org/Graphics/SVG/1.1/DTD/svg11.dtd">
<!-- Created with matplotlib (http://matplotlib.org/) -->
<svg height="432pt" version="1.1" viewBox="0 0 576 432" width="576pt" xmlns="http://www.w3.org/2000/svg" xmlns:xlink="http://www.w3.org/1999/xlink">
 <defs>
  <style type="text/css">
*{stroke-linecap:butt;stroke-linejoin:round;stroke-miterlimit:100000;}
  </style>
 </defs>
 <g id="figure_1">
  <g id="patch_1">
   <path d="M 0 432 
L 576 432 
L 576 0 
L 0 0 
z
" style="fill:#ffffff;"/>
  </g>
  <g id="axes_1">
   <g id="patch_2">
    <path d="M 72 388.8 
L 518.4 388.8 
L 518.4 43.2 
L 72 43.2 
z
" style="fill:#eaeaf2;"/>
   </g>
   <g id="matplotlib.axis_1">
    <g id="xtick_1">
     <g id="line2d_1">
      <path clip-path="url(#p80f560aa14)" d="M 72 388.8 
L 72 43.2 
" style="fill:none;stroke:#ffffff;stroke-linecap:round;"/>
     </g>
     <g id="line2d_2"/>
     <g id="line2d_3"/>
     <g id="text_1">
      <!-- $0.0$ -->
      <defs>
       <path d="M 42 31.640625 
C 42 37.75 41.90625 48.125 37.703125 56.109375 
C 34 63.109375 28.09375 65.59375 22.90625 65.59375 
C 18.09375 65.59375 12 63.40625 8.203125 56.203125 
C 4.203125 48.71875 3.796875 39.4375 3.796875 31.640625 
C 3.796875 25.953125 3.90625 17.28125 7 9.671875 
C 11.296875 -0.609375 19 -2 22.90625 -2 
C 27.5 -2 34.5 -0.109375 38.59375 9.375 
C 41.59375 16.28125 42 24.359375 42 31.640625 
M 22.90625 -0.40625 
C 16.5 -0.40625 12.703125 5.078125 11.296875 12.6875 
C 10.203125 18.5625 10.203125 27.15625 10.203125 32.75 
C 10.203125 40.4375 10.203125 46.828125 11.5 52.921875 
C 13.40625 61.390625 19 64 22.90625 64 
C 27 64 32.296875 61.296875 34.203125 53.125 
C 35.5 47.4375 35.59375 40.734375 35.59375 32.75 
C 35.59375 26.25 35.59375 18.265625 34.40625 12.375 
C 32.296875 1.484375 26.40625 -0.40625 22.90625 -0.40625 
" id="CMR17-48"/>
       <path d="M 18.40625 4.796875 
C 18.40625 7.6875 16 9.671875 13.59375 9.671875 
C 10.703125 9.671875 8.703125 7.28125 8.703125 4.890625 
C 8.703125 2 11.09375 0 13.5 0 
C 16.40625 0 18.40625 2.390625 18.40625 4.796875 
" id="CMMI12-58"/>
      </defs>
      <g style="fill:#262626;" transform="translate(65.6349605119 402.71849838)scale(0.1 -0.1)">
       <use transform="scale(0.996264009963)" xlink:href="#CMR17-48"/>
       <use transform="translate(45.6904771171 0.0)scale(0.996264009963)" xlink:href="#CMMI12-58"/>
       <use transform="translate(72.7876542069 0.0)scale(0.996264009963)" xlink:href="#CMR17-48"/>
      </g>
     </g>
    </g>
    <g id="xtick_2">
     <g id="line2d_4">
      <path clip-path="url(#p80f560aa14)" d="M 135.771429 388.8 
L 135.771429 43.2 
" style="fill:none;stroke:#ffffff;stroke-linecap:round;"/>
     </g>
     <g id="line2d_5"/>
     <g id="line2d_6"/>
     <g id="text_2">
      <!-- $0.5$ -->
      <defs>
       <path d="M 11.40625 57.6875 
C 12.40625 57.28125 16.5 56 20.703125 56 
C 30 56 35.09375 61.109375 38 64.0625 
C 38 64.953125 38 65.5 37.40625 65.5 
C 37.296875 65.5 37.09375 65.5 36.296875 65.046875 
C 32.796875 63.40625 28.703125 62.078125 23.703125 62.078125 
C 20.703125 62.078125 16.203125 62.484375 11.296875 64.671875 
C 10.203125 65.171875 10 65.171875 9.90625 65.171875 
C 9.40625 65.171875 9.296875 65.0625 9.296875 63.078125 
L 9.296875 34.421875 
C 9.296875 32.640625 9.296875 32.140625 10.296875 32.140625 
C 10.796875 32.140625 11 32.34375 11.5 33.03125 
C 14.703125 37.515625 19.09375 39.40625 24.09375 39.40625 
C 27.59375 39.40625 35.09375 37.21875 35.09375 20.140625 
C 35.09375 16.953125 35.09375 11.171875 32.09375 6.578125 
C 29.59375 2.484375 25.703125 0.390625 21.40625 0.390625 
C 14.796875 0.390625 8.09375 5 6.296875 12.71875 
C 6.703125 12.609375 7.5 12.421875 7.90625 12.421875 
C 9.203125 12.421875 11.703125 13.125 11.703125 16.21875 
C 11.703125 18.90625 9.796875 20 7.90625 20 
C 5.59375 20 4.09375 18.59375 4.09375 15.796875 
C 4.09375 7.09375 11 -2 21.59375 -2 
C 31.90625 -2 41.703125 6.875 41.703125 19.75 
C 41.703125 31.71875 33.90625 41 24.203125 41 
C 19.09375 41 14.796875 39.109375 11.40625 35.53125 
z
" id="CMR17-53"/>
      </defs>
      <g style="fill:#262626;" transform="translate(129.406389083 402.71849838)scale(0.1 -0.1)">
       <use transform="scale(0.996264009963)" xlink:href="#CMR17-48"/>
       <use transform="translate(45.6904771171 0.0)scale(0.996264009963)" xlink:href="#CMMI12-58"/>
       <use transform="translate(72.7876542069 0.0)scale(0.996264009963)" xlink:href="#CMR17-53"/>
      </g>
     </g>
    </g>
    <g id="xtick_3">
     <g id="line2d_7">
      <path clip-path="url(#p80f560aa14)" d="M 199.542857 388.8 
L 199.542857 43.2 
" style="fill:none;stroke:#ffffff;stroke-linecap:round;"/>
     </g>
     <g id="line2d_8"/>
     <g id="line2d_9"/>
     <g id="text_3">
      <!-- $1.0$ -->
      <defs>
       <path d="M 26.59375 63.40625 
C 26.59375 65.5 26.5 65.5 25.09375 65.5 
C 21.203125 61.1875 15.296875 59.796875 9.703125 59.796875 
C 9.40625 59.796875 8.90625 59.796875 8.796875 59.5 
C 8.703125 59.296875 8.703125 59.09375 8.703125 57 
C 11.796875 57 17 57.59375 21 59.984375 
L 21 7.203125 
C 21 3.6875 20.796875 2.5 12.203125 2.5 
L 9.203125 2.5 
L 9.203125 0 
C 14 0 19 0 23.796875 0 
C 28.59375 0 33.59375 0 38.40625 0 
L 38.40625 2.5 
L 35.40625 2.5 
C 26.796875 2.5 26.59375 3.59375 26.59375 7.15625 
z
" id="CMR17-49"/>
      </defs>
      <g style="fill:#262626;" transform="translate(193.177817655 402.71849838)scale(0.1 -0.1)">
       <use transform="scale(0.996264009963)" xlink:href="#CMR17-49"/>
       <use transform="translate(45.6904771171 0.0)scale(0.996264009963)" xlink:href="#CMMI12-58"/>
       <use transform="translate(72.7876542069 0.0)scale(0.996264009963)" xlink:href="#CMR17-48"/>
      </g>
     </g>
    </g>
    <g id="xtick_4">
     <g id="line2d_10">
      <path clip-path="url(#p80f560aa14)" d="M 263.314286 388.8 
L 263.314286 43.2 
" style="fill:none;stroke:#ffffff;stroke-linecap:round;"/>
     </g>
     <g id="line2d_11"/>
     <g id="line2d_12"/>
     <g id="text_4">
      <!-- $1.5$ -->
      <g style="fill:#262626;" transform="translate(256.949246226 402.71849838)scale(0.1 -0.1)">
       <use transform="scale(0.996264009963)" xlink:href="#CMR17-49"/>
       <use transform="translate(45.6904771171 0.0)scale(0.996264009963)" xlink:href="#CMMI12-58"/>
       <use transform="translate(72.7876542069 0.0)scale(0.996264009963)" xlink:href="#CMR17-53"/>
      </g>
     </g>
    </g>
    <g id="xtick_5">
     <g id="line2d_13">
      <path clip-path="url(#p80f560aa14)" d="M 327.085714 388.8 
L 327.085714 43.2 
" style="fill:none;stroke:#ffffff;stroke-linecap:round;"/>
     </g>
     <g id="line2d_14"/>
     <g id="line2d_15"/>
     <g id="text_5">
      <!-- $2.0$ -->
      <defs>
       <path d="M 41.703125 15.453125 
L 39.90625 15.453125 
C 38.90625 8.375 38.09375 7.171875 37.703125 6.5625 
C 37.203125 5.765625 30 5.765625 28.59375 5.765625 
L 9.40625 5.765625 
C 13 9.671875 20 16.75 28.5 24.953125 
C 34.59375 30.734375 41.703125 37.53125 41.703125 47.421875 
C 41.703125 59.21875 32.296875 66 21.796875 66 
C 10.796875 66 4.09375 56.3125 4.09375 47.34375 
C 4.09375 43.4375 7 42.9375 8.203125 42.9375 
C 9.203125 42.9375 12.203125 43.546875 12.203125 47.03125 
C 12.203125 50.109375 9.59375 51 8.203125 51 
C 7.59375 51 7 50.90625 6.59375 50.703125 
C 8.5 59.21875 14.296875 63.40625 20.40625 63.40625 
C 29.09375 63.40625 34.796875 56.515625 34.796875 47.421875 
C 34.796875 38.734375 29.703125 31.25 24 24.75 
L 4.09375 2.28125 
L 4.09375 0 
L 39.296875 0 
z
" id="CMR17-50"/>
      </defs>
      <g style="fill:#262626;" transform="translate(320.720674798 402.71849838)scale(0.1 -0.1)">
       <use transform="scale(0.996264009963)" xlink:href="#CMR17-50"/>
       <use transform="translate(45.6904771171 0.0)scale(0.996264009963)" xlink:href="#CMMI12-58"/>
       <use transform="translate(72.7876542069 0.0)scale(0.996264009963)" xlink:href="#CMR17-48"/>
      </g>
     </g>
    </g>
    <g id="xtick_6">
     <g id="line2d_16">
      <path clip-path="url(#p80f560aa14)" d="M 390.857143 388.8 
L 390.857143 43.2 
" style="fill:none;stroke:#ffffff;stroke-linecap:round;"/>
     </g>
     <g id="line2d_17"/>
     <g id="line2d_18"/>
     <g id="text_6">
      <!-- $2.5$ -->
      <g style="fill:#262626;" transform="translate(384.492103369 402.71849838)scale(0.1 -0.1)">
       <use transform="scale(0.996264009963)" xlink:href="#CMR17-50"/>
       <use transform="translate(45.6904771171 0.0)scale(0.996264009963)" xlink:href="#CMMI12-58"/>
       <use transform="translate(72.7876542069 0.0)scale(0.996264009963)" xlink:href="#CMR17-53"/>
      </g>
     </g>
    </g>
    <g id="xtick_7">
     <g id="line2d_19">
      <path clip-path="url(#p80f560aa14)" d="M 454.628571 388.8 
L 454.628571 43.2 
" style="fill:none;stroke:#ffffff;stroke-linecap:round;"/>
     </g>
     <g id="line2d_20"/>
     <g id="line2d_21"/>
     <g id="text_7">
      <!-- $3.0$ -->
      <defs>
       <path d="M 22.09375 33.703125 
C 31 33.703125 34.90625 25.96875 34.90625 17.03125 
C 34.90625 5 28.5 0.390625 22.703125 0.390625 
C 17.40625 0.390625 8.796875 3.03125 6.09375 10.828125 
C 6.59375 10.625 7.09375 10.625 7.59375 10.625 
C 10 10.625 11.796875 12.21875 11.796875 14.8125 
C 11.796875 17.703125 9.59375 19 7.59375 19 
C 5.90625 19 3.296875 18.203125 3.296875 14.46875 
C 3.296875 5.234375 12.296875 -2 22.90625 -2 
C 34 -2 42.5 6.71875 42.5 16.953125 
C 42.5 26.671875 34.5 33.703125 25 34.796875 
C 32.59375 36.375 39.90625 43.0625 39.90625 52.015625 
C 39.90625 59.6875 32 65.296875 23 65.296875 
C 13.90625 65.296875 5.90625 59.828125 5.90625 52.015625 
C 5.90625 48.59375 8.5 48 9.796875 48 
C 11.90625 48 13.703125 49.296875 13.703125 51.890625 
C 13.703125 54.46875 11.90625 55.765625 9.796875 55.765625 
C 9.40625 55.765625 8.90625 55.765625 8.5 55.578125 
C 11.40625 61.859375 19.296875 63 22.796875 63 
C 26.296875 63 32.90625 61.328125 32.90625 51.875 
C 32.90625 49.109375 32.5 44.1875 29.09375 39.84375 
C 26.09375 36 22.703125 36 19.40625 35.6875 
C 18.90625 35.6875 16.59375 35.453125 16.203125 35.453125 
C 15.5 35.359375 15.09375 35.265625 15.09375 34.5 
C 15.09375 33.796875 15.203125 33.703125 17.203125 33.703125 
z
" id="CMR17-51"/>
      </defs>
      <g style="fill:#262626;" transform="translate(448.26353194 402.71849838)scale(0.1 -0.1)">
       <use transform="scale(0.996264009963)" xlink:href="#CMR17-51"/>
       <use transform="translate(45.6904771171 0.0)scale(0.996264009963)" xlink:href="#CMMI12-58"/>
       <use transform="translate(72.7876542069 0.0)scale(0.996264009963)" xlink:href="#CMR17-48"/>
      </g>
     </g>
    </g>
    <g id="xtick_8">
     <g id="line2d_22">
      <path clip-path="url(#p80f560aa14)" d="M 518.4 388.8 
L 518.4 43.2 
" style="fill:none;stroke:#ffffff;stroke-linecap:round;"/>
     </g>
     <g id="line2d_23"/>
     <g id="line2d_24"/>
     <g id="text_8">
      <!-- $3.5$ -->
      <g style="fill:#262626;" transform="translate(512.034960512 402.71849838)scale(0.1 -0.1)">
       <use transform="scale(0.996264009963)" xlink:href="#CMR17-51"/>
       <use transform="translate(45.6904771171 0.0)scale(0.996264009963)" xlink:href="#CMMI12-58"/>
       <use transform="translate(72.7876542069 0.0)scale(0.996264009963)" xlink:href="#CMR17-53"/>
      </g>
     </g>
    </g>
    <g id="text_9">
     <!-- Neutron star mass ($M_{\odot}$) -->
     <defs>
      <path d="M 32.203125 41.046875 
C 26.296875 43.859375 21.703125 43.859375 18.703125 43.859375 
C 11.59375 43.859375 3.09375 41.375 3.09375 31.296875 
C 3.09375 21.234375 14.09375 19.03125 17.09375 18.421875 
C 21.703125 17.53125 26.796875 16.53125 26.796875 11.5625 
C 26.796875 5.265625 19.59375 5.265625 18.296875 5.265625 
C 14.296875 5.265625 8.796875 6.359375 3.796875 9.96875 
L 2.59375 3.28125 
C 8.296875 0 13.796875 -1 18.40625 -1 
C 30.703125 -1 33.796875 6.5 33.796875 12.203125 
C 33.796875 17.09375 31 20.390625 29.09375 21.890625 
C 25.796875 24.5 24.59375 24.796875 16.40625 26.5 
C 15 26.703125 10.09375 27.796875 10.09375 32.28125 
C 10.09375 38 16.40625 38 17.796875 38 
C 24.296875 38 28.296875 35.984375 31 34.5 
z
" id="CMSS17-115"/>
      <path d="M 14.90625 21.296875 
C 14.90625 30.703125 21.796875 37 30.59375 37 
L 30.59375 43.578125 
C 24.203125 43.578125 18.203125 40.390625 14.59375 35.203125 
L 14.59375 43.09375 
L 7.5 43.09375 
L 7.5 0 
L 14.90625 0 
z
" id="CMSS17-114"/>
      <path d="M 40.90625 42.796875 
L 33.296875 42.796875 
L 33.296875 15.1875 
C 33.296875 7.78125 27.90625 4.78125 22.203125 4.78125 
C 15.59375 4.78125 15 6.984375 15 11.078125 
L 15 42.796875 
L 7.40625 42.796875 
L 7.40625 10.59375 
C 7.40625 2.796875 10.09375 -1 17 -1 
C 20.40625 -1 28.09375 -0.203125 33.5 4.78125 
L 33.5 0 
L 40.90625 0 
z
" id="CMSS17-117"/>
      <path d="M 16.703125 37 
L 29.703125 37 
L 29.703125 42.765625 
L 16.703125 42.765625 
L 16.703125 55 
L 9.59375 55 
L 9.59375 42.765625 
L 1.703125 42.765625 
L 1.703125 37 
L 9.40625 37 
L 9.40625 11.703125 
C 9.40625 6 10.703125 -1 17.296875 -1 
C 22.296875 -1 26.90625 0.390625 31.296875 2.6875 
L 29.703125 8.5625 
C 27.296875 6.46875 24.40625 5.265625 21.296875 5.265625 
C 16.90625 5.265625 16.703125 10.875 16.703125 13.375 
z
" id="CMSS17-116"/>
      <path d="M 44.203125 21.1875 
C 44.203125 34 34.703125 44 23.5 44 
C 12 44 2.703125 33.703125 2.703125 21.1875 
C 2.703125 8.5 12.296875 -1 23.40625 -1 
C 34.796875 -1 44.203125 8.796875 44.203125 21.1875 
M 23.5 5.265625 
C 16.40625 5.265625 10.296875 11.078125 10.296875 22 
C 10.296875 33.609375 17.40625 37.921875 23.40625 37.921875 
C 29.90625 37.921875 36.59375 33.21875 36.59375 22 
C 36.59375 10.671875 30.09375 5.265625 23.5 5.265625 
" id="CMSS17-111"/>
      <path d="M 40.90625 29.328125 
C 40.90625 35.671875 39.40625 44 28.09375 44 
C 21.703125 44 17.5 40.71875 14.703125 37.328125 
L 14.703125 43.09375 
L 7.40625 43.09375 
L 7.40625 0 
L 15 0 
L 15 24.359375 
C 15 30.6875 17.40625 37.9375 24.203125 37.9375 
C 33 37.9375 33.296875 32 33.296875 28.578125 
L 33.296875 0 
L 40.90625 0 
z
" id="CMSS17-110"/>
      <path d="M 39.09375 21.515625 
C 39.09375 24.84375 38.90625 31.296875 35.703125 36.640625 
C 32.203125 42.390625 26.5 44 22.203125 44 
C 11.796875 44 3 34.1875 3 21.484375 
C 3 9.09375 12.09375 -1 23.59375 -1 
C 28.09375 -1 33.59375 0.296875 38.59375 3.875 
C 38.59375 4.28125 38.40625 6.46875 38.296875 6.5625 
C 38.296875 6.765625 38 9.84375 38 10.25 
C 33.203125 6.359375 27.703125 5.078125 23.703125 5.078125 
C 17.296875 5.078125 10.40625 10.421875 10.09375 21.515625 
z
M 10.90625 27 
C 12.203125 32.5625 16.59375 37.828125 22.203125 37.828125 
C 23.703125 37.828125 30.703125 37.828125 32.5 27 
z
" id="CMSS17-101"/>
      <path d="M 90.796875 60.71875 
C 91.703125 64.109375 91.90625 65.109375 99 65.109375 
C 100.90625 65.109375 101.796875 65.109375 101.796875 67 
C 101.796875 68 101.09375 68 99.203125 68 
L 87.203125 68 
C 84.703125 68 84.59375 67.90625 83.5 66.296875 
L 47 8.78125 
L 39.5 65.796875 
C 39.203125 68 39.09375 68 36.5 68 
L 24.09375 68 
C 22.203125 68 21.296875 68 21.296875 66.109375 
C 21.296875 65.109375 22.203125 65.109375 23.703125 65.109375 
C 29.796875 65.109375 29.796875 64.3125 29.796875 63.21875 
C 29.796875 63.03125 29.796875 62.421875 29.40625 60.921875 
L 16.59375 9.90625 
C 15.40625 5.109375 13.09375 2.90625 6.40625 2.90625 
C 6.09375 2.90625 4.90625 2.90625 4.90625 1.140625 
C 4.90625 0 5.796875 0 6.203125 0 
C 8.203125 0 13.296875 0 15.296875 0 
L 20.09375 0 
C 21.5 0 23.203125 0 24.59375 0 
C 25.296875 0 26.40625 0 26.40625 1.90625 
C 26.40625 2.8125 25.40625 2.90625 25 2.90625 
C 21.703125 2.90625 18.5 3.5 18.5 7.09375 
C 18.5 8.09375 18.5 8.1875 18.90625 9.578125 
L 32.703125 64.515625 
L 32.796875 64.515625 
L 41.09375 2.6875 
C 41.40625 0.296875 41.5 0 42.40625 0 
C 43.5 0 44 0.796875 44.5 1.703125 
L 84.703125 65.015625 
L 84.796875 65.015625 
L 70.296875 7.390625 
C 69.40625 3.90625 69.203125 2.90625 62.203125 2.90625 
C 60.296875 2.90625 59.296875 2.90625 59.296875 1.09375 
C 59.296875 0 60.203125 0 60.796875 0 
C 62.5 0 64.5 0 66.203125 0 
L 78 0 
C 79.703125 0 81.796875 0 83.5 0 
C 84.296875 0 85.40625 0 85.40625 1.90625 
C 85.40625 2.90625 84.5 2.90625 83 2.90625 
C 76.90625 2.90625 76.90625 3.65625 76.90625 4.59375 
C 76.90625 4.703125 76.90625 5.390625 77.09375 6.1875 
z
" id="CMMI12-77"/>
      <path d="M 25.203125 74.5 
C 19.796875 69.015625 7.40625 56.265625 7.40625 24.8125 
C 7.40625 -6.765625 19.796875 -19.421875 25.203125 -25 
L 31.296875 -25 
C 19 -12.25 15 5.578125 15 24.703125 
C 15 43.71875 18.796875 61.65625 31.296875 74.5 
z
" id="CMSS17-40"/>
      <path d="M 22.90625 65.3125 
L 21.09375 69 
L 8.796875 69 
L 8.796875 0 
L 16.59375 0 
L 16.59375 61.34375 
L 16.703125 61.4375 
C 17.40625 59.640625 17.796875 58.75 21.90625 49.90625 
L 43.296875 3.6875 
L 45.09375 0 
L 57.40625 0 
L 57.40625 69 
L 49.59375 69 
L 49.59375 7.65625 
L 49.5 7.546875 
C 48.796875 9.34375 48.40625 10.234375 44.296875 19.078125 
z
" id="CMSS17-78"/>
      <path d="M 72.21875 25 
C 72.21875 43.4375 57.21875 58.359375 38.90625 58.359375 
C 20.3125 58.359375 5.5 43.234375 5.5 25 
C 5.5 6.5625 20.5 -8.359375 38.8125 -8.359375 
C 57.421875 -8.359375 72.21875 6.765625 72.21875 25 
M 38.90625 -5.859375 
C 21.703125 -5.859375 8 8.0625 8 25 
C 8 42.234375 22 55.859375 38.8125 55.859375 
C 56.015625 55.859375 69.71875 41.9375 69.71875 25 
C 69.71875 7.765625 55.71875 -5.859375 38.90625 -5.859375 
M 45.703125 25 
C 45.703125 28.796875 42.59375 31.90625 38.90625 31.90625 
C 34.90625 31.90625 32 28.59375 32 25 
C 32 21.203125 35.09375 18.09375 38.796875 18.09375 
C 42.796875 18.09375 45.703125 21.40625 45.703125 25 
" id="CMSY10-12"/>
      <path d="M 37.59375 27.984375 
C 37.59375 37.375 30.90625 43.875 21.90625 43.875 
C 17.5 43.875 12.703125 43.078125 7.203125 39.890625 
L 7.796875 33.359375 
C 10.296875 35.125 14.59375 38 21.796875 38 
C 26.90625 38 30 34.0625 30 27.84375 
L 30 24 
C 14 24 4 19.34375 4 11.34375 
C 4 7.203125 6.5 -1 14.796875 -1 
C 16.296875 -1 24.40625 -1 30.203125 3.390625 
L 30.203125 -0.296875 
L 37.59375 -0.296875 
z
M 30 12.75 
C 30 10.953125 30 8.5625 27 6.78125 
C 24.40625 5.078125 21.09375 5.078125 19.703125 5.078125 
C 14.703125 5.078125 11.296875 7.984375 11.296875 11.625 
C 11.296875 18.921875 26.90625 18.921875 30 18.921875 
z
" id="CMSS17-97"/>
      <path d="M 11.296875 -25 
C 16.703125 -19.515625 29.09375 -6.765625 29.09375 24.703125 
C 29.09375 56.265625 16.703125 68.921875 11.296875 74.5 
L 5.203125 74.5 
C 17.5 61.75 21.5 43.921875 21.5 24.8125 
C 21.5 5.78125 17.703125 -12.15625 5.203125 -25 
z
" id="CMSS17-41"/>
      <path d="M 67 29.328125 
C 67 36.0625 65.296875 44 54.09375 44 
C 46.59375 44 42.09375 39.3125 40.09375 36.421875 
C 38.296875 41.71875 34.09375 44 28.09375 44 
C 21.296875 44 17 40.125 14.703125 37.328125 
L 14.703125 43.09375 
L 7.40625 43.09375 
L 7.40625 0 
L 15 0 
L 15 24.359375 
C 15 30.296875 17.203125 37.9375 24.296875 37.9375 
C 33.40625 37.9375 33.40625 31.5 33.40625 28.578125 
L 33.40625 0 
L 41 0 
L 41 24.359375 
C 41 30.296875 43.203125 37.9375 50.296875 37.9375 
C 59.40625 37.9375 59.40625 31.5 59.40625 28.578125 
L 59.40625 0 
L 67 0 
z
" id="CMSS17-109"/>
     </defs>
     <g style="fill:#262626;" transform="translate(238.280369087 418.483686177)scale(0.11 -0.11)">
      <use transform="translate(0.0 14.9439145441)scale(0.996264009963)" xlink:href="#CMSS17-78"/>
      <use transform="translate(66.061519181 14.9439145441)scale(0.996264009963)" xlink:href="#CMSS17-101"/>
      <use transform="translate(107.70034125 14.9439145441)scale(0.996264009963)" xlink:href="#CMSS17-117"/>
      <use transform="translate(155.905284383 14.9439145441)scale(0.996264009963)" xlink:href="#CMSS17-116"/>
      <use transform="translate(189.736851066 14.9439145441)scale(0.996264009963)" xlink:href="#CMSS17-114"/>
      <use transform="translate(221.646623623 14.9439145441)scale(0.996264009963)" xlink:href="#CMSS17-111"/>
      <use transform="translate(268.490247144 14.9439145441)scale(0.996264009963)" xlink:href="#CMSS17-110"/>
      <use transform="translate(347.924303029 14.9439145441)scale(0.996264009963)" xlink:href="#CMSS17-115"/>
      <use transform="translate(383.83784502 14.9439145441)scale(0.996264009963)" xlink:href="#CMSS17-116"/>
      <use transform="translate(417.669411703 14.9439145441)scale(0.996264009963)" xlink:href="#CMSS17-97"/>
      <use transform="translate(459.988878376 14.9439145441)scale(0.996264009963)" xlink:href="#CMSS17-114"/>
      <use transform="translate(523.127763684 14.9439145441)scale(0.996264009963)" xlink:href="#CMSS17-109"/>
      <use transform="translate(597.357018116 14.9439145441)scale(0.996264009963)" xlink:href="#CMSS17-97"/>
      <use transform="translate(642.278938721 14.9439145441)scale(0.996264009963)" xlink:href="#CMSS17-115"/>
      <use transform="translate(678.192480712 14.9439145441)scale(0.996264009963)" xlink:href="#CMSS17-115"/>
      <use transform="translate(745.335135454 14.9439145441)scale(0.996264009963)" xlink:href="#CMSS17-40"/>
      <use transform="translate(781.769049658 14.9439145441)scale(0.996264009963)" xlink:href="#CMMI12-77"/>
      <use transform="translate(876.142474753 0.0)scale(0.697381766617)" xlink:href="#CMSY10-12"/>
      <use transform="translate(930.881600006 14.9439145441)scale(0.996264009963)" xlink:href="#CMSS17-41"/>
     </g>
    </g>
   </g>
   <g id="matplotlib.axis_2">
    <g id="ytick_1">
     <g id="line2d_25">
      <path clip-path="url(#p80f560aa14)" d="M 72 388.8 
L 518.4 388.8 
" style="fill:none;stroke:#ffffff;stroke-linecap:round;"/>
     </g>
     <g id="line2d_26"/>
     <g id="line2d_27"/>
     <g id="text_10">
      <!-- $-0.2$ -->
      <defs>
       <path d="M 65.90625 23 
C 67.59375 23 69.40625 23 69.40625 25 
C 69.40625 27 67.59375 27 65.90625 27 
L 11.796875 27 
C 10.09375 27 8.296875 27 8.296875 25 
C 8.296875 23 10.09375 23 11.796875 23 
z
" id="CMSY10-0"/>
      </defs>
      <g style="fill:#262626;" transform="translate(44.521177299 391.290660025)scale(0.1 -0.1)">
       <use transform="scale(0.996264009963)" xlink:href="#CMSY10-0"/>
       <use transform="translate(77.4874676506 0.0)scale(0.996264009963)" xlink:href="#CMR17-48"/>
       <use transform="translate(123.177944768 0.0)scale(0.996264009963)" xlink:href="#CMMI12-58"/>
       <use transform="translate(150.275121857 0.0)scale(0.996264009963)" xlink:href="#CMR17-50"/>
      </g>
     </g>
    </g>
    <g id="ytick_2">
     <g id="line2d_28">
      <path clip-path="url(#p80f560aa14)" d="M 72 345.6 
L 518.4 345.6 
" style="fill:none;stroke:#ffffff;stroke-linecap:round;"/>
     </g>
     <g id="line2d_29"/>
     <g id="line2d_30"/>
     <g id="text_11">
      <!-- $0.0$ -->
      <g style="fill:#262626;" transform="translate(52.2699210237 348.090660025)scale(0.1 -0.1)">
       <use transform="scale(0.996264009963)" xlink:href="#CMR17-48"/>
       <use transform="translate(45.6904771171 0.0)scale(0.996264009963)" xlink:href="#CMMI12-58"/>
       <use transform="translate(72.7876542069 0.0)scale(0.996264009963)" xlink:href="#CMR17-48"/>
      </g>
     </g>
    </g>
    <g id="ytick_3">
     <g id="line2d_31">
      <path clip-path="url(#p80f560aa14)" d="M 72 302.4 
L 518.4 302.4 
" style="fill:none;stroke:#ffffff;stroke-linecap:round;"/>
     </g>
     <g id="line2d_32"/>
     <g id="line2d_33"/>
     <g id="text_12">
      <!-- $0.2$ -->
      <g style="fill:#262626;" transform="translate(52.2699210237 304.890660025)scale(0.1 -0.1)">
       <use transform="scale(0.996264009963)" xlink:href="#CMR17-48"/>
       <use transform="translate(45.6904771171 0.0)scale(0.996264009963)" xlink:href="#CMMI12-58"/>
       <use transform="translate(72.7876542069 0.0)scale(0.996264009963)" xlink:href="#CMR17-50"/>
      </g>
     </g>
    </g>
    <g id="ytick_4">
     <g id="line2d_34">
      <path clip-path="url(#p80f560aa14)" d="M 72 259.2 
L 518.4 259.2 
" style="fill:none;stroke:#ffffff;stroke-linecap:round;"/>
     </g>
     <g id="line2d_35"/>
     <g id="line2d_36"/>
     <g id="text_13">
      <!-- $0.4$ -->
      <defs>
       <path d="M 33.59375 64.40625 
C 33.59375 66.5 33.5 66.5 31.703125 66.5 
L 2 19.59375 
L 2 17 
L 27.796875 17 
L 27.796875 7.140625 
C 27.796875 3.5 27.59375 2.5 20.59375 2.5 
L 18.703125 2.5 
L 18.703125 0 
C 21.90625 0 27.296875 0 30.703125 0 
C 34.09375 0 39.5 0 42.703125 0 
L 42.703125 2.5 
L 40.796875 2.5 
C 33.796875 2.5 33.59375 3.5 33.59375 7.140625 
L 33.59375 17 
L 43.796875 17 
L 43.796875 19.59375 
L 33.59375 19.59375 
z
M 28.09375 57.859375 
L 28.09375 19.59375 
L 4 19.59375 
z
" id="CMR17-52"/>
      </defs>
      <g style="fill:#262626;" transform="translate(52.2699210237 261.690660025)scale(0.1 -0.1)">
       <use transform="scale(0.996264009963)" xlink:href="#CMR17-48"/>
       <use transform="translate(45.6904771171 0.0)scale(0.996264009963)" xlink:href="#CMMI12-58"/>
       <use transform="translate(72.7876542069 0.0)scale(0.996264009963)" xlink:href="#CMR17-52"/>
      </g>
     </g>
    </g>
    <g id="ytick_5">
     <g id="line2d_37">
      <path clip-path="url(#p80f560aa14)" d="M 72 216 
L 518.4 216 
" style="fill:none;stroke:#ffffff;stroke-linecap:round;"/>
     </g>
     <g id="line2d_38"/>
     <g id="line2d_39"/>
     <g id="text_14">
      <!-- $0.6$ -->
      <defs>
       <path d="M 10.59375 34 
C 10.59375 57.65625 21.796875 63 28.296875 63 
C 30.40625 63 35.5 62.640625 37.5 59 
C 35.90625 59 32.90625 59 32.90625 55.515625 
C 32.90625 52.828125 35.09375 51.921875 36.5 51.921875 
C 37.40625 51.921875 40.09375 52.3125 40.09375 55.625 
C 40.09375 61.78125 35.09375 65.296875 28.203125 65.296875 
C 16.296875 65.296875 3.796875 52.96875 3.796875 31 
C 3.796875 3.953125 15.09375 -2 23.09375 -2 
C 32.796875 -2 42 6.671875 42 20.046875 
C 42 32.515625 33.90625 41.59375 23.703125 41.59375 
C 17.59375 41.59375 13.09375 37.609375 10.59375 30.625 
z
M 23.09375 0.390625 
C 10.796875 0.390625 10.796875 18.75 10.796875 22.4375 
C 10.796875 29.625 14.203125 40 23.5 40 
C 25.203125 40 30.09375 40 33.40625 33.125 
C 35.203125 29.21875 35.203125 25.140625 35.203125 20.140625 
C 35.203125 14.75 35.203125 10.78125 33.09375 6.78125 
C 30.90625 2.671875 27.703125 0.390625 23.09375 0.390625 
" id="CMR17-54"/>
      </defs>
      <g style="fill:#262626;" transform="translate(52.2699210237 218.490660025)scale(0.1 -0.1)">
       <use transform="scale(0.996264009963)" xlink:href="#CMR17-48"/>
       <use transform="translate(45.6904771171 0.0)scale(0.996264009963)" xlink:href="#CMMI12-58"/>
       <use transform="translate(72.7876542069 0.0)scale(0.996264009963)" xlink:href="#CMR17-54"/>
      </g>
     </g>
    </g>
    <g id="ytick_6">
     <g id="line2d_40">
      <path clip-path="url(#p80f560aa14)" d="M 72 172.8 
L 518.4 172.8 
" style="fill:none;stroke:#ffffff;stroke-linecap:round;"/>
     </g>
     <g id="line2d_41"/>
     <g id="line2d_42"/>
     <g id="text_15">
      <!-- $0.8$ -->
      <defs>
       <path d="M 27.203125 35.375 
C 33.5 38.546875 39.90625 43.328125 39.90625 50.984375 
C 39.90625 60.015625 31.09375 65.296875 23 65.296875 
C 13.90625 65.296875 5.90625 58.734375 5.90625 49.6875 
C 5.90625 47.203125 6.5 42.921875 10.40625 39.140625 
C 11.40625 38.15625 15.59375 35.171875 18.296875 33.28125 
C 13.796875 30.984375 3.296875 25.53125 3.296875 14.59375 
C 3.296875 4.359375 13.09375 -2 22.796875 -2 
C 33.5 -2 42.5 5.65625 42.5 15.78125 
C 42.5 24.84375 36.40625 29.015625 32.40625 31.703125 
z
M 14.09375 44.09375 
C 13.296875 44.59375 9.296875 47.671875 9.296875 52.359375 
C 9.296875 58.421875 15.59375 63 22.796875 63 
C 30.703125 63 36.5 57.4375 36.5 50.96875 
C 36.5 41.703125 26.09375 36.421875 25.59375 36.421875 
C 25.5 36.421875 25.40625 36.421875 24.59375 37.03125 
z
M 32.5 23.734375 
C 34 22.640625 38.796875 19.375 38.796875 13.296875 
C 38.796875 5.953125 31.40625 0.390625 23 0.390625 
C 13.90625 0.390625 7 6.84375 7 14.6875 
C 7 22.546875 13.09375 29.09375 20 32.1875 
z
" id="CMR17-56"/>
      </defs>
      <g style="fill:#262626;" transform="translate(52.2699210237 175.290660025)scale(0.1 -0.1)">
       <use transform="scale(0.996264009963)" xlink:href="#CMR17-48"/>
       <use transform="translate(45.6904771171 0.0)scale(0.996264009963)" xlink:href="#CMMI12-58"/>
       <use transform="translate(72.7876542069 0.0)scale(0.996264009963)" xlink:href="#CMR17-56"/>
      </g>
     </g>
    </g>
    <g id="ytick_7">
     <g id="line2d_43">
      <path clip-path="url(#p80f560aa14)" d="M 72 129.6 
L 518.4 129.6 
" style="fill:none;stroke:#ffffff;stroke-linecap:round;"/>
     </g>
     <g id="line2d_44"/>
     <g id="line2d_45"/>
     <g id="text_16">
      <!-- $1.0$ -->
      <g style="fill:#262626;" transform="translate(52.2699210237 132.090660025)scale(0.1 -0.1)">
       <use transform="scale(0.996264009963)" xlink:href="#CMR17-49"/>
       <use transform="translate(45.6904771171 0.0)scale(0.996264009963)" xlink:href="#CMMI12-58"/>
       <use transform="translate(72.7876542069 0.0)scale(0.996264009963)" xlink:href="#CMR17-48"/>
      </g>
     </g>
    </g>
    <g id="ytick_8">
     <g id="line2d_46">
      <path clip-path="url(#p80f560aa14)" d="M 72 86.4 
L 518.4 86.4 
" style="fill:none;stroke:#ffffff;stroke-linecap:round;"/>
     </g>
     <g id="line2d_47"/>
     <g id="line2d_48"/>
     <g id="text_17">
      <!-- $1.2$ -->
      <g style="fill:#262626;" transform="translate(52.2699210237 88.8906600249)scale(0.1 -0.1)">
       <use transform="scale(0.996264009963)" xlink:href="#CMR17-49"/>
       <use transform="translate(45.6904771171 0.0)scale(0.996264009963)" xlink:href="#CMMI12-58"/>
       <use transform="translate(72.7876542069 0.0)scale(0.996264009963)" xlink:href="#CMR17-50"/>
      </g>
     </g>
    </g>
    <g id="ytick_9">
     <g id="line2d_49">
      <path clip-path="url(#p80f560aa14)" d="M 72 43.2 
L 518.4 43.2 
" style="fill:none;stroke:#ffffff;stroke-linecap:round;"/>
     </g>
     <g id="line2d_50"/>
     <g id="line2d_51"/>
     <g id="text_18">
      <!-- $1.4$ -->
      <g style="fill:#262626;" transform="translate(52.2699210237 45.6906600249)scale(0.1 -0.1)">
       <use transform="scale(0.996264009963)" xlink:href="#CMR17-49"/>
       <use transform="translate(45.6904771171 0.0)scale(0.996264009963)" xlink:href="#CMMI12-58"/>
       <use transform="translate(72.7876542069 0.0)scale(0.996264009963)" xlink:href="#CMR17-52"/>
      </g>
     </g>
    </g>
   </g>
   <g id="PathCollection_1">
    <defs>
     <path d="M -2.236068 2.236068 
L 2.236068 -2.236068 
M -2.236068 -2.236068 
L 2.236068 2.236068 
" id="m908632027b" style="stroke:#000000;stroke-width:0.3;"/>
    </defs>
    <g clip-path="url(#p80f560aa14)">
     <use style="stroke:#000000;stroke-width:0.3;" x="270.839316232" xlink:href="#m908632027b" y="345.6"/>
     <use style="stroke:#000000;stroke-width:0.3;" x="221.735317448" xlink:href="#m908632027b" y="345.6"/>
     <use style="stroke:#000000;stroke-width:0.3;" x="242.665091596" xlink:href="#m908632027b" y="345.6"/>
     <use style="stroke:#000000;stroke-width:0.3;" x="231.288281413" xlink:href="#m908632027b" y="345.6"/>
     <use style="stroke:#000000;stroke-width:0.3;" x="242.014621517" xlink:href="#m908632027b" y="345.6"/>
     <use style="stroke:#000000;stroke-width:0.3;" x="243.608913313" xlink:href="#m908632027b" y="345.6"/>
     <use style="stroke:#000000;stroke-width:0.3;" x="243.034966442" xlink:href="#m908632027b" y="345.6"/>
     <use style="stroke:#000000;stroke-width:0.3;" x="228.877716718" xlink:href="#m908632027b" y="345.6"/>
     <use style="stroke:#000000;stroke-width:0.3;" x="236.657829666" xlink:href="#m908632027b" y="345.6"/>
     <use style="stroke:#000000;stroke-width:0.3;" x="240.611660549" xlink:href="#m908632027b" y="345.6"/>
     <use style="stroke:#000000;stroke-width:0.3;" x="255.636208779" xlink:href="#m908632027b" y="345.6"/>
     <use style="stroke:#000000;stroke-width:0.3;" x="249.106010383" xlink:href="#m908632027b" y="345.6"/>
     <use style="stroke:#000000;stroke-width:0.3;" x="245.203205109" xlink:href="#m908632027b" y="345.6"/>
     <use style="stroke:#000000;stroke-width:0.3;" x="244.693025044" xlink:href="#m908632027b" y="345.6"/>
     <use style="stroke:#000000;stroke-width:0.3;" x="297.24068985" xlink:href="#m908632027b" y="345.6"/>
     <use style="stroke:#000000;stroke-width:0.3;" x="193.29325398" xlink:href="#m908632027b" y="345.6"/>
     <use style="stroke:#000000;stroke-width:0.3;" x="260.508348574" xlink:href="#m908632027b" y="345.6"/>
     <use style="stroke:#000000;stroke-width:0.3;" x="199.797939573" xlink:href="#m908632027b" y="345.6"/>
     <use style="stroke:#000000;stroke-width:0.3;" x="237.550625774" xlink:href="#m908632027b" y="345.6"/>
     <use style="stroke:#000000;stroke-width:0.3;" x="234.362057386" xlink:href="#m908632027b" y="345.6"/>
     <use style="stroke:#000000;stroke-width:0.3;" x="224.923885836" xlink:href="#m908632027b" y="345.6"/>
     <use style="stroke:#000000;stroke-width:0.3;" x="245.840918786" xlink:href="#m908632027b" y="345.6"/>
     <use style="stroke:#000000;stroke-width:0.3;" x="255.381126349" xlink:href="#m908632027b" y="345.6"/>
     <use style="stroke:#000000;stroke-width:0.3;" x="328.361141641" xlink:href="#m908632027b" y="345.6"/>
     <use style="stroke:#000000;stroke-width:0.3;" x="255.661721584" xlink:href="#m908632027b" y="345.6"/>
     <use style="stroke:#000000;stroke-width:0.3;" x="267.14056778" xlink:href="#m908632027b" y="345.6"/>
     <use style="stroke:#000000;stroke-width:0.3;" x="291.373717935" xlink:href="#m908632027b" y="345.6"/>
     <use style="stroke:#000000;stroke-width:0.3;" x="305.403434045" xlink:href="#m908632027b" y="345.6"/>
     <use style="stroke:#000000;stroke-width:0.3;" x="317.902625166" xlink:href="#m908632027b" y="345.6"/>
     <use style="stroke:#000000;stroke-width:0.3;" x="239.081135559" xlink:href="#m908632027b" y="345.6"/>
     <use style="stroke:#000000;stroke-width:0.3;" x="259.488003649" xlink:href="#m908632027b" y="345.6"/>
     <use style="stroke:#000000;stroke-width:0.3;" x="230.153144073" xlink:href="#m908632027b" y="345.6"/>
     <use style="stroke:#000000;stroke-width:0.3;" x="246.159768023" xlink:href="#m908632027b" y="345.6"/>
     <use style="stroke:#000000;stroke-width:0.3;" x="273.517719759" xlink:href="#m908632027b" y="345.6"/>
     <use style="stroke:#000000;stroke-width:0.3;" x="284.613949912" xlink:href="#m908632027b" y="345.6"/>
     <use style="stroke:#000000;stroke-width:0.3;" x="259.488003649" xlink:href="#m908632027b" y="345.6"/>
     <use style="stroke:#000000;stroke-width:0.3;" x="237.805708204" xlink:href="#m908632027b" y="345.6"/>
     <use style="stroke:#000000;stroke-width:0.3;" x="305.658516475" xlink:href="#m908632027b" y="345.6"/>
     <use style="stroke:#000000;stroke-width:0.3;" x="225.051434653" xlink:href="#m908632027b" y="345.6"/>
     <use style="stroke:#000000;stroke-width:0.3;" x="249.667200851" xlink:href="#m908632027b" y="345.6"/>
     <use style="stroke:#000000;stroke-width:0.3;" x="248.519307109" xlink:href="#m908632027b" y="345.6"/>
     <use style="stroke:#000000;stroke-width:0.3;" x="259.232921219" xlink:href="#m908632027b" y="345.6"/>
     <use style="stroke:#000000;stroke-width:0.3;" x="322.621718543" xlink:href="#m908632027b" y="345.6"/>
     <use style="stroke:#000000;stroke-width:0.3;" x="407.947893742" xlink:href="#m908632027b" y="345.6"/>
     <use style="stroke:#000000;stroke-width:0.3;" x="311.397939573" xlink:href="#m908632027b" y="345.6"/>
     <use style="stroke:#000000;stroke-width:0.3;" x="293.031776537" xlink:href="#m908632027b" y="345.6"/>
     <use style="stroke:#000000;stroke-width:0.3;" x="224.923885836" xlink:href="#m908632027b" y="345.6"/>
     <use style="stroke:#000000;stroke-width:0.3;" x="229.898061643" xlink:href="#m908632027b" y="345.6"/>
     <use style="stroke:#000000;stroke-width:0.3;" x="243.290064076" xlink:href="#m908632027b" y="345.6"/>
     <use style="stroke:#000000;stroke-width:0.3;" x="282.445711245" xlink:href="#m908632027b" y="345.6"/>
     <use style="stroke:#000000;stroke-width:0.3;" x="272.242292404" xlink:href="#m908632027b" y="345.6"/>
     <use style="stroke:#000000;stroke-width:0.3;" x="297.75085471" xlink:href="#m908632027b" y="345.6"/>
     <use style="stroke:#000000;stroke-width:0.3;" x="277.344001825" xlink:href="#m908632027b" y="345.6"/>
     <use style="stroke:#000000;stroke-width:0.3;" x="302.852564131" xlink:href="#m908632027b" y="345.6"/>
     <use style="stroke:#000000;stroke-width:0.3;" x="314.331425531" xlink:href="#m908632027b" y="345.6"/>
     <use style="stroke:#000000;stroke-width:0.3;" x="270.966849845" xlink:href="#m908632027b" y="345.6"/>
     <use style="stroke:#000000;stroke-width:0.3;" x="342.390842547" xlink:href="#m908632027b" y="345.6"/>
     <use style="stroke:#000000;stroke-width:0.3;" x="226.326862008" xlink:href="#m908632027b" y="345.6"/>
     <use style="stroke:#000000;stroke-width:0.3;" x="272.242292404" xlink:href="#m908632027b" y="345.6"/>
     <use style="stroke:#000000;stroke-width:0.3;" x="272.242292404" xlink:href="#m908632027b" y="345.6"/>
     <use style="stroke:#000000;stroke-width:0.3;" x="272.242292404" xlink:href="#m908632027b" y="345.6"/>
     <use style="stroke:#000000;stroke-width:0.3;" x="251.835424314" xlink:href="#m908632027b" y="345.6"/>
     <use style="stroke:#000000;stroke-width:0.3;" x="315.606852886" xlink:href="#m908632027b" y="345.6"/>
     <use style="stroke:#000000;stroke-width:0.3;" x="293.924572645" xlink:href="#m908632027b" y="345.6"/>
     <use style="stroke:#000000;stroke-width:0.3;" x="208.853479876" xlink:href="#m908632027b" y="345.6"/>
     <use style="stroke:#000000;stroke-width:0.3;" x="202.093711853" xlink:href="#m908632027b" y="345.6"/>
     <use style="stroke:#000000;stroke-width:0.3;" x="246.351083647" xlink:href="#m908632027b" y="345.6"/>
     <use style="stroke:#000000;stroke-width:0.3;" x="233.979426139" xlink:href="#m908632027b" y="345.6"/>
    </g>
   </g>
   <g id="line2d_52">
    <path clip-path="url(#p80f560aa14)" d="M 72 345.599984 
L 120.706306 345.490359 
L 129.643243 345.242982 
L 135.452252 344.882325 
L 140.367568 344.356687 
L 144.389189 343.703419 
L 147.963964 342.89423 
L 151.091892 341.962384 
L 154.21982 340.775254 
L 156.900901 339.517262 
L 159.581982 338.001771 
L 162.263063 336.192641 
L 164.497297 334.433095 
L 166.731532 332.419659 
L 168.965766 330.12798 
L 171.2 327.532757 
L 173.434234 324.607787 
L 175.668468 321.326071 
L 177.902703 317.659955 
L 180.136937 313.58138 
L 182.371171 309.062237 
L 184.605405 304.074879 
L 186.83964 298.59281 
L 189.073874 292.591574 
L 191.754955 284.675062 
L 194.436036 275.952324 
L 197.117117 266.408101 
L 199.798198 256.044062 
L 202.926126 242.948182 
L 206.054054 228.847809 
L 209.628829 211.675463 
L 214.097297 189.059919 
L 224.374775 136.585218 
L 227.502703 121.937899 
L 230.183784 110.389198 
L 232.418018 101.644961 
L 234.652252 93.823967 
L 236.43964 88.299419 
L 238.227027 83.472313 
L 240.014414 79.37665 
L 241.354955 76.800242 
L 242.695495 74.65647 
L 244.036036 72.949273 
L 245.376577 71.679514 
L 246.27027 71.075078 
L 247.163964 70.66277 
L 248.057658 70.440634 
L 248.951351 70.406154 
L 249.845045 70.556281 
L 250.738739 70.887446 
L 251.632432 71.395594 
L 252.972973 72.479656 
L 254.313514 73.934618 
L 255.654054 75.741497 
L 256.994595 77.879625 
L 258.781982 81.207418 
L 260.569369 85.029421 
L 262.803604 90.413957 
L 265.037838 96.365732 
L 267.718919 104.096173 
L 271.293694 115.093667 
L 279.336937 140.872797 
L 284.699099 157.634202 
L 289.167568 170.917662 
L 293.636036 183.518532 
L 298.551351 196.696931 
L 304.807207 212.778142 
L 320.893694 253.190054 
L 328.49009 271.91673 
L 333.405405 283.487492 
L 337.427027 292.413559 
L 341.001802 299.817356 
L 344.12973 305.817234 
L 347.257658 311.324332 
L 349.938739 315.628566 
L 352.61982 319.535783 
L 355.300901 323.041005 
L 357.981982 326.145814 
L 360.663063 328.857807 
L 362.897297 330.826944 
L 365.131532 332.54224 
L 367.365766 334.015713 
L 369.6 335.261111 
L 372.281081 336.476075 
L 374.962162 337.413289 
L 377.643243 338.103483 
L 380.324324 338.57891 
L 383.452252 338.906505 
L 387.027027 339.046877 
L 391.495495 338.986172 
L 407.581982 338.535887 
L 412.497297 338.754953 
L 417.412613 339.212463 
L 422.774775 339.944006 
L 430.371171 341.230698 
L 441.989189 343.186853 
L 448.691892 344.065753 
L 454.947748 344.665509 
L 462.097297 345.113668 
L 470.587387 345.401369 
L 482.205405 345.552764 
L 507.675676 345.599136 
L 518.4 345.599887 
L 518.4 345.599887 
" style="fill:none;stroke:#4c72b0;stroke-linecap:round;stroke-width:1.75;"/>
   </g>
   <g id="patch_3">
    <path d="M 72 43.2 
L 518.4 43.2 
" style="fill:none;"/>
   </g>
   <g id="patch_4">
    <path d="M 518.4 388.8 
L 518.4 43.2 
" style="fill:none;"/>
   </g>
   <g id="patch_5">
    <path d="M 72 388.8 
L 518.4 388.8 
" style="fill:none;"/>
   </g>
   <g id="patch_6">
    <path d="M 72 388.8 
L 72 43.2 
" style="fill:none;"/>
   </g>
   <g id="text_19">
    <!-- Kernel Density of Detected Neutron Stars -->
    <defs>
     <path d="M 34.90625 41.65625 
L 59.796875 69 
L 50.203125 69 
L 17.203125 32.90625 
L 17.203125 69 
L 8.796875 69 
L 8.796875 0 
L 17.203125 0 
L 17.203125 22.375 
L 29.296875 35.59375 
L 51.796875 0 
L 61.09375 0 
z
" id="CMSS17-75"/>
     <path d="M 15.296875 65.359375 
L 6.90625 65.359375 
L 6.90625 57 
L 15.296875 57 
z
M 14.796875 42.796875 
L 7.40625 42.796875 
L 7.40625 0 
L 14.796875 0 
z
" id="CMSS17-105"/>
     <path d="M 16.796875 37 
L 26.90625 37 
L 26.90625 42.765625 
L 16.59375 42.765625 
L 16.59375 55.609375 
C 16.59375 62.71875 22 63.9375 25.09375 63.9375 
C 26.09375 63.9375 28.90625 63.9375 32.5 62.640625 
L 32.5 69.203125 
C 30.203125 69.703125 27.40625 70 25.203125 70 
C 15.90625 70 9.40625 62.390625 9.40625 52.484375 
L 9.40625 42.765625 
L 2.5 42.765625 
L 2.5 37 
L 9.40625 37 
L 9.40625 0 
L 16.796875 0 
z
" id="CMSS17-102"/>
     <path d="M 40.796875 69 
L 33.40625 69 
L 33.40625 38.09375 
C 30.296875 40.671875 25.203125 43.0625 19.59375 43.0625 
C 10.5 43.0625 3.296875 33.296875 3.296875 21.046875 
C 3.296875 8.78125 10.40625 -1 19.296875 -1 
C 26.203125 -1 30.796875 2.6875 33.203125 4.78125 
L 33.203125 -0.203125 
L 40.796875 -0.203125 
z
M 33.203125 13.0625 
C 33.203125 11.671875 33.203125 10.203125 30.09375 7.53125 
C 28.09375 5.859375 25.703125 5.078125 23.40625 5.078125 
C 18 5.078125 10.90625 9 10.90625 20.9375 
C 10.90625 33.34375 18.90625 37 24.40625 37 
C 28.09375 37 31.09375 35.21875 33.203125 32.265625 
z
" id="CMSS17-100"/>
     <path d="M 14.796875 69 
L 7.40625 69 
L 7.40625 0 
L 14.796875 0 
z
" id="CMSS17-108"/>
     <path d="M 8.90625 69 
L 8.90625 0 
L 33.5 0 
C 49.90625 0 62.5 15.3125 62.5 33.90625 
C 62.5 53.09375 49.90625 69 33.5 69 
z
M 17.09375 5.578125 
L 17.09375 63.421875 
L 31.296875 63.421875 
C 44.703125 63.421875 54.296875 51.203125 54.296875 33.90625 
C 54.296875 17.296875 44.796875 5.578125 31.296875 5.578125 
z
" id="CMSS17-68"/>
     <path d="M 43.703125 65.140625 
C 39.296875 67.71875 34.5 70 26.40625 70 
C 13.5 70 5.203125 60.609375 5.203125 51.03125 
C 5.203125 47.265625 6.296875 43.015625 10.203125 38.671875 
C 14.09375 34.3125 18.5 33.140625 24.09375 31.765625 
C 26.40625 31.15625 30.296875 30.0625 31 29.78125 
C 36.59375 27.609375 39.296875 22.5625 39.296875 17.8125 
C 39.296875 11.59375 34.40625 4.96875 25.703125 4.96875 
C 22.703125 4.96875 13.90625 4.96875 5.59375 12.796875 
L 4.203125 4.96875 
C 12.40625 -1 21.296875 -2 25.796875 -2 
C 38.09375 -2 46.90625 7.625 46.90625 18.53125 
C 46.90625 22.5 45.703125 27.546875 41.5 32.203125 
C 37.40625 36.671875 33.796875 37.65625 25.59375 39.828125 
C 20.90625 41.03125 17.90625 41.828125 15.40625 44.890625 
C 13.703125 47.078125 12.796875 49.15625 12.796875 51.828125 
C 12.796875 57.390625 17.59375 63.4375 26.40625 63.4375 
C 30.796875 63.4375 36.5 62.53125 42.296875 57.1875 
z
" id="CMSS17-83"/>
     <path d="M 41.796875 43 
L 34 43 
C 25.5 20.21875 22.59375 10.96875 22.40625 5.984375 
L 22.296875 5.984375 
C 22 10.875 17.59375 22.8125 14.09375 31.359375 
L 9.40625 43 
L 1.296875 43 
L 19 0.203125 
C 17.90625 -2.78125 16.296875 -7.265625 15.796875 -8.265625 
C 13.59375 -13.828125 12.09375 -13.828125 10.5 -13.828125 
C 10.09375 -13.828125 6.90625 -13.828125 3.296875 -12.640625 
L 3.90625 -19.203125 
C 6.40625 -19.703125 8.90625 -20 10.703125 -20 
C 13.203125 -20 18.203125 -20 22.796875 -7.765625 
z
" id="CMSS17-121"/>
     <path d="M 38.5 39.703125 
C 38.5 40.390625 33.90625 42.40625 32.703125 42.796875 
C 29.40625 44 25.203125 44 24.09375 44 
C 11.09375 44 3.296875 32.703125 3.296875 21.296875 
C 3.296875 9.296875 12 -1 23.703125 -1 
C 30.40625 -1 35.203125 1.1875 39.09375 3.78125 
L 38.5 10.375 
C 34.203125 7.078125 29.203125 5.265625 23.796875 5.265625 
C 16 5.265625 10.90625 12.09375 10.90625 21.390625 
C 10.90625 28.609375 14.203125 37.71875 24.203125 37.71875 
C 29.703125 37.71875 32.796875 36.609375 37.40625 33.515625 
z
" id="CMSS17-99"/>
    </defs>
    <g style="fill:#262626;" transform="translate(193.246008498 38.2)scale(0.12 -0.12)">
     <use transform="scale(0.996264009963)" xlink:href="#CMSS17-75"/>
     <use transform="translate(64.8202936498 0.0)scale(0.996264009963)" xlink:href="#CMSS17-101"/>
     <use transform="translate(106.459115718 0.0)scale(0.996264009963)" xlink:href="#CMSS17-114"/>
     <use transform="translate(138.368888275 0.0)scale(0.996264009963)" xlink:href="#CMSS17-110"/>
     <use transform="translate(186.573831409 0.0)scale(0.996264009963)" xlink:href="#CMSS17-101"/>
     <use transform="translate(228.212653477 0.0)scale(0.996264009963)" xlink:href="#CMSS17-108"/>
     <use transform="translate(281.622489274 0.0)scale(0.996264009963)" xlink:href="#CMSS17-68"/>
     <use transform="translate(349.165330937 0.0)scale(0.996264009963)" xlink:href="#CMSS17-101"/>
     <use transform="translate(390.804153005 0.0)scale(0.996264009963)" xlink:href="#CMSS17-110"/>
     <use transform="translate(439.009096139 0.0)scale(0.996264009963)" xlink:href="#CMSS17-115"/>
     <use transform="translate(474.922638129 0.0)scale(0.996264009963)" xlink:href="#CMSS17-105"/>
     <use transform="translate(497.103361175 0.0)scale(0.996264009963)" xlink:href="#CMSS17-116"/>
     <use transform="translate(528.332473926 0.0)scale(0.996264009963)" xlink:href="#CMSS17-121"/>
     <use transform="translate(602.561728358 0.0)scale(0.996264009963)" xlink:href="#CMSS17-111"/>
     <use transform="translate(649.405351879 0.0)scale(0.996264009963)" xlink:href="#CMSS17-102"/>
     <use transform="translate(709.261123448 0.0)scale(0.996264009963)" xlink:href="#CMSS17-68"/>
     <use transform="translate(776.803965111 0.0)scale(0.996264009963)" xlink:href="#CMSS17-101"/>
     <use transform="translate(818.44278718 0.0)scale(0.996264009963)" xlink:href="#CMSS17-116"/>
     <use transform="translate(852.274353863 0.0)scale(0.996264009963)" xlink:href="#CMSS17-101"/>
     <use transform="translate(893.913175932 0.0)scale(0.996264009963)" xlink:href="#CMSS17-99"/>
     <use transform="translate(935.551998001 0.0)scale(0.996264009963)" xlink:href="#CMSS17-116"/>
     <use transform="translate(969.383564684 0.0)scale(0.996264009963)" xlink:href="#CMSS17-101"/>
     <use transform="translate(1011.02238675 0.0)scale(0.996264009963)" xlink:href="#CMSS17-100"/>
     <use transform="translate(1090.45644264 0.0)scale(0.996264009963)" xlink:href="#CMSS17-78"/>
     <use transform="translate(1156.51796182 0.0)scale(0.996264009963)" xlink:href="#CMSS17-101"/>
     <use transform="translate(1198.15678389 0.0)scale(0.996264009963)" xlink:href="#CMSS17-117"/>
     <use transform="translate(1246.36172702 0.0)scale(0.996264009963)" xlink:href="#CMSS17-116"/>
     <use transform="translate(1280.1932937 0.0)scale(0.996264009963)" xlink:href="#CMSS17-114"/>
     <use transform="translate(1312.10306626 0.0)scale(0.996264009963)" xlink:href="#CMSS17-111"/>
     <use transform="translate(1358.94668978 0.0)scale(0.996264009963)" xlink:href="#CMSS17-110"/>
     <use transform="translate(1438.38074567 0.0)scale(0.996264009963)" xlink:href="#CMSS17-83"/>
     <use transform="translate(1490.42926185 0.0)scale(0.996264009963)" xlink:href="#CMSS17-116"/>
     <use transform="translate(1524.26082853 0.0)scale(0.996264009963)" xlink:href="#CMSS17-97"/>
     <use transform="translate(1566.58029521 0.0)scale(0.996264009963)" xlink:href="#CMSS17-114"/>
     <use transform="translate(1598.49006776 0.0)scale(0.996264009963)" xlink:href="#CMSS17-115"/>
    </g>
   </g>
  </g>
 </g>
 <defs>
  <clipPath id="p80f560aa14">
   <rect height="345.6" width="446.4" x="72.0" y="43.2"/>
  </clipPath>
 </defs>
</svg>
