<?xml version="1.0" encoding="utf-8" standalone="no"?>
<!DOCTYPE svg PUBLIC "-//W3C//DTD SVG 1.1//EN"
  "http://www.w3.org/Graphics/SVG/1.1/DTD/svg11.dtd">
<!-- Created with matplotlib (http://matplotlib.org/) -->
<svg height="432pt" version="1.1" viewBox="0 0 576 432" width="576pt" xmlns="http://www.w3.org/2000/svg" xmlns:xlink="http://www.w3.org/1999/xlink">
 <defs>
  <style type="text/css">
*{stroke-linecap:butt;stroke-linejoin:round;stroke-miterlimit:100000;}
  </style>
 </defs>
 <g id="figure_1">
  <g id="patch_1">
   <path d="M 0 432 
L 576 432 
L 576 0 
L 0 0 
z
" style="fill:#ffffff;"/>
  </g>
  <g id="axes_1">
   <g id="patch_2">
    <path d="M 72 388.8 
L 518.4 388.8 
L 518.4 43.2 
L 72 43.2 
z
" style="fill:#eaeaf2;"/>
   </g>
   <g id="matplotlib.axis_1">
    <g id="xtick_1">
     <g id="line2d_1">
      <path clip-path="url(#p2ca6b2eda0)" d="M 72 388.8 
L 72 43.2 
" style="fill:none;stroke:#ffffff;stroke-linecap:round;"/>
     </g>
     <g id="line2d_2"/>
     <g id="line2d_3"/>
     <g id="text_1">
      <!-- $-10$ -->
      <defs>
       <path d="M 65.90625 23 
C 67.59375 23 69.40625 23 69.40625 25 
C 69.40625 27 67.59375 27 65.90625 27 
L 11.796875 27 
C 10.09375 27 8.296875 27 8.296875 25 
C 8.296875 23 10.09375 23 11.796875 23 
z
" id="CMSY10-0"/>
       <path d="M 26.59375 63.40625 
C 26.59375 65.5 26.5 65.5 25.09375 65.5 
C 21.203125 61.1875 15.296875 59.796875 9.703125 59.796875 
C 9.40625 59.796875 8.90625 59.796875 8.796875 59.5 
C 8.703125 59.296875 8.703125 59.09375 8.703125 57 
C 11.796875 57 17 57.59375 21 59.984375 
L 21 7.203125 
C 21 3.6875 20.796875 2.5 12.203125 2.5 
L 9.203125 2.5 
L 9.203125 0 
C 14 0 19 0 23.796875 0 
C 28.59375 0 33.59375 0 38.40625 0 
L 38.40625 2.5 
L 35.40625 2.5 
C 26.796875 2.5 26.59375 3.59375 26.59375 7.15625 
z
" id="CMR17-49"/>
       <path d="M 42 31.640625 
C 42 37.75 41.90625 48.125 37.703125 56.109375 
C 34 63.109375 28.09375 65.59375 22.90625 65.59375 
C 18.09375 65.59375 12 63.40625 8.203125 56.203125 
C 4.203125 48.71875 3.796875 39.4375 3.796875 31.640625 
C 3.796875 25.953125 3.90625 17.28125 7 9.671875 
C 11.296875 -0.609375 19 -2 22.90625 -2 
C 27.5 -2 34.5 -0.109375 38.59375 9.375 
C 41.59375 16.28125 42 24.359375 42 31.640625 
M 22.90625 -0.40625 
C 16.5 -0.40625 12.703125 5.078125 11.296875 12.6875 
C 10.203125 18.5625 10.203125 27.15625 10.203125 32.75 
C 10.203125 40.4375 10.203125 46.828125 11.5 52.921875 
C 13.40625 61.390625 19 64 22.90625 64 
C 27 64 32.296875 61.296875 34.203125 53.125 
C 35.5 47.4375 35.59375 40.734375 35.59375 32.75 
C 35.59375 26.25 35.59375 18.265625 34.40625 12.375 
C 32.296875 1.484375 26.40625 -0.40625 22.90625 -0.40625 
" id="CMR17-48"/>
      </defs>
      <g style="fill:#262626;" transform="translate(63.1442928861 402.71849838)scale(0.1 -0.1)">
       <use transform="scale(0.996264009963)" xlink:href="#CMSY10-0"/>
       <use transform="translate(77.4874676506 0.0)scale(0.996264009963)" xlink:href="#CMR17-49"/>
       <use transform="translate(123.177944768 0.0)scale(0.996264009963)" xlink:href="#CMR17-48"/>
      </g>
     </g>
    </g>
    <g id="xtick_2">
     <g id="line2d_4">
      <path clip-path="url(#p2ca6b2eda0)" d="M 121.6 388.8 
L 121.6 43.2 
" style="fill:none;stroke:#ffffff;stroke-linecap:round;"/>
     </g>
     <g id="line2d_5"/>
     <g id="line2d_6"/>
     <g id="text_2">
      <!-- $0$ -->
      <g style="fill:#262626;" transform="translate(119.109332374 402.71849838)scale(0.1 -0.1)">
       <use transform="scale(0.996264009963)" xlink:href="#CMR17-48"/>
      </g>
     </g>
    </g>
    <g id="xtick_3">
     <g id="line2d_7">
      <path clip-path="url(#p2ca6b2eda0)" d="M 171.2 388.8 
L 171.2 43.2 
" style="fill:none;stroke:#ffffff;stroke-linecap:round;"/>
     </g>
     <g id="line2d_8"/>
     <g id="line2d_9"/>
     <g id="text_3">
      <!-- $10$ -->
      <g style="fill:#262626;" transform="translate(166.218664748 402.71849838)scale(0.1 -0.1)">
       <use transform="scale(0.996264009963)" xlink:href="#CMR17-49"/>
       <use transform="translate(45.6904771171 0.0)scale(0.996264009963)" xlink:href="#CMR17-48"/>
      </g>
     </g>
    </g>
    <g id="xtick_4">
     <g id="line2d_10">
      <path clip-path="url(#p2ca6b2eda0)" d="M 220.8 388.8 
L 220.8 43.2 
" style="fill:none;stroke:#ffffff;stroke-linecap:round;"/>
     </g>
     <g id="line2d_11"/>
     <g id="line2d_12"/>
     <g id="text_4">
      <!-- $20$ -->
      <defs>
       <path d="M 41.703125 15.453125 
L 39.90625 15.453125 
C 38.90625 8.375 38.09375 7.171875 37.703125 6.5625 
C 37.203125 5.765625 30 5.765625 28.59375 5.765625 
L 9.40625 5.765625 
C 13 9.671875 20 16.75 28.5 24.953125 
C 34.59375 30.734375 41.703125 37.53125 41.703125 47.421875 
C 41.703125 59.21875 32.296875 66 21.796875 66 
C 10.796875 66 4.09375 56.3125 4.09375 47.34375 
C 4.09375 43.4375 7 42.9375 8.203125 42.9375 
C 9.203125 42.9375 12.203125 43.546875 12.203125 47.03125 
C 12.203125 50.109375 9.59375 51 8.203125 51 
C 7.59375 51 7 50.90625 6.59375 50.703125 
C 8.5 59.21875 14.296875 63.40625 20.40625 63.40625 
C 29.09375 63.40625 34.796875 56.515625 34.796875 47.421875 
C 34.796875 38.734375 29.703125 31.25 24 24.75 
L 4.09375 2.28125 
L 4.09375 0 
L 39.296875 0 
z
" id="CMR17-50"/>
      </defs>
      <g style="fill:#262626;" transform="translate(215.818664748 402.71849838)scale(0.1 -0.1)">
       <use transform="scale(0.996264009963)" xlink:href="#CMR17-50"/>
       <use transform="translate(45.6904771171 0.0)scale(0.996264009963)" xlink:href="#CMR17-48"/>
      </g>
     </g>
    </g>
    <g id="xtick_5">
     <g id="line2d_13">
      <path clip-path="url(#p2ca6b2eda0)" d="M 270.4 388.8 
L 270.4 43.2 
" style="fill:none;stroke:#ffffff;stroke-linecap:round;"/>
     </g>
     <g id="line2d_14"/>
     <g id="line2d_15"/>
     <g id="text_5">
      <!-- $30$ -->
      <defs>
       <path d="M 22.09375 33.703125 
C 31 33.703125 34.90625 25.96875 34.90625 17.03125 
C 34.90625 5 28.5 0.390625 22.703125 0.390625 
C 17.40625 0.390625 8.796875 3.03125 6.09375 10.828125 
C 6.59375 10.625 7.09375 10.625 7.59375 10.625 
C 10 10.625 11.796875 12.21875 11.796875 14.8125 
C 11.796875 17.703125 9.59375 19 7.59375 19 
C 5.90625 19 3.296875 18.203125 3.296875 14.46875 
C 3.296875 5.234375 12.296875 -2 22.90625 -2 
C 34 -2 42.5 6.71875 42.5 16.953125 
C 42.5 26.671875 34.5 33.703125 25 34.796875 
C 32.59375 36.375 39.90625 43.0625 39.90625 52.015625 
C 39.90625 59.6875 32 65.296875 23 65.296875 
C 13.90625 65.296875 5.90625 59.828125 5.90625 52.015625 
C 5.90625 48.59375 8.5 48 9.796875 48 
C 11.90625 48 13.703125 49.296875 13.703125 51.890625 
C 13.703125 54.46875 11.90625 55.765625 9.796875 55.765625 
C 9.40625 55.765625 8.90625 55.765625 8.5 55.578125 
C 11.40625 61.859375 19.296875 63 22.796875 63 
C 26.296875 63 32.90625 61.328125 32.90625 51.875 
C 32.90625 49.109375 32.5 44.1875 29.09375 39.84375 
C 26.09375 36 22.703125 36 19.40625 35.6875 
C 18.90625 35.6875 16.59375 35.453125 16.203125 35.453125 
C 15.5 35.359375 15.09375 35.265625 15.09375 34.5 
C 15.09375 33.796875 15.203125 33.703125 17.203125 33.703125 
z
" id="CMR17-51"/>
      </defs>
      <g style="fill:#262626;" transform="translate(265.418664748 402.71849838)scale(0.1 -0.1)">
       <use transform="scale(0.996264009963)" xlink:href="#CMR17-51"/>
       <use transform="translate(45.6904771171 0.0)scale(0.996264009963)" xlink:href="#CMR17-48"/>
      </g>
     </g>
    </g>
    <g id="xtick_6">
     <g id="line2d_16">
      <path clip-path="url(#p2ca6b2eda0)" d="M 320 388.8 
L 320 43.2 
" style="fill:none;stroke:#ffffff;stroke-linecap:round;"/>
     </g>
     <g id="line2d_17"/>
     <g id="line2d_18"/>
     <g id="text_6">
      <!-- $40$ -->
      <defs>
       <path d="M 33.59375 64.40625 
C 33.59375 66.5 33.5 66.5 31.703125 66.5 
L 2 19.59375 
L 2 17 
L 27.796875 17 
L 27.796875 7.140625 
C 27.796875 3.5 27.59375 2.5 20.59375 2.5 
L 18.703125 2.5 
L 18.703125 0 
C 21.90625 0 27.296875 0 30.703125 0 
C 34.09375 0 39.5 0 42.703125 0 
L 42.703125 2.5 
L 40.796875 2.5 
C 33.796875 2.5 33.59375 3.5 33.59375 7.140625 
L 33.59375 17 
L 43.796875 17 
L 43.796875 19.59375 
L 33.59375 19.59375 
z
M 28.09375 57.859375 
L 28.09375 19.59375 
L 4 19.59375 
z
" id="CMR17-52"/>
      </defs>
      <g style="fill:#262626;" transform="translate(315.018664748 402.71849838)scale(0.1 -0.1)">
       <use transform="scale(0.996264009963)" xlink:href="#CMR17-52"/>
       <use transform="translate(45.6904771171 0.0)scale(0.996264009963)" xlink:href="#CMR17-48"/>
      </g>
     </g>
    </g>
    <g id="xtick_7">
     <g id="line2d_19">
      <path clip-path="url(#p2ca6b2eda0)" d="M 369.6 388.8 
L 369.6 43.2 
" style="fill:none;stroke:#ffffff;stroke-linecap:round;"/>
     </g>
     <g id="line2d_20"/>
     <g id="line2d_21"/>
     <g id="text_7">
      <!-- $50$ -->
      <defs>
       <path d="M 11.40625 57.6875 
C 12.40625 57.28125 16.5 56 20.703125 56 
C 30 56 35.09375 61.109375 38 64.0625 
C 38 64.953125 38 65.5 37.40625 65.5 
C 37.296875 65.5 37.09375 65.5 36.296875 65.046875 
C 32.796875 63.40625 28.703125 62.078125 23.703125 62.078125 
C 20.703125 62.078125 16.203125 62.484375 11.296875 64.671875 
C 10.203125 65.171875 10 65.171875 9.90625 65.171875 
C 9.40625 65.171875 9.296875 65.0625 9.296875 63.078125 
L 9.296875 34.421875 
C 9.296875 32.640625 9.296875 32.140625 10.296875 32.140625 
C 10.796875 32.140625 11 32.34375 11.5 33.03125 
C 14.703125 37.515625 19.09375 39.40625 24.09375 39.40625 
C 27.59375 39.40625 35.09375 37.21875 35.09375 20.140625 
C 35.09375 16.953125 35.09375 11.171875 32.09375 6.578125 
C 29.59375 2.484375 25.703125 0.390625 21.40625 0.390625 
C 14.796875 0.390625 8.09375 5 6.296875 12.71875 
C 6.703125 12.609375 7.5 12.421875 7.90625 12.421875 
C 9.203125 12.421875 11.703125 13.125 11.703125 16.21875 
C 11.703125 18.90625 9.796875 20 7.90625 20 
C 5.59375 20 4.09375 18.59375 4.09375 15.796875 
C 4.09375 7.09375 11 -2 21.59375 -2 
C 31.90625 -2 41.703125 6.875 41.703125 19.75 
C 41.703125 31.71875 33.90625 41 24.203125 41 
C 19.09375 41 14.796875 39.109375 11.40625 35.53125 
z
" id="CMR17-53"/>
      </defs>
      <g style="fill:#262626;" transform="translate(364.618664748 402.71849838)scale(0.1 -0.1)">
       <use transform="scale(0.996264009963)" xlink:href="#CMR17-53"/>
       <use transform="translate(45.6904771171 0.0)scale(0.996264009963)" xlink:href="#CMR17-48"/>
      </g>
     </g>
    </g>
    <g id="xtick_8">
     <g id="line2d_22">
      <path clip-path="url(#p2ca6b2eda0)" d="M 419.2 388.8 
L 419.2 43.2 
" style="fill:none;stroke:#ffffff;stroke-linecap:round;"/>
     </g>
     <g id="line2d_23"/>
     <g id="line2d_24"/>
     <g id="text_8">
      <!-- $60$ -->
      <defs>
       <path d="M 10.59375 34 
C 10.59375 57.65625 21.796875 63 28.296875 63 
C 30.40625 63 35.5 62.640625 37.5 59 
C 35.90625 59 32.90625 59 32.90625 55.515625 
C 32.90625 52.828125 35.09375 51.921875 36.5 51.921875 
C 37.40625 51.921875 40.09375 52.3125 40.09375 55.625 
C 40.09375 61.78125 35.09375 65.296875 28.203125 65.296875 
C 16.296875 65.296875 3.796875 52.96875 3.796875 31 
C 3.796875 3.953125 15.09375 -2 23.09375 -2 
C 32.796875 -2 42 6.671875 42 20.046875 
C 42 32.515625 33.90625 41.59375 23.703125 41.59375 
C 17.59375 41.59375 13.09375 37.609375 10.59375 30.625 
z
M 23.09375 0.390625 
C 10.796875 0.390625 10.796875 18.75 10.796875 22.4375 
C 10.796875 29.625 14.203125 40 23.5 40 
C 25.203125 40 30.09375 40 33.40625 33.125 
C 35.203125 29.21875 35.203125 25.140625 35.203125 20.140625 
C 35.203125 14.75 35.203125 10.78125 33.09375 6.78125 
C 30.90625 2.671875 27.703125 0.390625 23.09375 0.390625 
" id="CMR17-54"/>
      </defs>
      <g style="fill:#262626;" transform="translate(414.218664748 402.71849838)scale(0.1 -0.1)">
       <use transform="scale(0.996264009963)" xlink:href="#CMR17-54"/>
       <use transform="translate(45.6904771171 0.0)scale(0.996264009963)" xlink:href="#CMR17-48"/>
      </g>
     </g>
    </g>
    <g id="xtick_9">
     <g id="line2d_25">
      <path clip-path="url(#p2ca6b2eda0)" d="M 468.8 388.8 
L 468.8 43.2 
" style="fill:none;stroke:#ffffff;stroke-linecap:round;"/>
     </g>
     <g id="line2d_26"/>
     <g id="line2d_27"/>
     <g id="text_9">
      <!-- $70$ -->
      <defs>
       <path d="M 45.09375 61.578125 
L 45.09375 63.765625 
L 21.59375 63.765625 
C 9.90625 63.765625 9.703125 65.078125 9.296875 67 
L 7.5 67 
L 4.59375 48.34375 
L 6.40625 48.34375 
C 6.703125 50.234375 7.40625 55.3125 8.59375 57.203125 
C 9.203125 58 16.59375 58 18.296875 58 
L 40.296875 58 
L 29.203125 41.578125 
C 21.796875 30.53125 16.703125 15.609375 16.703125 2.578125 
C 16.703125 1.390625 16.703125 -2 20.296875 -2 
C 23.90625 -2 23.90625 1.390625 23.90625 2.671875 
L 23.90625 7.265625 
C 23.90625 23.5625 26.703125 34.3125 31.296875 41.1875 
z
" id="CMR17-55"/>
      </defs>
      <g style="fill:#262626;" transform="translate(463.818664748 402.71849838)scale(0.1 -0.1)">
       <use transform="scale(0.996264009963)" xlink:href="#CMR17-55"/>
       <use transform="translate(45.6904771171 0.0)scale(0.996264009963)" xlink:href="#CMR17-48"/>
      </g>
     </g>
    </g>
    <g id="xtick_10">
     <g id="line2d_28">
      <path clip-path="url(#p2ca6b2eda0)" d="M 518.4 388.8 
L 518.4 43.2 
" style="fill:none;stroke:#ffffff;stroke-linecap:round;"/>
     </g>
     <g id="line2d_29"/>
     <g id="line2d_30"/>
     <g id="text_10">
      <!-- $80$ -->
      <defs>
       <path d="M 27.203125 35.375 
C 33.5 38.546875 39.90625 43.328125 39.90625 50.984375 
C 39.90625 60.015625 31.09375 65.296875 23 65.296875 
C 13.90625 65.296875 5.90625 58.734375 5.90625 49.6875 
C 5.90625 47.203125 6.5 42.921875 10.40625 39.140625 
C 11.40625 38.15625 15.59375 35.171875 18.296875 33.28125 
C 13.796875 30.984375 3.296875 25.53125 3.296875 14.59375 
C 3.296875 4.359375 13.09375 -2 22.796875 -2 
C 33.5 -2 42.5 5.65625 42.5 15.78125 
C 42.5 24.84375 36.40625 29.015625 32.40625 31.703125 
z
M 14.09375 44.09375 
C 13.296875 44.59375 9.296875 47.671875 9.296875 52.359375 
C 9.296875 58.421875 15.59375 63 22.796875 63 
C 30.703125 63 36.5 57.4375 36.5 50.96875 
C 36.5 41.703125 26.09375 36.421875 25.59375 36.421875 
C 25.5 36.421875 25.40625 36.421875 24.59375 37.03125 
z
M 32.5 23.734375 
C 34 22.640625 38.796875 19.375 38.796875 13.296875 
C 38.796875 5.953125 31.40625 0.390625 23 0.390625 
C 13.90625 0.390625 7 6.84375 7 14.6875 
C 7 22.546875 13.09375 29.09375 20 32.1875 
z
" id="CMR17-56"/>
      </defs>
      <g style="fill:#262626;" transform="translate(513.418664748 402.71849838)scale(0.1 -0.1)">
       <use transform="scale(0.996264009963)" xlink:href="#CMR17-56"/>
       <use transform="translate(45.6904771171 0.0)scale(0.996264009963)" xlink:href="#CMR17-48"/>
      </g>
     </g>
    </g>
    <g id="text_11">
     <!-- Black Hole mass ($M_{\odot}$) -->
     <defs>
      <path d="M 32.203125 41.046875 
C 26.296875 43.859375 21.703125 43.859375 18.703125 43.859375 
C 11.59375 43.859375 3.09375 41.375 3.09375 31.296875 
C 3.09375 21.234375 14.09375 19.03125 17.09375 18.421875 
C 21.703125 17.53125 26.796875 16.53125 26.796875 11.5625 
C 26.796875 5.265625 19.59375 5.265625 18.296875 5.265625 
C 14.296875 5.265625 8.796875 6.359375 3.796875 9.96875 
L 2.59375 3.28125 
C 8.296875 0 13.796875 -1 18.40625 -1 
C 30.703125 -1 33.796875 6.5 33.796875 12.203125 
C 33.796875 17.09375 31 20.390625 29.09375 21.890625 
C 25.796875 24.5 24.59375 24.796875 16.40625 26.5 
C 15 26.703125 10.09375 27.796875 10.09375 32.28125 
C 10.09375 38 16.40625 38 17.796875 38 
C 24.296875 38 28.296875 35.984375 31 34.5 
z
" id="CMSS17-115"/>
      <path d="M 26.5 26.375 
L 42 42.796875 
L 32.40625 42.796875 
L 14.90625 24.28125 
L 14.90625 69 
L 7.5 69 
L 7.5 0 
L 14.796875 0 
L 14.796875 13.9375 
L 21.5 21 
L 35.59375 0 
L 44.09375 0 
z
" id="CMSS17-107"/>
      <path d="M 25.203125 74.5 
C 19.796875 69.015625 7.40625 56.265625 7.40625 24.8125 
C 7.40625 -6.765625 19.796875 -19.421875 25.203125 -25 
L 31.296875 -25 
C 19 -12.25 15 5.578125 15 24.703125 
C 15 43.71875 18.796875 61.65625 31.296875 74.5 
z
" id="CMSS17-40"/>
      <path d="M 11.296875 -25 
C 16.703125 -19.515625 29.09375 -6.765625 29.09375 24.703125 
C 29.09375 56.265625 16.703125 68.921875 11.296875 74.5 
L 5.203125 74.5 
C 17.5 61.75 21.5 43.921875 21.5 24.8125 
C 21.5 5.78125 17.703125 -12.15625 5.203125 -25 
z
" id="CMSS17-41"/>
      <path d="M 44.203125 21.1875 
C 44.203125 34 34.703125 44 23.5 44 
C 12 44 2.703125 33.703125 2.703125 21.1875 
C 2.703125 8.5 12.296875 -1 23.40625 -1 
C 34.796875 -1 44.203125 8.796875 44.203125 21.1875 
M 23.5 5.265625 
C 16.40625 5.265625 10.296875 11.078125 10.296875 22 
C 10.296875 33.609375 17.40625 37.921875 23.40625 37.921875 
C 29.90625 37.921875 36.59375 33.21875 36.59375 22 
C 36.59375 10.671875 30.09375 5.265625 23.5 5.265625 
" id="CMSS17-111"/>
      <path d="M 57.40625 69 
L 49 69 
L 49 39.078125 
L 17.203125 39.078125 
L 17.203125 69 
L 8.796875 69 
L 8.796875 0 
L 17.203125 0 
L 17.203125 33 
L 49 33 
L 49 0 
L 57.40625 0 
z
" id="CMSS17-72"/>
      <path d="M 39.09375 21.515625 
C 39.09375 24.84375 38.90625 31.296875 35.703125 36.640625 
C 32.203125 42.390625 26.5 44 22.203125 44 
C 11.796875 44 3 34.1875 3 21.484375 
C 3 9.09375 12.09375 -1 23.59375 -1 
C 28.09375 -1 33.59375 0.296875 38.59375 3.875 
C 38.59375 4.28125 38.40625 6.46875 38.296875 6.5625 
C 38.296875 6.765625 38 9.84375 38 10.25 
C 33.203125 6.359375 27.703125 5.078125 23.703125 5.078125 
C 17.296875 5.078125 10.40625 10.421875 10.09375 21.515625 
z
M 10.90625 27 
C 12.203125 32.5625 16.59375 37.828125 22.203125 37.828125 
C 23.703125 37.828125 30.703125 37.828125 32.5 27 
z
" id="CMSS17-101"/>
      <path d="M 90.796875 60.71875 
C 91.703125 64.109375 91.90625 65.109375 99 65.109375 
C 100.90625 65.109375 101.796875 65.109375 101.796875 67 
C 101.796875 68 101.09375 68 99.203125 68 
L 87.203125 68 
C 84.703125 68 84.59375 67.90625 83.5 66.296875 
L 47 8.78125 
L 39.5 65.796875 
C 39.203125 68 39.09375 68 36.5 68 
L 24.09375 68 
C 22.203125 68 21.296875 68 21.296875 66.109375 
C 21.296875 65.109375 22.203125 65.109375 23.703125 65.109375 
C 29.796875 65.109375 29.796875 64.3125 29.796875 63.21875 
C 29.796875 63.03125 29.796875 62.421875 29.40625 60.921875 
L 16.59375 9.90625 
C 15.40625 5.109375 13.09375 2.90625 6.40625 2.90625 
C 6.09375 2.90625 4.90625 2.90625 4.90625 1.140625 
C 4.90625 0 5.796875 0 6.203125 0 
C 8.203125 0 13.296875 0 15.296875 0 
L 20.09375 0 
C 21.5 0 23.203125 0 24.59375 0 
C 25.296875 0 26.40625 0 26.40625 1.90625 
C 26.40625 2.8125 25.40625 2.90625 25 2.90625 
C 21.703125 2.90625 18.5 3.5 18.5 7.09375 
C 18.5 8.09375 18.5 8.1875 18.90625 9.578125 
L 32.703125 64.515625 
L 32.796875 64.515625 
L 41.09375 2.6875 
C 41.40625 0.296875 41.5 0 42.40625 0 
C 43.5 0 44 0.796875 44.5 1.703125 
L 84.703125 65.015625 
L 84.796875 65.015625 
L 70.296875 7.390625 
C 69.40625 3.90625 69.203125 2.90625 62.203125 2.90625 
C 60.296875 2.90625 59.296875 2.90625 59.296875 1.09375 
C 59.296875 0 60.203125 0 60.796875 0 
C 62.5 0 64.5 0 66.203125 0 
L 78 0 
C 79.703125 0 81.796875 0 83.5 0 
C 84.296875 0 85.40625 0 85.40625 1.90625 
C 85.40625 2.90625 84.5 2.90625 83 2.90625 
C 76.90625 2.90625 76.90625 3.65625 76.90625 4.59375 
C 76.90625 4.703125 76.90625 5.390625 77.09375 6.1875 
z
" id="CMMI12-77"/>
      <path d="M 14.796875 69 
L 7.40625 69 
L 7.40625 0 
L 14.796875 0 
z
" id="CMSS17-108"/>
      <path d="M 67 29.328125 
C 67 36.0625 65.296875 44 54.09375 44 
C 46.59375 44 42.09375 39.3125 40.09375 36.421875 
C 38.296875 41.71875 34.09375 44 28.09375 44 
C 21.296875 44 17 40.125 14.703125 37.328125 
L 14.703125 43.09375 
L 7.40625 43.09375 
L 7.40625 0 
L 15 0 
L 15 24.359375 
C 15 30.296875 17.203125 37.9375 24.296875 37.9375 
C 33.40625 37.9375 33.40625 31.5 33.40625 28.578125 
L 33.40625 0 
L 41 0 
L 41 24.359375 
C 41 30.296875 43.203125 37.9375 50.296875 37.9375 
C 59.40625 37.9375 59.40625 31.5 59.40625 28.578125 
L 59.40625 0 
L 67 0 
z
" id="CMSS17-109"/>
      <path d="M 72.21875 25 
C 72.21875 43.4375 57.21875 58.359375 38.90625 58.359375 
C 20.3125 58.359375 5.5 43.234375 5.5 25 
C 5.5 6.5625 20.5 -8.359375 38.8125 -8.359375 
C 57.421875 -8.359375 72.21875 6.765625 72.21875 25 
M 38.90625 -5.859375 
C 21.703125 -5.859375 8 8.0625 8 25 
C 8 42.234375 22 55.859375 38.8125 55.859375 
C 56.015625 55.859375 69.71875 41.9375 69.71875 25 
C 69.71875 7.765625 55.71875 -5.859375 38.90625 -5.859375 
M 45.703125 25 
C 45.703125 28.796875 42.59375 31.90625 38.90625 31.90625 
C 34.90625 31.90625 32 28.59375 32 25 
C 32 21.203125 35.09375 18.09375 38.796875 18.09375 
C 42.796875 18.09375 45.703125 21.40625 45.703125 25 
" id="CMSY10-12"/>
      <path d="M 37.59375 27.984375 
C 37.59375 37.375 30.90625 43.875 21.90625 43.875 
C 17.5 43.875 12.703125 43.078125 7.203125 39.890625 
L 7.796875 33.359375 
C 10.296875 35.125 14.59375 38 21.796875 38 
C 26.90625 38 30 34.0625 30 27.84375 
L 30 24 
C 14 24 4 19.34375 4 11.34375 
C 4 7.203125 6.5 -1 14.796875 -1 
C 16.296875 -1 24.40625 -1 30.203125 3.390625 
L 30.203125 -0.296875 
L 37.59375 -0.296875 
z
M 30 12.75 
C 30 10.953125 30 8.5625 27 6.78125 
C 24.40625 5.078125 21.09375 5.078125 19.703125 5.078125 
C 14.703125 5.078125 11.296875 7.984375 11.296875 11.625 
C 11.296875 18.921875 26.90625 18.921875 30 18.921875 
z
" id="CMSS17-97"/>
      <path d="M 38.5 39.703125 
C 38.5 40.390625 33.90625 42.40625 32.703125 42.796875 
C 29.40625 44 25.203125 44 24.09375 44 
C 11.09375 44 3.296875 32.703125 3.296875 21.296875 
C 3.296875 9.296875 12 -1 23.703125 -1 
C 30.40625 -1 35.203125 1.1875 39.09375 3.78125 
L 38.5 10.375 
C 34.203125 7.078125 29.203125 5.265625 23.796875 5.265625 
C 16 5.265625 10.90625 12.09375 10.90625 21.390625 
C 10.90625 28.609375 14.203125 37.71875 24.203125 37.71875 
C 29.703125 37.71875 32.796875 36.609375 37.40625 33.515625 
z
" id="CMSS17-99"/>
      <path d="M 8.90625 69 
L 8.90625 0 
L 33.796875 0 
C 47.40625 0 57.296875 8.96875 57.296875 18.75 
C 57.296875 26.328125 50.796875 34 39.09375 36.203125 
C 52.09375 39.96875 54.703125 47.5 54.703125 51.765625 
C 54.703125 60.671875 44.90625 69 31.203125 69 
z
M 17 39 
L 17 63.421875 
L 28.5 63.421875 
C 38.796875 63.421875 46.90625 58.1875 46.90625 51.65625 
C 46.90625 45.71875 40.5 39 27.59375 39 
z
M 17 5.578125 
L 17 32.921875 
L 30.296875 32.921875 
C 41.09375 32.921875 49.40625 26.234375 49.40625 18.84375 
C 49.40625 12.0625 42.09375 5.578125 31 5.578125 
z
" id="CMSS17-66"/>
     </defs>
     <g style="fill:#262626;" transform="translate(242.207293511 418.483686177)scale(0.11 -0.11)">
      <use transform="translate(0.0 14.9439145441)scale(0.996264009963)" xlink:href="#CMSS17-66"/>
      <use transform="translate(62.3380402105 14.9439145441)scale(0.996264009963)" xlink:href="#CMSS17-108"/>
      <use transform="translate(84.518763256 14.9439145441)scale(0.996264009963)" xlink:href="#CMSS17-97"/>
      <use transform="translate(129.440683861 14.9439145441)scale(0.996264009963)" xlink:href="#CMSS17-99"/>
      <use transform="translate(171.07950593 14.9439145441)scale(0.996264009963)" xlink:href="#CMSS17-107"/>
      <use transform="translate(247.911107882 14.9439145441)scale(0.996264009963)" xlink:href="#CMSS17-72"/>
      <use transform="translate(313.972627063 14.9439145441)scale(0.996264009963)" xlink:href="#CMSS17-111"/>
      <use transform="translate(360.816250584 14.9439145441)scale(0.996264009963)" xlink:href="#CMSS17-108"/>
      <use transform="translate(382.996973629 14.9439145441)scale(0.996264009963)" xlink:href="#CMSS17-101"/>
      <use transform="translate(455.864908449 14.9439145441)scale(0.996264009963)" xlink:href="#CMSS17-109"/>
      <use transform="translate(530.09416288 14.9439145441)scale(0.996264009963)" xlink:href="#CMSS17-97"/>
      <use transform="translate(575.016083486 14.9439145441)scale(0.996264009963)" xlink:href="#CMSS17-115"/>
      <use transform="translate(610.929625477 14.9439145441)scale(0.996264009963)" xlink:href="#CMSS17-115"/>
      <use transform="translate(678.072280219 14.9439145441)scale(0.996264009963)" xlink:href="#CMSS17-40"/>
      <use transform="translate(714.506194422 14.9439145441)scale(0.996264009963)" xlink:href="#CMMI12-77"/>
      <use transform="translate(808.879619518 0.0)scale(0.697381766617)" xlink:href="#CMSY10-12"/>
      <use transform="translate(863.618744771 14.9439145441)scale(0.996264009963)" xlink:href="#CMSS17-41"/>
     </g>
    </g>
   </g>
   <g id="matplotlib.axis_2">
    <g id="ytick_1">
     <g id="line2d_31">
      <path clip-path="url(#p2ca6b2eda0)" d="M 72 388.8 
L 518.4 388.8 
" style="fill:none;stroke:#ffffff;stroke-linecap:round;"/>
     </g>
     <g id="line2d_32"/>
     <g id="line2d_33"/>
     <g id="text_12">
      <!-- $-0.02$ -->
      <defs>
       <path d="M 18.40625 4.796875 
C 18.40625 7.6875 16 9.671875 13.59375 9.671875 
C 10.703125 9.671875 8.703125 7.28125 8.703125 4.890625 
C 8.703125 2 11.09375 0 13.5 0 
C 16.40625 0 18.40625 2.390625 18.40625 4.796875 
" id="CMMI12-58"/>
      </defs>
      <g style="fill:#262626;" transform="translate(39.5398420474 391.290660025)scale(0.1 -0.1)">
       <use transform="scale(0.996264009963)" xlink:href="#CMSY10-0"/>
       <use transform="translate(77.4874676506 0.0)scale(0.996264009963)" xlink:href="#CMR17-48"/>
       <use transform="translate(123.177944768 0.0)scale(0.996264009963)" xlink:href="#CMMI12-58"/>
       <use transform="translate(150.275121857 0.0)scale(0.996264009963)" xlink:href="#CMR17-48"/>
       <use transform="translate(195.965598975 0.0)scale(0.996264009963)" xlink:href="#CMR17-50"/>
      </g>
     </g>
    </g>
    <g id="ytick_2">
     <g id="line2d_34">
      <path clip-path="url(#p2ca6b2eda0)" d="M 72 339.428571 
L 518.4 339.428571 
" style="fill:none;stroke:#ffffff;stroke-linecap:round;"/>
     </g>
     <g id="line2d_35"/>
     <g id="line2d_36"/>
     <g id="text_13">
      <!-- $0.00$ -->
      <g style="fill:#262626;" transform="translate(47.2885857721 341.919231453)scale(0.1 -0.1)">
       <use transform="scale(0.996264009963)" xlink:href="#CMR17-48"/>
       <use transform="translate(45.6904771171 0.0)scale(0.996264009963)" xlink:href="#CMMI12-58"/>
       <use transform="translate(72.7876542069 0.0)scale(0.996264009963)" xlink:href="#CMR17-48"/>
       <use transform="translate(118.478131324 0.0)scale(0.996264009963)" xlink:href="#CMR17-48"/>
      </g>
     </g>
    </g>
    <g id="ytick_3">
     <g id="line2d_37">
      <path clip-path="url(#p2ca6b2eda0)" d="M 72 290.057143 
L 518.4 290.057143 
" style="fill:none;stroke:#ffffff;stroke-linecap:round;"/>
     </g>
     <g id="line2d_38"/>
     <g id="line2d_39"/>
     <g id="text_14">
      <!-- $0.02$ -->
      <g style="fill:#262626;" transform="translate(47.2885857721 292.547802882)scale(0.1 -0.1)">
       <use transform="scale(0.996264009963)" xlink:href="#CMR17-48"/>
       <use transform="translate(45.6904771171 0.0)scale(0.996264009963)" xlink:href="#CMMI12-58"/>
       <use transform="translate(72.7876542069 0.0)scale(0.996264009963)" xlink:href="#CMR17-48"/>
       <use transform="translate(118.478131324 0.0)scale(0.996264009963)" xlink:href="#CMR17-50"/>
      </g>
     </g>
    </g>
    <g id="ytick_4">
     <g id="line2d_40">
      <path clip-path="url(#p2ca6b2eda0)" d="M 72 240.685714 
L 518.4 240.685714 
" style="fill:none;stroke:#ffffff;stroke-linecap:round;"/>
     </g>
     <g id="line2d_41"/>
     <g id="line2d_42"/>
     <g id="text_15">
      <!-- $0.04$ -->
      <g style="fill:#262626;" transform="translate(47.2885857721 243.176374311)scale(0.1 -0.1)">
       <use transform="scale(0.996264009963)" xlink:href="#CMR17-48"/>
       <use transform="translate(45.6904771171 0.0)scale(0.996264009963)" xlink:href="#CMMI12-58"/>
       <use transform="translate(72.7876542069 0.0)scale(0.996264009963)" xlink:href="#CMR17-48"/>
       <use transform="translate(118.478131324 0.0)scale(0.996264009963)" xlink:href="#CMR17-52"/>
      </g>
     </g>
    </g>
    <g id="ytick_5">
     <g id="line2d_43">
      <path clip-path="url(#p2ca6b2eda0)" d="M 72 191.314286 
L 518.4 191.314286 
" style="fill:none;stroke:#ffffff;stroke-linecap:round;"/>
     </g>
     <g id="line2d_44"/>
     <g id="line2d_45"/>
     <g id="text_16">
      <!-- $0.06$ -->
      <g style="fill:#262626;" transform="translate(47.2885857721 193.804945739)scale(0.1 -0.1)">
       <use transform="scale(0.996264009963)" xlink:href="#CMR17-48"/>
       <use transform="translate(45.6904771171 0.0)scale(0.996264009963)" xlink:href="#CMMI12-58"/>
       <use transform="translate(72.7876542069 0.0)scale(0.996264009963)" xlink:href="#CMR17-48"/>
       <use transform="translate(118.478131324 0.0)scale(0.996264009963)" xlink:href="#CMR17-54"/>
      </g>
     </g>
    </g>
    <g id="ytick_6">
     <g id="line2d_46">
      <path clip-path="url(#p2ca6b2eda0)" d="M 72 141.942857 
L 518.4 141.942857 
" style="fill:none;stroke:#ffffff;stroke-linecap:round;"/>
     </g>
     <g id="line2d_47"/>
     <g id="line2d_48"/>
     <g id="text_17">
      <!-- $0.08$ -->
      <g style="fill:#262626;" transform="translate(47.2885857721 144.433517168)scale(0.1 -0.1)">
       <use transform="scale(0.996264009963)" xlink:href="#CMR17-48"/>
       <use transform="translate(45.6904771171 0.0)scale(0.996264009963)" xlink:href="#CMMI12-58"/>
       <use transform="translate(72.7876542069 0.0)scale(0.996264009963)" xlink:href="#CMR17-48"/>
       <use transform="translate(118.478131324 0.0)scale(0.996264009963)" xlink:href="#CMR17-56"/>
      </g>
     </g>
    </g>
    <g id="ytick_7">
     <g id="line2d_49">
      <path clip-path="url(#p2ca6b2eda0)" d="M 72 92.571429 
L 518.4 92.571429 
" style="fill:none;stroke:#ffffff;stroke-linecap:round;"/>
     </g>
     <g id="line2d_50"/>
     <g id="line2d_51"/>
     <g id="text_18">
      <!-- $0.10$ -->
      <g style="fill:#262626;" transform="translate(47.2885857721 95.0620885963)scale(0.1 -0.1)">
       <use transform="scale(0.996264009963)" xlink:href="#CMR17-48"/>
       <use transform="translate(45.6904771171 0.0)scale(0.996264009963)" xlink:href="#CMMI12-58"/>
       <use transform="translate(72.7876542069 0.0)scale(0.996264009963)" xlink:href="#CMR17-49"/>
       <use transform="translate(118.478131324 0.0)scale(0.996264009963)" xlink:href="#CMR17-48"/>
      </g>
     </g>
    </g>
    <g id="ytick_8">
     <g id="line2d_52">
      <path clip-path="url(#p2ca6b2eda0)" d="M 72 43.2 
L 518.4 43.2 
" style="fill:none;stroke:#ffffff;stroke-linecap:round;"/>
     </g>
     <g id="line2d_53"/>
     <g id="line2d_54"/>
     <g id="text_19">
      <!-- $0.12$ -->
      <g style="fill:#262626;" transform="translate(47.2885857721 45.6906600249)scale(0.1 -0.1)">
       <use transform="scale(0.996264009963)" xlink:href="#CMR17-48"/>
       <use transform="translate(45.6904771171 0.0)scale(0.996264009963)" xlink:href="#CMMI12-58"/>
       <use transform="translate(72.7876542069 0.0)scale(0.996264009963)" xlink:href="#CMR17-49"/>
       <use transform="translate(118.478131324 0.0)scale(0.996264009963)" xlink:href="#CMR17-50"/>
      </g>
     </g>
    </g>
   </g>
   <g id="PathCollection_1">
    <defs>
     <path d="M -2.236068 2.236068 
L 2.236068 -2.236068 
M -2.236068 -2.236068 
L 2.236068 2.236068 
" id="ma5aff4184c" style="stroke:#000000;stroke-width:0.3;"/>
    </defs>
    <g clip-path="url(#p2ca6b2eda0)">
     <use style="stroke:#000000;stroke-width:0.3;" x="159.048" xlink:href="#ma5aff4184c" y="339.428571429"/>
     <use style="stroke:#000000;stroke-width:0.3;" x="173.68" xlink:href="#ma5aff4184c" y="339.428571429"/>
     <use style="stroke:#000000;stroke-width:0.3;" x="154.088" xlink:href="#ma5aff4184c" y="339.428571429"/>
     <use style="stroke:#000000;stroke-width:0.3;" x="173.184" xlink:href="#ma5aff4184c" y="339.428571429"/>
     <use style="stroke:#000000;stroke-width:0.3;" x="163.76" xlink:href="#ma5aff4184c" y="339.428571429"/>
     <use style="stroke:#000000;stroke-width:0.3;" x="145.904" xlink:href="#ma5aff4184c" y="339.428571429"/>
     <use style="stroke:#000000;stroke-width:0.3;" x="156.32" xlink:href="#ma5aff4184c" y="339.428571429"/>
     <use style="stroke:#000000;stroke-width:0.3;" x="153.344" xlink:href="#ma5aff4184c" y="339.428571429"/>
     <use style="stroke:#000000;stroke-width:0.3;" x="154.336" xlink:href="#ma5aff4184c" y="339.428571429"/>
     <use style="stroke:#000000;stroke-width:0.3;" x="146.896" xlink:href="#ma5aff4184c" y="339.428571429"/>
     <use style="stroke:#000000;stroke-width:0.3;" x="159.792" xlink:href="#ma5aff4184c" y="339.428571429"/>
     <use style="stroke:#000000;stroke-width:0.3;" x="181.12" xlink:href="#ma5aff4184c" y="339.428571429"/>
     <use style="stroke:#000000;stroke-width:0.3;" x="156.072" xlink:href="#ma5aff4184c" y="339.428571429"/>
     <use style="stroke:#000000;stroke-width:0.3;" x="185.584" xlink:href="#ma5aff4184c" y="339.428571429"/>
     <use style="stroke:#000000;stroke-width:0.3;" x="159.296" xlink:href="#ma5aff4184c" y="339.428571429"/>
     <use style="stroke:#000000;stroke-width:0.3;" x="147.9376" xlink:href="#ma5aff4184c" y="339.428571429"/>
     <use style="stroke:#000000;stroke-width:0.3;" x="146.896" xlink:href="#ma5aff4184c" y="339.428571429"/>
     <use style="stroke:#000000;stroke-width:0.3;" x="172.2664" xlink:href="#ma5aff4184c" y="339.428571429"/>
     <use style="stroke:#000000;stroke-width:0.3;" x="195.008" xlink:href="#ma5aff4184c" y="339.428571429"/>
     <use style="stroke:#000000;stroke-width:0.3;" x="175.7136" xlink:href="#ma5aff4184c" y="339.428571429"/>
     <use style="stroke:#000000;stroke-width:0.3;" x="156.32" xlink:href="#ma5aff4184c" y="339.428571429"/>
     <use style="stroke:#000000;stroke-width:0.3;" x="236.176" xlink:href="#ma5aff4184c" y="339.428571429"/>
     <use style="stroke:#000000;stroke-width:0.3;" x="220.8" xlink:href="#ma5aff4184c" y="339.428571429"/>
     <use style="stroke:#000000;stroke-width:0.3;" x="199.224" xlink:href="#ma5aff4184c" y="339.428571429"/>
     <use style="stroke:#000000;stroke-width:0.3;" x="300.16" xlink:href="#ma5aff4184c" y="339.428571429"/>
     <use style="stroke:#000000;stroke-width:0.3;" x="265.44" xlink:href="#ma5aff4184c" y="339.428571429"/>
     <use style="stroke:#000000;stroke-width:0.3;" x="429.12" xlink:href="#ma5aff4184c" y="339.428571429"/>
     <use style="stroke:#000000;stroke-width:0.3;" x="235.68" xlink:href="#ma5aff4184c" y="339.428571429"/>
     <use style="stroke:#000000;stroke-width:0.3;" x="186.08" xlink:href="#ma5aff4184c" y="339.428571429"/>
     <use style="stroke:#000000;stroke-width:0.3;" x="305.12" xlink:href="#ma5aff4184c" y="339.428571429"/>
     <use style="stroke:#000000;stroke-width:0.3;" x="192.032" xlink:href="#ma5aff4184c" y="339.428571429"/>
     <use style="stroke:#000000;stroke-width:0.3;" x="158.8" xlink:href="#ma5aff4184c" y="339.428571429"/>
     <use style="stroke:#000000;stroke-width:0.3;" x="224.768" xlink:href="#ma5aff4184c" y="339.428571429"/>
     <use style="stroke:#000000;stroke-width:0.3;" x="276.352" xlink:href="#ma5aff4184c" y="339.428571429"/>
     <use style="stroke:#000000;stroke-width:0.3;" x="217.824" xlink:href="#ma5aff4184c" y="339.428571429"/>
     <use style="stroke:#000000;stroke-width:0.3;" x="363.152" xlink:href="#ma5aff4184c" y="339.428571429"/>
     <use style="stroke:#000000;stroke-width:0.3;" x="280.32" xlink:href="#ma5aff4184c" y="339.428571429"/>
     <use style="stroke:#000000;stroke-width:0.3;" x="243.12" xlink:href="#ma5aff4184c" y="339.428571429"/>
     <use style="stroke:#000000;stroke-width:0.3;" x="386.96" xlink:href="#ma5aff4184c" y="339.428571429"/>
    </g>
   </g>
   <g id="line2d_55">
    <path clip-path="url(#p2ca6b2eda0)" d="M 121.6 339.428284 
L 128.203403 339.334272 
L 129.941141 339.104017 
L 130.983784 338.785361 
L 132.026426 338.207565 
L 132.721522 337.600758 
L 133.416617 336.743972 
L 134.111712 335.559676 
L 134.806807 333.957335 
L 135.501902 331.835566 
L 136.196997 329.086231 
L 136.892092 325.600577 
L 137.587187 321.27733 
L 138.62983 313.04475 
L 139.672472 302.58401 
L 140.715115 289.936441 
L 142.105305 270.17928 
L 144.538138 231.284426 
L 147.318519 187.635769 
L 150.793994 137.280628 
L 152.879279 109.362262 
L 153.921922 97.94441 
L 154.617017 92.065079 
L 155.312112 88.004481 
L 155.65966 86.761484 
L 156.007207 86.091148 
L 156.354755 86.022282 
L 156.702302 86.577013 
L 157.04985 87.770061 
L 157.397397 89.608189 
L 158.092492 95.204881 
L 158.787588 103.252354 
L 159.83023 119.345085 
L 161.22042 146.139544 
L 164.000801 202.059951 
L 165.043443 218.554743 
L 165.738539 227.202158 
L 166.433634 233.779257 
L 167.128729 238.262184 
L 167.823824 240.748654 
L 168.171371 241.304456 
L 168.518919 241.44701 
L 168.866466 241.216643 
L 169.214014 240.657955 
L 169.909109 238.749921 
L 170.951752 234.682196 
L 172.341942 229.103744 
L 173.037037 227.005784 
L 173.732132 225.677323 
L 174.07968 225.340766 
L 174.427227 225.231103 
L 174.774775 225.347144 
L 175.122322 225.682083 
L 175.817417 226.956421 
L 176.512513 228.908778 
L 177.555155 232.678401 
L 179.64044 240.672252 
L 180.683083 243.822349 
L 181.725726 246.10564 
L 182.420821 247.18302 
L 183.463463 248.30874 
L 185.201201 249.630508 
L 186.591391 250.848391 
L 187.981582 252.472151 
L 189.719319 254.947137 
L 191.804605 258.305399 
L 193.194795 260.995819 
L 194.237437 263.530196 
L 195.28008 266.727364 
L 196.322723 270.741846 
L 197.365365 275.641746 
L 198.755556 283.461954 
L 200.840841 297.006366 
L 203.273674 312.600301 
L 204.663864 319.8879 
L 205.706507 324.092505 
L 206.401602 326.190078 
L 207.096697 327.676596 
L 207.791792 328.523653 
L 208.139339 328.701055 
L 208.486887 328.712111 
L 208.834434 328.555822 
L 209.181982 328.231779 
L 209.877077 327.081974 
L 210.572172 325.273024 
L 211.267267 322.82857 
L 212.30991 318.0622 
L 213.352553 312.174573 
L 215.09029 300.78707 
L 217.175576 287.15399 
L 218.218218 281.540283 
L 218.913313 278.554904 
L 219.608408 276.291974 
L 220.303504 274.81525 
L 220.651051 274.381508 
L 220.998599 274.15114 
L 221.346146 274.121206 
L 221.693694 274.286244 
L 222.041241 274.638303 
L 222.736336 275.859724 
L 223.431431 277.675735 
L 224.474074 281.198207 
L 226.906907 290.054133 
L 227.602002 291.940925 
L 228.297097 293.267755 
L 228.992192 293.942682 
L 229.33974 294.020154 
L 229.687287 293.9226 
L 230.034835 293.652997 
L 230.72993 292.626316 
L 231.425025 291.028938 
L 232.467668 287.864382 
L 234.900501 280.014168 
L 235.595596 278.443704 
L 236.290691 277.419288 
L 236.638238 277.13614 
L 236.985786 277.013284 
L 237.333333 277.053145 
L 237.680881 277.255715 
L 238.375976 278.13806 
L 239.071071 279.620379 
L 239.766166 281.640323 
L 240.808809 285.511678 
L 242.198999 291.826271 
L 244.284284 302.60323 
L 247.064665 316.914376 
L 248.454855 323.101083 
L 249.845045 328.182496 
L 250.887688 331.138852 
L 251.93033 333.315437 
L 252.625425 334.328968 
L 253.320521 334.995521 
L 254.015616 335.319925 
L 254.710711 335.307617 
L 255.405806 334.964366 
L 256.100901 334.297024 
L 256.795996 333.315292 
L 257.838639 331.288309 
L 258.881281 328.677891 
L 260.271471 324.552971 
L 262.704304 317.110278 
L 263.746947 314.506723 
L 264.78959 312.535233 
L 265.484685 311.598418 
L 266.17978 310.93868 
L 267.222422 310.341779 
L 269.307708 309.438674 
L 270.002803 308.856988 
L 270.697898 307.998623 
L 271.392993 306.822082 
L 272.435636 304.461614 
L 273.825826 300.484608 
L 275.563564 295.40408 
L 276.258659 293.781823 
L 276.953754 292.597451 
L 277.648849 291.960689 
L 277.996396 291.873658 
L 278.343944 291.950265 
L 278.691491 292.194545 
L 279.386587 293.189796 
L 280.081682 294.842187 
L 280.776777 297.097363 
L 281.819419 301.414569 
L 283.557157 310.102049 
L 285.642442 320.494185 
L 286.685085 324.80336 
L 287.727728 328.183709 
L 288.422823 329.848669 
L 289.117918 331.013612 
L 289.813013 331.666526 
L 290.160561 331.799678 
L 290.508108 331.804207 
L 290.855656 331.680827 
L 291.550751 331.055232 
L 292.245846 329.93703 
L 292.940941 328.348178 
L 293.983584 325.154453 
L 295.026226 321.13225 
L 296.763964 313.234978 
L 298.849249 303.663337 
L 299.891892 299.714024 
L 300.586987 297.632973 
L 301.282082 296.092526 
L 301.977177 295.155096 
L 302.324725 294.925531 
L 302.672272 294.859128 
L 303.01982 294.956602 
L 303.367367 295.216983 
L 304.062462 296.214307 
L 304.757558 297.810925 
L 305.452653 299.943233 
L 306.495295 303.959727 
L 308.233033 311.976451 
L 310.665866 323.233925 
L 312.056056 328.507097 
L 313.098699 331.66325 
L 314.141341 334.123363 
L 315.183984 335.948224 
L 316.226627 337.237445 
L 317.269269 338.105393 
L 318.311912 338.662466 
L 319.702102 339.082519 
L 321.43984 339.313451 
L 324.22022 339.413163 
L 336.036837 339.428563 
L 346.810811 339.317578 
L 348.548549 339.09749 
L 349.938739 338.702028 
L 350.981381 338.184436 
L 352.024024 337.390201 
L 353.066667 336.233299 
L 354.109309 334.636294 
L 355.151952 332.55179 
L 356.194595 329.987143 
L 357.584785 325.978577 
L 360.017618 318.747348 
L 361.06026 316.325365 
L 361.755355 315.158276 
L 362.45045 314.428044 
L 363.145546 314.176612 
L 363.493093 314.236131 
L 364.188188 314.721233 
L 364.883283 315.667939 
L 365.578378 317.022195 
L 366.621021 319.649983 
L 368.706306 325.910348 
L 370.096496 329.874623 
L 371.139139 332.366927 
L 372.181782 334.315247 
L 372.876877 335.285822 
L 373.571972 335.988195 
L 374.267067 336.422748 
L 374.962162 336.591156 
L 375.657257 336.494382 
L 376.352352 336.131851 
L 377.047447 335.501928 
L 377.742543 334.603624 
L 378.785185 332.759903 
L 379.827828 330.359344 
L 381.218018 326.474925 
L 383.998398 318.296187 
L 385.041041 315.996221 
L 385.736136 314.933175 
L 386.431231 314.31951 
L 386.778779 314.193391 
L 387.126326 314.190821 
L 387.473874 314.311848 
L 388.168969 314.915848 
L 388.864064 315.970541 
L 389.559159 317.416414 
L 390.601802 320.143235 
L 394.772372 332.124266 
L 395.815015 334.297713 
L 396.857658 335.980229 
L 397.9003 337.211192 
L 398.942943 338.064369 
L 399.985586 338.62555 
L 401.375776 339.058735 
L 403.113514 339.302905 
L 405.893894 339.410834 
L 411.802202 339.371576 
L 413.887487 339.202476 
L 415.277678 338.914482 
L 416.32032 338.52446 
L 417.362963 337.907269 
L 418.405606 336.979402 
L 419.448248 335.656055 
L 420.490891 333.868853 
L 421.533534 331.589155 
L 422.923724 327.856635 
L 426.399199 317.704043 
L 427.441842 315.581574 
L 428.136937 314.667977 
L 428.832032 314.219363 
L 429.17958 314.178662 
L 429.527127 314.261764 
L 430.222222 314.792705 
L 430.917317 315.781448 
L 431.612412 317.171933 
L 432.655055 319.840613 
L 434.74034 326.140067 
L 436.478078 331.026039 
L 437.520721 333.411531 
L 438.563363 335.306031 
L 439.606006 336.72613 
L 440.648649 337.733622 
L 441.691291 338.411465 
L 442.733934 338.844608 
L 444.124124 339.168421 
L 446.209409 339.361812 
L 450.37998 339.425984 
L 468.8 339.428571 
L 468.8 339.428571 
" style="fill:none;stroke:#2c7ef7;stroke-linecap:round;stroke-width:1.75;"/>
   </g>
   <g id="line2d_56">
    <path clip-path="url(#p2ca6b2eda0)" d="M 121.6 337.136536 
L 122.99019 336.132976 
L 124.38038 334.772613 
L 125.423023 333.463646 
L 126.465666 331.860387 
L 127.508308 329.917944 
L 128.550951 327.590001 
L 129.593594 324.83017 
L 130.983784 320.401534 
L 132.373974 315.029961 
L 133.764164 308.639353 
L 135.154354 301.182669 
L 136.544545 292.651071 
L 138.282282 280.537053 
L 140.367568 264.142709 
L 143.147948 240.154802 
L 147.318519 204.141897 
L 149.056256 190.975926 
L 150.446446 181.877102 
L 151.836637 174.355071 
L 152.879279 169.878573 
L 153.921922 166.470156 
L 154.617017 164.808428 
L 155.312112 163.638693 
L 156.007207 162.957349 
L 156.702302 162.75496 
L 157.04985 162.828871 
L 157.744945 163.314941 
L 158.44004 164.23237 
L 159.135135 165.553561 
L 160.177778 168.22215 
L 161.22042 171.606543 
L 162.610611 177.003009 
L 164.348348 184.709428 
L 169.909109 210.246196 
L 171.646847 217.097802 
L 173.384585 223.129378 
L 175.122322 228.373887 
L 176.86006 232.945163 
L 178.945345 237.766144 
L 181.725726 243.550655 
L 186.591391 253.588074 
L 189.024224 259.157687 
L 191.457057 265.287416 
L 194.237437 272.936026 
L 200.493293 290.553919 
L 202.231031 294.71557 
L 203.621221 297.555077 
L 205.011411 299.86496 
L 206.054054 301.210663 
L 207.096697 302.205947 
L 208.139339 302.844728 
L 209.181982 303.131612 
L 210.224625 303.081834 
L 211.267267 302.72063 
L 212.30991 302.082069 
L 213.352553 301.207422 
L 214.742743 299.754784 
L 216.828028 297.201442 
L 220.303504 292.872611 
L 222.041241 291.03527 
L 223.431431 289.82355 
L 224.821622 288.87203 
L 226.211812 288.193185 
L 227.602002 287.790217 
L 228.992192 287.662571 
L 230.382382 287.81047 
L 231.772573 288.237663 
L 233.162763 288.951932 
L 234.552953 289.96338 
L 235.943143 291.280874 
L 237.333333 292.9074 
L 238.723524 294.835232 
L 240.461261 297.632782 
L 242.546547 301.444112 
L 249.14995 313.963863 
L 250.887688 316.535512 
L 252.277878 318.172416 
L 253.320521 319.123802 
L 254.363163 319.825603 
L 255.405806 320.273936 
L 256.448448 320.471766 
L 257.491091 320.428469 
L 258.533734 320.159196 
L 259.576376 319.684076 
L 260.966567 318.772734 
L 262.704304 317.281057 
L 265.137137 314.791456 
L 268.96016 310.823495 
L 270.697898 309.332762 
L 272.088088 308.391814 
L 273.478278 307.722072 
L 274.868468 307.352637 
L 275.911111 307.280804 
L 276.953754 307.383648 
L 278.343944 307.777949 
L 279.734134 308.431974 
L 281.471872 309.530079 
L 287.727728 313.8484 
L 289.117918 314.427611 
L 290.508108 314.766106 
L 291.898298 314.86143 
L 293.288488 314.738952 
L 295.026226 314.359394 
L 299.196797 313.303382 
L 300.586987 313.211591 
L 301.977177 313.376725 
L 303.01982 313.699612 
L 304.062462 314.206824 
L 305.452653 315.174555 
L 306.842843 316.460847 
L 308.580581 318.458011 
L 310.665866 321.273603 
L 317.269269 330.59616 
L 319.354555 332.969524 
L 321.092292 334.607147 
L 322.83003 335.9311 
L 324.567768 336.961534 
L 326.305506 337.733103 
L 328.043243 338.286912 
L 330.128529 338.721114 
L 332.561361 338.983761 
L 335.341742 339.035163 
L 338.122122 338.846904 
L 340.554955 338.460815 
L 342.64024 337.927917 
L 344.725526 337.173008 
L 346.810811 336.172057 
L 348.896096 334.92396 
L 351.328929 333.202441 
L 358.27988 328.043969 
L 360.017618 327.10163 
L 361.755355 326.426679 
L 363.145546 326.095064 
L 364.883283 325.932358 
L 366.621021 326.008349 
L 369.053854 326.374684 
L 373.224424 327.047158 
L 375.30971 327.135461 
L 377.394995 326.992467 
L 380.175375 326.539778 
L 383.650851 325.992782 
L 385.388589 325.935711 
L 387.126326 326.122159 
L 388.516517 326.473871 
L 390.254254 327.171895 
L 391.991992 328.131008 
L 394.077277 329.545278 
L 401.375776 334.77599 
L 403.113514 335.665226 
L 404.851251 336.310733 
L 406.588989 336.687774 
L 407.979179 336.787132 
L 409.369369 336.704295 
L 411.107107 336.347713 
L 412.844845 335.722259 
L 414.582583 334.85261 
L 416.667868 333.543463 
L 419.795796 331.258485 
L 422.923724 329.022712 
L 424.661461 328.006442 
L 426.399199 327.264119 
L 427.789389 326.913132 
L 429.17958 326.801461 
L 430.56977 326.936022 
L 431.95996 327.309225 
L 433.35015 327.899782 
L 435.087888 328.892607 
L 437.520721 330.607212 
L 443.429029 334.967327 
L 445.514314 336.206201 
L 447.5996 337.201653 
L 449.684885 337.956116 
L 452.117718 338.569199 
L 454.898098 338.997124 
L 458.373574 339.26531 
L 463.586787 339.398381 
L 468.8 339.424336 
L 468.8 339.424336 
" style="fill:none;stroke:#2adddd;stroke-linecap:round;stroke-width:1.75;"/>
   </g>
   <g id="line2d_57">
    <path clip-path="url(#p2ca6b2eda0)" d="M 121.6 325.804334 
L 123.337738 322.391785 
L 125.075475 318.376585 
L 126.813213 313.721023 
L 128.550951 308.402662 
L 130.288689 302.418422 
L 132.373974 294.388196 
L 134.806807 283.960616 
L 137.587187 270.939313 
L 146.970971 225.876295 
L 149.056256 217.49794 
L 150.793994 211.429472 
L 152.184184 207.261669 
L 153.574374 203.756185 
L 154.964565 200.945093 
L 156.007207 199.303063 
L 157.04985 198.062593 
L 158.092492 197.220176 
L 158.787588 196.875898 
L 159.482683 196.701577 
L 160.177778 196.692969 
L 160.872873 196.845102 
L 161.915516 197.362198 
L 162.958158 198.206695 
L 164.000801 199.354707 
L 165.390991 201.312863 
L 166.781181 203.700567 
L 168.518919 207.189345 
L 170.604204 211.950078 
L 173.384585 218.947027 
L 178.597798 232.868755 
L 184.158559 247.481857 
L 188.329129 257.818914 
L 191.804605 265.88395 
L 194.932533 272.590372 
L 197.365365 277.345577 
L 199.798198 281.607724 
L 201.883483 284.807941 
L 203.621221 287.123253 
L 205.358959 289.101419 
L 207.096697 290.735543 
L 208.834434 292.029337 
L 210.572172 292.997829 
L 212.30991 293.667285 
L 214.047648 294.074374 
L 215.785385 294.264637 
L 217.870671 294.280748 
L 221.693694 294.022767 
L 224.821622 293.88742 
L 226.906907 293.990126 
L 228.992192 294.323159 
L 230.72993 294.807671 
L 232.467668 295.494047 
L 234.552953 296.584741 
L 236.638238 297.947696 
L 239.071071 299.827234 
L 242.198999 302.553035 
L 248.454855 308.071934 
L 250.887688 309.888839 
L 252.972973 311.183699 
L 255.058258 312.197722 
L 256.795996 312.816868 
L 258.533734 313.233099 
L 260.619019 313.483083 
L 262.704304 313.497306 
L 265.137137 313.284924 
L 268.612613 312.73496 
L 274.173373 311.859519 
L 277.301301 311.623339 
L 280.081682 311.63416 
L 283.20961 311.890362 
L 286.337538 312.369457 
L 289.813013 313.115294 
L 293.636036 314.172253 
L 297.111512 315.380596 
L 300.239439 316.724473 
L 303.01982 318.160625 
L 305.8002 319.836744 
L 308.928128 321.985334 
L 313.098699 325.148835 
L 319.354555 329.917143 
L 322.482482 332.007538 
L 324.915315 333.395361 
L 327.348148 334.534329 
L 329.780981 335.402617 
L 331.866266 335.924516 
L 333.951552 336.242162 
L 336.036837 336.361872 
L 338.46967 336.265783 
L 340.902503 335.938258 
L 343.682883 335.318765 
L 346.810811 334.373627 
L 350.981381 332.854151 
L 358.974975 329.885109 
L 362.45045 328.846108 
L 365.578378 328.121014 
L 368.706306 327.608054 
L 371.834234 327.302314 
L 375.30971 327.192542 
L 378.785185 327.315645 
L 382.260661 327.671333 
L 385.736136 328.25926 
L 389.559159 329.150243 
L 394.772372 330.628486 
L 399.985586 332.059222 
L 403.113514 332.70304 
L 405.893894 333.056906 
L 408.674274 333.173202 
L 411.454655 333.053544 
L 414.582583 332.681621 
L 419.448248 331.831282 
L 423.966366 331.117323 
L 426.746747 330.880918 
L 429.527127 330.873429 
L 431.95996 331.076118 
L 434.74034 331.542207 
L 437.868268 332.323068 
L 441.691291 333.527996 
L 451.075075 336.593564 
L 454.898098 337.551313 
L 458.721121 338.264825 
L 462.544144 338.753203 
L 467.062262 339.102506 
L 468.8 339.188126 
L 468.8 339.188126 
" style="fill:none;stroke:#80ffb4;stroke-linecap:round;stroke-width:1.75;"/>
   </g>
   <g id="line2d_58">
    <path clip-path="url(#p2ca6b2eda0)" d="M 121.6 313.269831 
L 123.685285 308.659606 
L 126.118118 302.696002 
L 128.550951 296.145 
L 131.331331 288.034772 
L 134.806807 277.200353 
L 144.190591 247.457164 
L 146.970971 239.610895 
L 149.056256 234.315613 
L 151.141542 229.632208 
L 152.879279 226.254575 
L 154.617017 223.393588 
L 156.007207 221.495017 
L 157.397397 219.953323 
L 158.787588 218.773297 
L 159.83023 218.126163 
L 160.872873 217.681692 
L 161.915516 217.437435 
L 162.958158 217.389776 
L 164.000801 217.534004 
L 165.043443 217.864389 
L 166.433634 218.582853 
L 167.823824 219.602291 
L 169.214014 220.902449 
L 170.951752 222.888694 
L 172.689489 225.233105 
L 174.774775 228.451555 
L 177.207608 232.658346 
L 180.335536 238.578986 
L 185.548749 249.060162 
L 190.761962 259.409586 
L 194.237437 265.831545 
L 197.017818 270.554753 
L 199.798198 274.844284 
L 202.231031 278.213321 
L 204.663864 281.213465 
L 207.096697 283.8488 
L 209.52953 286.136125 
L 211.962362 288.103841 
L 214.395195 289.790243 
L 217.175576 291.432229 
L 220.303504 293.006712 
L 224.474074 294.84033 
L 234.205405 299.038507 
L 239.766166 301.753775 
L 249.845045 306.75727 
L 253.668068 308.370174 
L 257.143544 309.591097 
L 260.619019 310.555732 
L 264.094494 311.276352 
L 267.917518 311.837902 
L 273.478278 312.397788 
L 281.124324 313.17993 
L 285.294895 313.836005 
L 289.117918 314.667287 
L 292.593393 315.642947 
L 296.068869 316.83712 
L 299.891892 318.394336 
L 304.062462 320.347597 
L 309.275676 323.052773 
L 319.354555 328.346415 
L 323.177578 330.074469 
L 326.653053 331.390479 
L 329.780981 332.324562 
L 332.561361 332.936865 
L 335.341742 333.338034 
L 338.122122 333.532028 
L 341.25005 333.518923 
L 344.377978 333.290041 
L 348.201001 332.775884 
L 353.066667 331.877143 
L 364.535736 329.661422 
L 369.053854 329.07261 
L 373.224424 328.767225 
L 377.047447 328.702617 
L 381.218018 328.856303 
L 385.736136 329.244787 
L 391.991992 330.024189 
L 402.070871 331.290841 
L 407.631632 331.736943 
L 413.53994 331.966419 
L 428.484484 332.384638 
L 433.35015 332.835204 
L 438.215816 333.516133 
L 444.124124 334.584756 
L 458.721121 337.345197 
L 464.281882 338.112628 
L 468.8 338.57293 
L 468.8 338.57293 
" style="fill:none;stroke:#d4dd80;stroke-linecap:round;stroke-width:1.75;"/>
   </g>
   <g id="line2d_59">
    <path clip-path="url(#p2ca6b2eda0)" d="M 121.6 304.590396 
L 124.727928 298.3802 
L 128.203403 290.963837 
L 133.069069 279.977105 
L 141.062663 261.858353 
L 144.538138 254.599423 
L 147.318519 249.310157 
L 149.751351 245.159654 
L 151.836637 242.011414 
L 153.921922 239.279275 
L 155.65966 237.34138 
L 157.397397 235.725188 
L 159.135135 234.439359 
L 160.525325 233.651813 
L 161.915516 233.079273 
L 163.305706 232.720635 
L 164.695896 232.573214 
L 166.086086 232.6328 
L 167.476276 232.893739 
L 168.866466 233.349031 
L 170.604204 234.178786 
L 172.341942 235.280728 
L 174.07968 236.633998 
L 176.164965 238.557503 
L 178.597798 241.161234 
L 181.378178 244.525271 
L 184.506106 248.677901 
L 189.024224 255.076265 
L 197.365365 266.936482 
L 201.188388 271.977409 
L 204.663864 276.207982 
L 207.791792 279.693417 
L 210.91972 282.86468 
L 214.047648 285.730175 
L 217.175576 288.311238 
L 220.651051 290.882441 
L 224.474074 293.405867 
L 228.644645 295.868126 
L 233.162763 298.276031 
L 238.375976 300.804074 
L 243.936737 303.261278 
L 249.497497 305.480773 
L 254.710711 307.329779 
L 259.923924 308.944612 
L 265.484685 310.428651 
L 272.435636 312.038786 
L 284.947347 314.901344 
L 290.508108 316.426521 
L 295.721321 318.079276 
L 301.282082 320.072064 
L 309.275676 323.206716 
L 317.964364 326.57148 
L 322.83003 328.227612 
L 327.000601 329.427948 
L 330.823624 330.313053 
L 334.646647 330.973903 
L 338.46967 331.407446 
L 342.292693 331.625131 
L 346.463263 331.645622 
L 351.328929 331.444258 
L 358.27988 330.907483 
L 369.748949 330.016316 
L 375.657257 329.791905 
L 381.565566 329.790629 
L 388.168969 330.027434 
L 396.857658 330.584444 
L 428.832032 333.012839 
L 437.173173 333.928549 
L 447.252052 335.283687 
L 462.196597 337.301008 
L 468.8 338.002001 
L 468.8 338.002001 
" style="fill:none;stroke:#ff7e41;stroke-linecap:round;stroke-width:1.75;"/>
   </g>
   <g id="line2d_60">
    <path clip-path="url(#p2ca6b2eda0)" d="M 121.6 299.496284 
L 126.118118 292.031043 
L 135.154354 276.49022 
L 140.02002 268.410329 
L 143.495495 263.035474 
L 146.623423 258.605496 
L 149.403804 255.06594 
L 151.836637 252.321038 
L 154.269469 249.937144 
L 156.354755 248.199954 
L 158.44004 246.757818 
L 160.525325 245.618651 
L 162.263063 244.90384 
L 164.000801 244.402652 
L 165.738539 244.113578 
L 167.476276 244.033335 
L 169.214014 244.156937 
L 170.951752 244.4778 
L 173.037037 245.111772 
L 175.122322 246.001669 
L 177.207608 247.128661 
L 179.64044 248.715318 
L 182.073273 250.560766 
L 184.853654 252.938746 
L 188.329129 256.230996 
L 192.4997 260.505862 
L 209.877077 278.715874 
L 214.047648 282.600745 
L 218.218218 286.183581 
L 222.388789 289.455025 
L 226.559359 292.422998 
L 230.72993 295.106818 
L 234.900501 297.53197 
L 239.418619 299.899283 
L 244.284284 302.184475 
L 249.497497 304.37217 
L 255.058258 306.456556 
L 261.314114 308.555702 
L 268.96016 310.872287 
L 298.154154 319.454022 
L 317.964364 325.658615 
L 323.872673 327.219888 
L 329.085886 328.376275 
L 333.951552 329.238769 
L 338.817217 329.882355 
L 344.03043 330.338153 
L 349.591191 330.590745 
L 356.194595 330.653374 
L 366.621021 330.487818 
L 379.132733 330.346317 
L 387.821421 330.475605 
L 397.205205 330.848118 
L 407.979179 331.50806 
L 420.490891 332.501012 
L 433.002603 333.715487 
L 449.337337 335.55573 
L 464.629429 337.211029 
L 468.8 337.594703 
L 468.8 337.594703 
" style="fill:none;stroke:#ff0000;stroke-linecap:round;stroke-width:1.75;"/>
   </g>
   <g id="patch_3">
    <path d="M 72 43.2 
L 518.4 43.2 
" style="fill:none;"/>
   </g>
   <g id="patch_4">
    <path d="M 518.4 388.8 
L 518.4 43.2 
" style="fill:none;"/>
   </g>
   <g id="patch_5">
    <path d="M 72 388.8 
L 518.4 388.8 
" style="fill:none;"/>
   </g>
   <g id="patch_6">
    <path d="M 72 388.8 
L 72 43.2 
" style="fill:none;"/>
   </g>
   <g id="text_20">
    <!-- Gaussian KDE for different bandwiths (in $M_{\odot}$) -->
    <defs>
     <path d="M 14.90625 21.296875 
C 14.90625 30.703125 21.796875 37 30.59375 37 
L 30.59375 43.578125 
C 24.203125 43.578125 18.203125 40.390625 14.59375 35.203125 
L 14.59375 43.09375 
L 7.5 43.09375 
L 7.5 0 
L 14.90625 0 
z
" id="CMSS17-114"/>
     <path d="M 40.90625 42.796875 
L 33.296875 42.796875 
L 33.296875 15.1875 
C 33.296875 7.78125 27.90625 4.78125 22.203125 4.78125 
C 15.59375 4.78125 15 6.984375 15 11.078125 
L 15 42.796875 
L 7.40625 42.796875 
L 7.40625 10.59375 
C 7.40625 2.796875 10.09375 -1 17 -1 
C 20.40625 -1 28.09375 -0.203125 33.5 4.78125 
L 33.5 0 
L 40.90625 0 
z
" id="CMSS17-117"/>
     <path d="M 15.296875 65.359375 
L 6.90625 65.359375 
L 6.90625 57 
L 15.296875 57 
z
M 14.796875 42.796875 
L 7.40625 42.796875 
L 7.40625 0 
L 14.796875 0 
z
" id="CMSS17-105"/>
     <path d="M 16.796875 37 
L 26.90625 37 
L 26.90625 42.765625 
L 16.59375 42.765625 
L 16.59375 55.609375 
C 16.59375 62.71875 22 63.9375 25.09375 63.9375 
C 26.09375 63.9375 28.90625 63.9375 32.5 62.640625 
L 32.5 69.203125 
C 30.203125 69.703125 27.40625 70 25.203125 70 
C 15.90625 70 9.40625 62.390625 9.40625 52.484375 
L 9.40625 42.765625 
L 2.5 42.765625 
L 2.5 37 
L 9.40625 37 
L 9.40625 0 
L 16.796875 0 
z
" id="CMSS17-102"/>
     <path d="M 40.90625 29.328125 
C 40.90625 35.671875 39.40625 44 28.09375 44 
C 21.703125 44 17.5 40.71875 14.703125 37.328125 
L 14.703125 43.09375 
L 7.40625 43.09375 
L 7.40625 0 
L 15 0 
L 15 24.359375 
C 15 30.6875 17.40625 37.9375 24.203125 37.9375 
C 33 37.9375 33.296875 32 33.296875 28.578125 
L 33.296875 0 
L 40.90625 0 
z
" id="CMSS17-110"/>
     <path d="M 56.40625 29 
L 36.5 29 
L 36.5 22.828125 
L 48.796875 22.828125 
L 48.796875 7.359375 
C 44.90625 6.265625 40.90625 5.46875 36.90625 5.46875 
C 22.90625 5.46875 14.59375 20.328125 14.59375 34.375 
C 14.59375 48.359375 23.296875 63 36.90625 63 
C 44.59375 63 48.90625 60.640625 54.203125 56.671875 
L 55.5 64.59375 
C 48.90625 67.984375 44.796875 69.375 37.296875 69.375 
C 17.90625 69.375 6.203125 51.9375 6.203125 34.09375 
C 6.203125 17.03125 18 -1 36.703125 -1 
C 43.703125 -1 50.203125 0.796875 56.40625 3.875 
z
" id="CMSS17-71"/>
     <path d="M 62.703125 43 
L 55.09375 43 
L 49.796875 25.015625 
C 48.703125 21.21875 45.59375 10.703125 45.203125 5.796875 
L 45.09375 5.796875 
C 44.90625 8.8125 43.203125 16 40.40625 25.515625 
L 35.296875 43 
L 28.40625 43 
L 23.40625 25.90625 
C 20.90625 17.203125 19 9.796875 18.796875 5.796875 
L 18.703125 5.796875 
C 18.296875 11.703125 14.203125 25.515625 13.59375 27.703125 
L 9.09375 43 
L 1.296875 43 
L 14.296875 0 
L 21.90625 0 
C 27.09375 17.125 31.09375 30.359375 31.40625 37.03125 
C 31.59375 33.75 33.296875 26.671875 34.296875 23.1875 
L 40.90625 0 
L 49.703125 0 
z
" id="CMSS17-119"/>
     <path d="M 34.90625 41.65625 
L 59.796875 69 
L 50.203125 69 
L 17.203125 32.90625 
L 17.203125 69 
L 8.796875 69 
L 8.796875 0 
L 17.203125 0 
L 17.203125 22.375 
L 29.296875 35.59375 
L 51.796875 0 
L 61.09375 0 
z
" id="CMSS17-75"/>
     <path d="M 40.796875 69 
L 33.40625 69 
L 33.40625 38.09375 
C 30.296875 40.671875 25.203125 43.0625 19.59375 43.0625 
C 10.5 43.0625 3.296875 33.296875 3.296875 21.046875 
C 3.296875 8.78125 10.40625 -1 19.296875 -1 
C 26.203125 -1 30.796875 2.6875 33.203125 4.78125 
L 33.203125 -0.203125 
L 40.796875 -0.203125 
z
M 33.203125 13.0625 
C 33.203125 11.671875 33.203125 10.203125 30.09375 7.53125 
C 28.09375 5.859375 25.703125 5.078125 23.40625 5.078125 
C 18 5.078125 10.90625 9 10.90625 20.9375 
C 10.90625 33.34375 18.90625 37 24.40625 37 
C 28.09375 37 31.09375 35.21875 33.203125 32.265625 
z
" id="CMSS17-100"/>
     <path d="M 8.90625 69 
L 8.90625 0 
L 33.5 0 
C 49.90625 0 62.5 15.3125 62.5 33.90625 
C 62.5 53.09375 49.90625 69 33.5 69 
z
M 17.09375 5.578125 
L 17.09375 63.421875 
L 31.296875 63.421875 
C 44.703125 63.421875 54.296875 51.203125 54.296875 33.90625 
C 54.296875 17.296875 44.796875 5.578125 31.296875 5.578125 
z
" id="CMSS17-68"/>
     <path d="M 30.59375 6.765625 
C 22.59375 6.765625 19 6.765625 17.203125 6.765625 
L 17.203125 32.921875 
L 48.203125 32.921875 
L 48.203125 39 
L 17.203125 39 
L 17.203125 62.640625 
L 30.09375 62.640625 
C 31.296875 62.640625 32.5 62.640625 33.703125 62.640625 
L 50.796875 62.640625 
L 50.796875 69 
L 8.796875 69 
L 8.796875 0 
L 52.09375 0 
L 52.09375 6.765625 
z
" id="CMSS17-69"/>
     <path d="M 16.703125 37 
L 29.703125 37 
L 29.703125 42.765625 
L 16.703125 42.765625 
L 16.703125 55 
L 9.59375 55 
L 9.59375 42.765625 
L 1.703125 42.765625 
L 1.703125 37 
L 9.40625 37 
L 9.40625 11.703125 
C 9.40625 6 10.703125 -1 17.296875 -1 
C 22.296875 -1 26.90625 0.390625 31.296875 2.6875 
L 29.703125 8.5625 
C 27.296875 6.46875 24.40625 5.265625 21.296875 5.265625 
C 16.90625 5.265625 16.703125 10.875 16.703125 13.375 
z
" id="CMSS17-116"/>
     <path d="M 40.90625 29.546875 
C 40.90625 35.8125 39.40625 44.0625 28.09375 44.0625 
C 21.796875 44.0625 17.703125 40.984375 14.796875 37.609375 
L 14.796875 69.5 
L 7.40625 69.5 
L 7.40625 0.5 
L 15 0.5 
L 15 24.578125 
C 15 30.828125 17.40625 38 24.203125 38 
C 33 38 33.296875 32.125 33.296875 28.734375 
L 33.296875 0.5 
L 40.90625 0.5 
z
" id="CMSS17-104"/>
     <path d="M 16.796875 37 
L 27.09375 37 
L 27.09375 42.765625 
L 16.59375 42.765625 
L 16.59375 55.609375 
C 16.59375 62.515625 21.796875 63.9375 25.203125 63.9375 
C 28.703125 63.9375 31.59375 63.03125 32.703125 62.640625 
L 32.703125 69.203125 
C 31.59375 69.40625 28.59375 70 25.296875 70 
C 16.09375 70 9.40625 62.484375 9.40625 52.484375 
L 9.40625 42.765625 
L 2.5 42.765625 
L 2.5 37 
L 9.40625 37 
L 9.40625 0 
L 16.796875 0 
z
M 42.796875 37 
L 53.09375 37 
L 53.09375 42.765625 
L 42.59375 42.765625 
L 42.59375 55.609375 
C 42.59375 62.515625 47.796875 63.9375 51.203125 63.9375 
C 54.703125 63.9375 57.59375 63.03125 58.703125 62.640625 
L 58.703125 69.203125 
C 57.59375 69.40625 54.59375 70 51.296875 70 
C 42.09375 70 35.40625 62.515625 35.40625 52.546875 
L 35.40625 0 
L 42.796875 0 
z
" id="CMSS17-11"/>
     <path d="M 14.90625 69 
L 7.5 69 
L 7.5 -0.203125 
L 15.09375 -0.203125 
L 15.09375 4.28125 
C 18.90625 0.59375 23.5 -1 27.59375 -1 
C 37.203125 -1 45 8.578125 45 21.125 
C 45 32.59375 39 43.0625 30.09375 43.0625 
C 23.796875 43.0625 18.203125 40.484375 14.90625 37.796875 
z
M 15.09375 31.96875 
C 17.296875 34.71875 20.40625 37 24.796875 37 
C 30.703125 37 37.40625 32.765625 37.40625 21.125 
C 37.40625 8.71875 29.40625 5.078125 23.90625 5.078125 
C 21.90625 5.078125 19.796875 5.5625 17.796875 7.25 
C 15.09375 9.609375 15.09375 11.078125 15.09375 12.453125 
z
" id="CMSS17-98"/>
    </defs>
    <g style="fill:#262626;" transform="translate(181.088565463 38.2)scale(0.12 -0.12)">
     <use transform="translate(0.0 14.9439145441)scale(0.996264009963)" xlink:href="#CMSS17-71"/>
     <use transform="translate(62.458225502 14.9439145441)scale(0.996264009963)" xlink:href="#CMSS17-97"/>
     <use transform="translate(107.380146107 14.9439145441)scale(0.996264009963)" xlink:href="#CMSS17-117"/>
     <use transform="translate(155.585089241 14.9439145441)scale(0.996264009963)" xlink:href="#CMSS17-115"/>
     <use transform="translate(191.498631232 14.9439145441)scale(0.996264009963)" xlink:href="#CMSS17-115"/>
     <use transform="translate(227.412173222 14.9439145441)scale(0.996264009963)" xlink:href="#CMSS17-105"/>
     <use transform="translate(249.592896268 14.9439145441)scale(0.996264009963)" xlink:href="#CMSS17-97"/>
     <use transform="translate(294.514816873 14.9439145441)scale(0.996264009963)" xlink:href="#CMSS17-110"/>
     <use transform="translate(373.948872757 14.9439145441)scale(0.996264009963)" xlink:href="#CMSS17-75"/>
     <use transform="translate(438.769166407 14.9439145441)scale(0.996264009963)" xlink:href="#CMSS17-68"/>
     <use transform="translate(506.31200807 14.9439145441)scale(0.996264009963)" xlink:href="#CMSS17-69"/>
     <use transform="translate(593.433134048 14.9439145441)scale(0.996264009963)" xlink:href="#CMSS17-102"/>
     <use transform="translate(622.059792867 14.9439145441)scale(0.996264009963)" xlink:href="#CMSS17-111"/>
     <use transform="translate(666.300962455 14.9439145441)scale(0.996264009963)" xlink:href="#CMSS17-114"/>
     <use transform="translate(729.439847763 14.9439145441)scale(0.996264009963)" xlink:href="#CMSS17-100"/>
     <use transform="translate(777.644790896 14.9439145441)scale(0.996264009963)" xlink:href="#CMSS17-105"/>
     <use transform="translate(799.825513942 14.9439145441)scale(0.996264009963)" xlink:href="#CMSS17-11"/>
     <use transform="translate(854.476484059 14.9439145441)scale(0.996264009963)" xlink:href="#CMSS17-101"/>
     <use transform="translate(896.115306127 14.9439145441)scale(0.996264009963)" xlink:href="#CMSS17-114"/>
     <use transform="translate(928.025078684 14.9439145441)scale(0.996264009963)" xlink:href="#CMSS17-101"/>
     <use transform="translate(969.663900753 14.9439145441)scale(0.996264009963)" xlink:href="#CMSS17-110"/>
     <use transform="translate(1017.86884389 14.9439145441)scale(0.996264009963)" xlink:href="#CMSS17-116"/>
     <use transform="translate(1082.92952332 14.9439145441)scale(0.996264009963)" xlink:href="#CMSS17-98"/>
     <use transform="translate(1131.13446645 14.9439145441)scale(0.996264009963)" xlink:href="#CMSS17-97"/>
     <use transform="translate(1176.05638706 14.9439145441)scale(0.996264009963)" xlink:href="#CMSS17-110"/>
     <use transform="translate(1224.26133019 14.9439145441)scale(0.996264009963)" xlink:href="#CMSS17-100"/>
     <use transform="translate(1272.46627333 14.9439145441)scale(0.996264009963)" xlink:href="#CMSS17-119"/>
     <use transform="translate(1336.28581844 14.9439145441)scale(0.996264009963)" xlink:href="#CMSS17-105"/>
     <use transform="translate(1358.46654149 14.9439145441)scale(0.996264009963)" xlink:href="#CMSS17-116"/>
     <use transform="translate(1392.29810817 14.9439145441)scale(0.996264009963)" xlink:href="#CMSS17-104"/>
     <use transform="translate(1440.5030513 14.9439145441)scale(0.996264009963)" xlink:href="#CMSS17-115"/>
     <use transform="translate(1507.64570604 14.9439145441)scale(0.996264009963)" xlink:href="#CMSS17-40"/>
     <use transform="translate(1544.07962025 14.9439145441)scale(0.996264009963)" xlink:href="#CMSS17-105"/>
     <use transform="translate(1566.26034329 14.9439145441)scale(0.996264009963)" xlink:href="#CMSS17-110"/>
     <use transform="translate(1645.69439918 14.9439145441)scale(0.996264009963)" xlink:href="#CMMI12-77"/>
     <use transform="translate(1740.06782427 0.0)scale(0.697381766617)" xlink:href="#CMSY10-12"/>
     <use transform="translate(1794.80694953 14.9439145441)scale(0.996264009963)" xlink:href="#CMSS17-41"/>
    </g>
   </g>
   <g id="legend_1">
    <g id="line2d_61">
     <path d="M 422.371251 55.7 
L 442.371251 55.7 
" style="fill:none;stroke:#2c7ef7;stroke-linecap:round;stroke-width:1.75;"/>
    </g>
    <g id="line2d_62"/>
    <g id="text_21">
     <!-- Bandwith = 1 -->
     <defs>
      <path d="M 64.796875 31.515625 
C 66.296875 31.515625 67.796875 31.515625 67.796875 33.203125 
C 67.796875 35 66.09375 35 64.40625 35 
L 8.59375 35 
C 6.90625 35 5.203125 35 5.203125 33.203125 
C 5.203125 31.515625 6.703125 31.515625 8.203125 31.515625 
z
M 64.40625 14 
C 66.09375 14 67.796875 14 67.796875 15.796875 
C 67.796875 17.484375 66.296875 17.484375 64.796875 17.484375 
L 8.203125 17.484375 
C 6.703125 17.484375 5.203125 17.484375 5.203125 15.796875 
C 5.203125 14 6.90625 14 8.59375 14 
z
" id="CMSS17-61"/>
      <path d="M 28.40625 67 
L 26.5 67 
C 21.09375 61.5625 14.796875 60.78125 8.40625 60.78125 
L 8.40625 55 
C 11.296875 55 16 55 20.703125 57.296875 
L 20.703125 5.765625 
L 8.90625 5.765625 
L 8.90625 0 
L 40.203125 0 
L 40.203125 5.765625 
L 28.40625 5.765625 
z
" id="CMSS17-49"/>
     </defs>
     <g style="fill:#262626;" transform="translate(450.371250997 59.2)scale(0.1 -0.1)">
      <use transform="scale(0.996264009963)" xlink:href="#CMSS17-66"/>
      <use transform="translate(62.3380402105 0.0)scale(0.996264009963)" xlink:href="#CMSS17-97"/>
      <use transform="translate(107.259960816 0.0)scale(0.996264009963)" xlink:href="#CMSS17-110"/>
      <use transform="translate(155.464903949 0.0)scale(0.996264009963)" xlink:href="#CMSS17-100"/>
      <use transform="translate(203.669847082 0.0)scale(0.996264009963)" xlink:href="#CMSS17-119"/>
      <use transform="translate(267.489392196 0.0)scale(0.996264009963)" xlink:href="#CMSS17-105"/>
      <use transform="translate(289.670115242 0.0)scale(0.996264009963)" xlink:href="#CMSS17-116"/>
      <use transform="translate(323.501681925 0.0)scale(0.996264009963)" xlink:href="#CMSS17-104"/>
      <use transform="translate(402.935737809 0.0)scale(0.996264009963)" xlink:href="#CMSS17-61"/>
      <use transform="translate(507.03278538 0.0)scale(0.996264009963)" xlink:href="#CMSS17-49"/>
     </g>
    </g>
    <g id="line2d_63">
     <path d="M 422.371251 69.637178 
L 442.371251 69.637178 
" style="fill:none;stroke:#2adddd;stroke-linecap:round;stroke-width:1.75;"/>
    </g>
    <g id="line2d_64"/>
    <g id="text_22">
     <!-- Bandwith = 2 -->
     <defs>
      <path d="M 25.796875 21.203125 
C 28.59375 24.078125 32.796875 27.5625 35.703125 31.046875 
C 38.5 34.4375 42.203125 39.234375 42.203125 46.203125 
C 42.203125 57.140625 34.796875 67 22.203125 67 
C 12.296875 67 6.59375 60.828125 3.90625 51.15625 
L 7.796875 45.765625 
C 10 54.84375 13.09375 60.625 20.90625 60.625 
C 29.5 60.625 34.296875 53.640625 34.296875 45.96875 
C 34.296875 36.796875 27.296875 29.703125 22 24.421875 
C 16.09375 18.546875 10.296875 12.5625 4.703125 6.375 
L 4.703125 0 
L 42.203125 0 
L 42.203125 6.765625 
L 25.203125 6.765625 
C 24 6.765625 22.796875 6.765625 21.59375 6.765625 
L 11.59375 6.765625 
L 11.59375 6.859375 
z
" id="CMSS17-50"/>
     </defs>
     <g style="fill:#262626;" transform="translate(450.371250997 73.1371783303)scale(0.1 -0.1)">
      <use transform="scale(0.996264009963)" xlink:href="#CMSS17-66"/>
      <use transform="translate(62.3380402105 0.0)scale(0.996264009963)" xlink:href="#CMSS17-97"/>
      <use transform="translate(107.259960816 0.0)scale(0.996264009963)" xlink:href="#CMSS17-110"/>
      <use transform="translate(155.464903949 0.0)scale(0.996264009963)" xlink:href="#CMSS17-100"/>
      <use transform="translate(203.669847082 0.0)scale(0.996264009963)" xlink:href="#CMSS17-119"/>
      <use transform="translate(267.489392196 0.0)scale(0.996264009963)" xlink:href="#CMSS17-105"/>
      <use transform="translate(289.670115242 0.0)scale(0.996264009963)" xlink:href="#CMSS17-116"/>
      <use transform="translate(323.501681925 0.0)scale(0.996264009963)" xlink:href="#CMSS17-104"/>
      <use transform="translate(402.935737809 0.0)scale(0.996264009963)" xlink:href="#CMSS17-61"/>
      <use transform="translate(507.03278538 0.0)scale(0.996264009963)" xlink:href="#CMSS17-50"/>
     </g>
    </g>
    <g id="line2d_65">
     <path d="M 422.371251 83.574357 
L 442.371251 83.574357 
" style="fill:none;stroke:#80ffb4;stroke-linecap:round;stroke-width:1.75;"/>
    </g>
    <g id="line2d_66"/>
    <g id="text_23">
     <!-- Bandwith = 3 -->
     <defs>
      <path d="M 15.703125 31.640625 
L 22.5 31.640625 
C 31.90625 31.640625 34.59375 23.546875 34.59375 17.90625 
C 34.59375 10.203125 30.203125 4.171875 23 4.171875 
C 17.40625 4.171875 9.5 6.9375 5 14.25 
C 4.296875 10.796875 4.296875 10.59375 3.90625 8.21875 
C 8.59375 1.375 16.203125 -2 23.203125 -2 
C 34.59375 -2 43 7.390625 43 17.78125 
C 43 25.59375 37.5 32.140625 30 34.609375 
C 36 37.875 40.40625 44 40.40625 51.140625 
C 40.40625 59.453125 32.703125 66.078125 23.296875 66.078125 
C 14.703125 66.078125 8 60.8125 5.203125 55.15625 
C 5.90625 54.1875 7.703125 51.3125 8.59375 49.828125 
C 10.796875 55.65625 16.5 60 23.203125 60 
C 28.796875 60 32.5 56.359375 32.5 51.109375 
C 32.5 45.671875 29 39.734375 23.09375 38.359375 
C 22.703125 38.359375 16.5 37.765625 15.703125 37.671875 
z
" id="CMSS17-51"/>
     </defs>
     <g style="fill:#262626;" transform="translate(450.371250997 87.0743566606)scale(0.1 -0.1)">
      <use transform="scale(0.996264009963)" xlink:href="#CMSS17-66"/>
      <use transform="translate(62.3380402105 0.0)scale(0.996264009963)" xlink:href="#CMSS17-97"/>
      <use transform="translate(107.259960816 0.0)scale(0.996264009963)" xlink:href="#CMSS17-110"/>
      <use transform="translate(155.464903949 0.0)scale(0.996264009963)" xlink:href="#CMSS17-100"/>
      <use transform="translate(203.669847082 0.0)scale(0.996264009963)" xlink:href="#CMSS17-119"/>
      <use transform="translate(267.489392196 0.0)scale(0.996264009963)" xlink:href="#CMSS17-105"/>
      <use transform="translate(289.670115242 0.0)scale(0.996264009963)" xlink:href="#CMSS17-116"/>
      <use transform="translate(323.501681925 0.0)scale(0.996264009963)" xlink:href="#CMSS17-104"/>
      <use transform="translate(402.935737809 0.0)scale(0.996264009963)" xlink:href="#CMSS17-61"/>
      <use transform="translate(507.03278538 0.0)scale(0.996264009963)" xlink:href="#CMSS17-51"/>
     </g>
    </g>
    <g id="line2d_67">
     <path d="M 422.371251 97.511535 
L 442.371251 97.511535 
" style="fill:none;stroke:#d4dd80;stroke-linecap:round;stroke-width:1.75;"/>
    </g>
    <g id="line2d_68"/>
    <g id="text_24">
     <!-- Bandwith = 4 -->
     <defs>
      <path d="M 35.203125 17 
L 44.296875 17 
L 44.296875 23.078125 
L 35.203125 23.078125 
L 35.203125 65.5 
L 26.40625 65.5 
L 2.59375 23.078125 
L 2.59375 17 
L 27.296875 17 
L 27.296875 0 
L 35.203125 0 
z
M 10.296875 23.078125 
C 16.09375 33.234375 27.59375 53.734375 27.59375 60.703125 
L 27.59375 23.078125 
z
" id="CMSS17-52"/>
     </defs>
     <g style="fill:#262626;" transform="translate(450.371250997 101.011534991)scale(0.1 -0.1)">
      <use transform="scale(0.996264009963)" xlink:href="#CMSS17-66"/>
      <use transform="translate(62.3380402105 0.0)scale(0.996264009963)" xlink:href="#CMSS17-97"/>
      <use transform="translate(107.259960816 0.0)scale(0.996264009963)" xlink:href="#CMSS17-110"/>
      <use transform="translate(155.464903949 0.0)scale(0.996264009963)" xlink:href="#CMSS17-100"/>
      <use transform="translate(203.669847082 0.0)scale(0.996264009963)" xlink:href="#CMSS17-119"/>
      <use transform="translate(267.489392196 0.0)scale(0.996264009963)" xlink:href="#CMSS17-105"/>
      <use transform="translate(289.670115242 0.0)scale(0.996264009963)" xlink:href="#CMSS17-116"/>
      <use transform="translate(323.501681925 0.0)scale(0.996264009963)" xlink:href="#CMSS17-104"/>
      <use transform="translate(402.935737809 0.0)scale(0.996264009963)" xlink:href="#CMSS17-61"/>
      <use transform="translate(507.03278538 0.0)scale(0.996264009963)" xlink:href="#CMSS17-52"/>
     </g>
    </g>
    <g id="line2d_69">
     <path d="M 422.371251 111.448713 
L 442.371251 111.448713 
" style="fill:none;stroke:#ff7e41;stroke-linecap:round;stroke-width:1.75;"/>
    </g>
    <g id="line2d_70"/>
    <g id="text_25">
     <!-- Bandwith = 5 -->
     <defs>
      <path d="M 14.59375 58.625 
L 39.09375 58.625 
L 39.09375 65 
L 7.296875 65 
L 7.296875 27.828125 
L 14 27.828125 
C 15.796875 31.96875 19.5 35 24.296875 35 
C 28.796875 35 33.796875 31.078125 33.796875 19.78125 
C 33.796875 7.703125 26.703125 4.171875 21.5 4.171875 
C 15.09375 4.171875 9.203125 8 6.59375 13.296875 
L 3.40625 7.796875 
C 8 0.765625 15.5 -2 21.5 -2 
C 33.09375 -2 42.203125 7.765625 42.203125 19.578125 
C 42.203125 31.71875 34.09375 41.078125 24.40625 41.078125 
C 20.90625 41.078125 17.5 39.890625 14.59375 37.484375 
z
" id="CMSS17-53"/>
     </defs>
     <g style="fill:#262626;" transform="translate(450.371250997 114.948713321)scale(0.1 -0.1)">
      <use transform="scale(0.996264009963)" xlink:href="#CMSS17-66"/>
      <use transform="translate(62.3380402105 0.0)scale(0.996264009963)" xlink:href="#CMSS17-97"/>
      <use transform="translate(107.259960816 0.0)scale(0.996264009963)" xlink:href="#CMSS17-110"/>
      <use transform="translate(155.464903949 0.0)scale(0.996264009963)" xlink:href="#CMSS17-100"/>
      <use transform="translate(203.669847082 0.0)scale(0.996264009963)" xlink:href="#CMSS17-119"/>
      <use transform="translate(267.489392196 0.0)scale(0.996264009963)" xlink:href="#CMSS17-105"/>
      <use transform="translate(289.670115242 0.0)scale(0.996264009963)" xlink:href="#CMSS17-116"/>
      <use transform="translate(323.501681925 0.0)scale(0.996264009963)" xlink:href="#CMSS17-104"/>
      <use transform="translate(402.935737809 0.0)scale(0.996264009963)" xlink:href="#CMSS17-61"/>
      <use transform="translate(507.03278538 0.0)scale(0.996264009963)" xlink:href="#CMSS17-53"/>
     </g>
    </g>
    <g id="line2d_71">
     <path d="M 422.371251 125.385892 
L 442.371251 125.385892 
" style="fill:none;stroke:#ff0000;stroke-linecap:round;stroke-width:1.75;"/>
    </g>
    <g id="line2d_72"/>
    <g id="text_26">
     <!-- Bandwith = 6 -->
     <defs>
      <path d="M 39 64.078125 
C 34.796875 65.78125 31.796875 66.078125 29 66.078125 
C 16 66.078125 3.90625 52.625 3.90625 31.34375 
C 3.90625 4.140625 15.40625 -2 23.59375 -2 
C 28.09375 -2 32.59375 -0.609375 36.90625 4.375 
C 41.296875 9.640625 43 14.03125 43 21.703125 
C 43 34.046875 36.90625 45 27.796875 45 
C 21.203125 45 15.5 41.515625 12 37.125 
C 13 50.90625 19.59375 60 29.09375 60 
C 31.703125 60 35.09375 59.625 39 57.96875 
z
M 12.09375 21.390625 
C 12.09375 22.1875 12.09375 22.6875 12.203125 24.1875 
C 12.203125 31.953125 16.703125 38.921875 24 38.921875 
C 28.703125 38.921875 31.09375 36.4375 32.90625 33.359375 
C 35 29.46875 35.09375 25.78125 35.09375 21.6875 
C 35.09375 17.8125 35.09375 13.921875 32.796875 9.953125 
C 30.90625 6.859375 28.40625 4.171875 23.59375 4.171875 
C 14.09375 4.171875 12.5 17.40625 12.09375 21.390625 
" id="CMSS17-54"/>
     </defs>
     <g style="fill:#262626;" transform="translate(450.371250997 128.885891651)scale(0.1 -0.1)">
      <use transform="scale(0.996264009963)" xlink:href="#CMSS17-66"/>
      <use transform="translate(62.3380402105 0.0)scale(0.996264009963)" xlink:href="#CMSS17-97"/>
      <use transform="translate(107.259960816 0.0)scale(0.996264009963)" xlink:href="#CMSS17-110"/>
      <use transform="translate(155.464903949 0.0)scale(0.996264009963)" xlink:href="#CMSS17-100"/>
      <use transform="translate(203.669847082 0.0)scale(0.996264009963)" xlink:href="#CMSS17-119"/>
      <use transform="translate(267.489392196 0.0)scale(0.996264009963)" xlink:href="#CMSS17-105"/>
      <use transform="translate(289.670115242 0.0)scale(0.996264009963)" xlink:href="#CMSS17-116"/>
      <use transform="translate(323.501681925 0.0)scale(0.996264009963)" xlink:href="#CMSS17-104"/>
      <use transform="translate(402.935737809 0.0)scale(0.996264009963)" xlink:href="#CMSS17-61"/>
      <use transform="translate(507.03278538 0.0)scale(0.996264009963)" xlink:href="#CMSS17-54"/>
     </g>
    </g>
   </g>
  </g>
 </g>
 <defs>
  <clipPath id="p2ca6b2eda0">
   <rect height="345.6" width="446.4" x="72.0" y="43.2"/>
  </clipPath>
 </defs>
</svg>
